<?xml version="1.0" encoding="UTF-8" standalone="no"?><!DOCTYPE svg PUBLIC "-//W3C//DTD SVG 1.1//EN" "http://www.w3.org/Graphics/SVG/1.1/DTD/svg11.dtd"><svg width="132px" height="119px" version="1.1" xmlns="http://www.w3.org/2000/svg" xmlns:xlink="http://www.w3.org/1999/xlink" xml:space="preserve" xmlns:serif="http://www.serif.com/" style="fill-rule:evenodd;clip-rule:evenodd;stroke-linejoin:round;stroke-miterlimit:1.41421;"><path d="M130.496,25.621l-18.374,-5.37l-13.223,-1.275l-15.666,19.915l2.39,-18.852l-10.621,13.276l-7.169,-11.683l-17.259,33.721l3.186,21.508l-8.497,-14.339l0.266,-14.869l-5.311,18.587l9.178,27l-6.456,23.632l-18.122,-33.373l-23.632,21.773l14.604,-32.66l0,-42.218l22.835,-18.852l-18.852,-5.045l27.88,-4.514l51.246,-0.797l31.597,24.435Z" style="fill:#fff;"/><path d="M47.562,0.957l51.32,-0.887l0.187,0.013l0.183,0.044l0.173,0.074l0.158,0.101l31.639,24.38l0.151,0.139l0.124,0.163l0.095,0.182l0.062,0.195l0.027,0.203l-0.007,0.205l-0.044,0.201l-0.077,0.19l-0.002,0.004l-0.106,0.17l-0.137,0.152l-0.161,0.127l-0.18,0.097l-0.195,0.065l-0.203,0.03l-0.204,-0.005l-0.201,-0.04l0.287,-0.983l-0.062,-0.018l-0.618,0.8l-2.018,-1.565l-15.668,-4.55l-0.004,0.023l-13.084,-1.261l0.001,0.001l-15.56,19.845l-0.031,0.033l-0.036,0.027l-0.04,0.021l-0.043,0.014l-0.045,0.006l-0.045,-0.002l-0.045,-0.01l-0.042,-0.017l-0.039,-0.024l-0.034,-0.031l-0.028,-0.036l-0.021,-0.04l-0.015,-0.044l-0.006,-0.046l0.001,-0.046l2.231,-17.809l-9.945,12.469l-0.039,0.041l-0.045,0.034l-0.05,0.026l-0.055,0.016l-0.056,0.007l-0.057,-0.004l-0.055,-0.013l-0.052,-0.022l-0.048,-0.031l-0.041,-0.039l-0.035,-0.046l-6.82,-11.078l-16.897,33.016l0,0l3.201,21.371l0.005,0.077l-0.008,0.077l-0.021,0.075l-0.034,0.07l-0.046,0.063l-0.055,0.054l-0.064,0.045l-0.071,0.032l-0.076,0.02l-0.077,0.007l-0.078,-0.007l-0.076,-0.019l-0.071,-0.033l-0.065,-0.044l-0.056,-0.055l-0.046,-0.064l-8.519,-14.325l-0.03,-0.059l-0.021,-0.063l-0.013,-0.066l-0.004,-0.066l-0.022,-0.001l0.194,-10.866l-4.166,14.579l0.001,0l9.168,26.824l0.023,0.085l0.009,0.087l-0.003,0.088l-0.017,0.086l0.038,0.011l-6.455,23.631l-0.037,0.101l-0.053,0.093l-0.068,0.083l-0.081,0.071l-0.092,0.055l-0.101,0.04l-0.105,0.021l-0.108,0.004l-0.106,-0.015l-0.103,-0.032l-0.096,-0.049l-0.086,-0.065l-0.074,-0.079l-0.06,-0.09l-17.744,-32.552l-22.939,21.202l-0.101,0.079l-0.114,0.061l-0.122,0.041l-0.128,0.019l-0.129,-0.003l-0.127,-0.025l-0.12,-0.046l-0.111,-0.066l-0.099,-0.084l-0.083,-0.099l-0.064,-0.112l-0.045,-0.122l-0.023,-0.127l-0.001,-0.13l0.02,-0.128l0.043,-0.123l-0.054,-0.024l14.532,-32.5l0,0l-0.073,-42.043l0.01,-0.13l0.028,-0.128l0.047,-0.123l0.064,-0.114l0.08,-0.103l0.094,-0.091l-0.03,-0.037l21.418,-17.683l-17.088,-4.546l-0.156,-0.056l-0.144,-0.081l-0.129,-0.105l-0.109,-0.125l-0.086,-0.142l-0.061,-0.154l-0.034,-0.163l-0.006,-0.166l0.022,-0.164l0.05,-0.159l0.075,-0.148l0.1,-0.133l0.121,-0.114l0.139,-0.092l0.152,-0.068l0.161,-0.041l27.946,-4.571Zm-1.834,46.228l0.076,0.041l0.068,0.053l0.058,0.063l0.046,0.072l0.034,0.079l0.019,0.084l0.006,0.085l0,0l-0.003,0.137l0.018,0.003l-0.019,0.068l-0.282,14.524l0,0l7.216,12.179l-2.837,-19.154l0.034,-0.005l-0.004,-0.064l0.005,-0.064l0.016,-0.063l0,0l0.025,-0.059l17.315,-33.693l0.031,-0.048l0.038,-0.043l0.044,-0.036l0.049,-0.029l0.054,-0.02l0.056,-0.011l0.057,-0.002l0.056,0.008l0.055,0.016l0.051,0.025l0.046,0.033l0.04,0.04l0.033,0.046l6.911,11.299l10.349,-12.897l0.036,-0.037l0.042,-0.031l0.046,-0.023l0.049,-0.014l0.051,-0.006l0.052,0.003l0.05,0.012l0.047,0.021l0.042,0.028l0.038,0.035l0.03,0.04l0.023,0.046l0.015,0.048l0.007,0.051l-0.003,0.051l-2.296,17.904l15.076,-19.165l0.032,0.025l0.025,-0.026l0.029,-0.022l0.033,-0.017l0.035,-0.012l0,0.001l0.036,-0.005l0.036,0l13.239,1.299l14.87,4.373l-28.504,-22.121l0,-0.001l-50.774,0.789l-0.007,-0.089l-23.304,3.734l14.43,3.884l0.15,0.055l0.138,0.078l0.123,0.101l0.105,0.12l0.083,0.135l0.059,0.148l0.033,0.155l0.007,0.159l-0.019,0.158l-0.046,0.151l-0.071,0.142l-0.094,0.129l-0.113,0.11l0,0l-22.541,18.547l-0.001,0l0,41.797l-0.073,0l-0.008,0.115l-0.025,0.112l0,0l-0.039,0.107l-13.151,29.281l20.955,-19.245l0.091,-0.071l0.103,-0.055l0.109,-0.037l0.115,-0.019l0.115,0l0.114,0.019l0.11,0.038l0.101,0.055l0.091,0.071l0.078,0.085l0.063,0.097l17.318,32.015l6.026,-21.921l0.001,0l-9.119,-26.829l0.046,-0.016l-0.02,-0.079l-0.008,-0.082l0.004,-0.082l0.001,0l0.016,-0.08l5.34,-18.579l0.031,-0.08l0.044,-0.075l0.056,-0.066l0.067,-0.055l0.074,-0.043l0.081,-0.03l0.085,-0.016l0.086,-0.002l0.085,0.013l0.082,0.027Z" style="fill:#671f00;"/></svg>