<?xml version="1.0" encoding="UTF-8" standalone="no"?><!DOCTYPE svg PUBLIC "-//W3C//DTD SVG 1.1//EN" "http://www.w3.org/Graphics/SVG/1.1/DTD/svg11.dtd"><svg width="137px" height="116px" version="1.1" xmlns="http://www.w3.org/2000/svg" xmlns:xlink="http://www.w3.org/1999/xlink" xml:space="preserve" xmlns:serif="http://www.serif.com/" style="fill-rule:evenodd;clip-rule:evenodd;stroke-linejoin:round;stroke-miterlimit:1.41421;"><path d="M80.658,43.91l17.843,33.987l-2.124,-27.19l13.383,12.32l-0.213,-15.506l8.497,6.797l3.186,15.719l4.886,-14.232l-0.212,-10.833l-6.373,-7.86l16.144,-1.274l-8.922,-4.249l-16.356,-0.424l10.621,-6.585l-4.673,-1.912l-10.409,0.849l1.7,-8.072l-5.736,0.638l-8.497,0.212l-14.657,-9.984l-14.232,0.638l9.772,6.797l-11.471,-0.212l-12.533,-7.435l-34.837,-4.886l16.782,8.072l7.859,6.798l-4.248,4.036l-19.968,-8.285l12.321,10.621l-2.974,4.674l-10.834,12.637l-5.523,13.49l13.17,-10.621l0,7.435l-16.568,23.154l-4.249,14.869l7.01,-12.958l6.585,-4.137l0.213,16.882l0.849,8.922l4.461,11.258l-4.248,5.736l13.595,-3.611l0,-5.311l-0.425,-9.559l-2.549,-10.621l12.108,-5.098l3.611,-11.046l3.398,14.232l4.886,3.187l-2.124,-5.948l3.823,-24.216l10.409,-5.098l3.399,11.896l3.186,-8.71l4.461,-9.558l6.797,-0.425Z" style="fill:#fff;"/><path d="M78.829,5.605l0.112,0.022l0.107,0.04l0.099,0.057l14.462,9.875l-0.001,0l8.245,-0.206l0.001,0.01l5.707,-0.629l0.116,-0.002l0.114,0.017l0.11,0.036l0.102,0.055l0.091,0.071l0.077,0.086l0.062,0.098l0.044,0.107l0.025,0.112l0.006,0.116l-0.014,0.114l-0.276,1.304l-1.246,5.895l9.519,-0.777l0,0.01l0.103,-0.001l0.101,0.016l0,0l0.097,0.032l4.672,1.915l0.098,0.05l0.087,0.066l0.076,0.08l0.061,0.091l0.044,0.1l0.028,0.106l0.009,0.109l-0.01,0.109l-0.028,0.106l-0.045,0.1l-0.061,0.091l-0.076,0.079l-0.088,0.065l-8.816,5.456l14.227,0.369l-0.001,0.016l0.086,0.008l0.084,0.02l0,0l0.08,0.032l8.918,4.256l0.086,0.05l0.077,0.064l0.065,0.075l0.052,0.085l0.038,0.092l0.022,0.097l0.006,0.099l-0.01,0.099l-0.026,0.096l-0.042,0.091l-0.055,0.082l-0.068,0.072l-0.08,0.06l-0.087,0.046l-0.094,0.032l-0.098,0.016l-2.559,0.199l-12.45,0.979l5.655,6.974l-0.003,0.002l0.055,0.081l0.042,0.089l0.026,0.095l-0.001,0l0.01,0.098l0.108,5.615l0.105,5.218l-0.003,0.07l-0.01,0.069l0,0l-0.019,0.066l-4.88,14.235l-0.042,0.095l-0.058,0.087l-0.073,0.076l-0.084,0.061l-0.094,0.047l-0.101,0.029l-0.104,0.011l-0.104,-0.006l-0.102,-0.025l-0.096,-0.042l-0.087,-0.058l-0.076,-0.072l-0.062,-0.085l-0.047,-0.093l-0.03,-0.101l0,0l-0.69,-3.397l-2.478,-12.092l-0.001,0.001l-1.701,-1.36l-0.004,0.002l-5.515,-4.38l0.108,6.377l0.138,7.709l-0.008,0.123l-0.027,0.119l-0.047,0.113l-0.066,0.104l-0.081,0.092l-0.096,0.078l-0.108,0.06l-0.116,0.042l-0.122,0.022l-0.124,0.002l-0.123,-0.019l-0.118,-0.04l-0.11,-0.058l-0.099,-0.075l-11.858,-10.825l0.791,9.575l1.291,15.491l0,0.167l-0.028,0.164l-0.056,0.158l-0.083,0.146l-0.106,0.13l-0.126,0.11l-0.144,0.088l-0.157,0.061l-0.165,0.034l-0.169,0.005l-0.168,-0.023l-0.161,-0.052l-0.15,-0.078l-0.135,-0.103l-0.116,-0.125l-0.092,-0.143l-17.571,-33.016l-0.096,-0.179l-5.318,0.304l-0.002,-0.003l-4.145,8.879l-0.051,-0.021l-3.209,8.649l-0.077,0.163l-0.103,0.148l-0.126,0.129l-0.146,0.106l-0.161,0.079l-0.171,0.052l-0.178,0.023l-0.179,-0.008l-0.175,-0.037l-0.167,-0.066l-0.153,-0.092l-0.135,-0.117l-0.113,-0.137l-0.09,-0.155l-0.062,-0.166l-3.025,-10.764l-8.902,4.307l-0.003,-0.002l-0.444,2.809l-0.014,-0.009l-3.37,20.705l-0.001,0.001l2.053,5.749l-0.022,0.008l0.034,0.129l0.011,0.132l-0.01,0.133l-0.032,0.128l-0.053,0.122l-0.072,0.111l-0.09,0.098l-0.104,0.081l-0.116,0.063l-0.125,0.043l-0.13,0.022l-0.132,-0.001l-0.13,-0.022l-0.124,-0.043l-0.115,-0.063l-4.886,-3.187l0.011,-0.016l-0.092,-0.072l-0.081,-0.085l-0.067,-0.095l0.001,0l-0.052,-0.105l-0.034,-0.111l-2.608,-11.117l-0.161,-0.684l-2.829,8.654l-0.034,-0.011l-0.045,0.104l-0.062,0.095l-0.077,0.083l0,0l-0.091,0.068l-0.1,0.052l-2.864,1.193l-8.764,3.669l-0.003,-0.002l1.353,5.636l-0.015,-0.003l1.085,4.532l0.424,9.631l-0.002,5.324l-0.009,0.098l-0.024,0.096l-0.039,0.091l-0.054,0.083l-0.066,0.073l0,0l-0.078,0.061l-0.086,0.048l-0.094,0.033l-7.379,1.957l-6.216,1.653l-0.097,0.017l-0.099,0.002l-0.098,-0.015l-0.094,-0.031l-0.088,-0.046l-0.079,-0.059l-0.068,-0.072l-0.056,-0.082l-0.042,-0.09l-0.026,-0.095l-0.01,-0.099l0.006,-0.099l0.022,-0.096l0.038,-0.092l0.052,-0.084l0,0l4.047,-5.467l-0.001,0l-4.336,-10.945l-0.004,0.002l-0.026,-0.082l-0.015,-0.085l0,0l-0.398,-4.167l-0.46,-4.779l-0.212,-15.781l-5.488,3.454l0.001,0l-6.863,12.685l0,0.001l0,0l-0.067,0.124l0.011,0.006l-0.062,0.094l-0.076,0.082l-0.09,0.067l-0.099,0.051l-0.107,0.034l-0.112,0.014l-0.112,-0.004l-0.109,-0.024l-0.104,-0.042l-0.096,-0.06l-0.083,-0.075l-0.07,-0.088l-0.054,-0.098l-0.036,-0.107l-0.017,-0.111l0.002,-0.113l0.022,-0.11l4.248,-14.869l-0.013,-0.004l0.041,-0.107c0,0 0.058,-0.098 0.058,-0.098l4.72,-6.61l11.695,-16.379l-0.001,0l0,-5.737l-12.018,9.71l-0.098,0.067l-0.108,0.05l-0.115,0.031l-0.119,0.013l-0.119,-0.008l-0.116,-0.026l-0.11,-0.046l-0.101,-0.063l-0.09,-0.079l-0.076,-0.092l-0.059,-0.104l-0.041,-0.112l-0.023,-0.117l-0.003,-0.12l0.016,-0.118l0.036,-0.114l5.523,-13.49l-0.013,-0.006l0.054,-0.105l0.069,-0.096l8.113,-9.485l2.673,-3.122l2.588,-4.075l0,0l-11.822,-10.191l-0.007,0.009l-0.09,-0.092l-0.074,-0.105l-0.055,-0.115l-0.035,-0.124l-0.015,-0.127l0.007,-0.128l0.028,-0.126l0.048,-0.119l0.067,-0.109l0.085,-0.097l0.099,-0.081l0.111,-0.064l0.121,-0.045l0.126,-0.024l0.129,-0.003l0.127,0.018l0.122,0.039l0,0l7.349,3.043l12.151,5.037l0,0l3.251,-3.088l-0.003,0l-7.124,-6.161l-0.002,0.003l-4.745,-2.283l0,0.001l-11.94,-5.747l-0.113,-0.067l-0.1,-0.084l-0.085,-0.1l-0.067,-0.112l-0.048,-0.122l-0.026,-0.128l-0.005,-0.131l0.016,-0.13l0.038,-0.125l0.058,-0.118l0.077,-0.105l0.094,-0.092l0.107,-0.075l0.118,-0.056l0.126,-0.036l0.13,-0.014l0.131,0.007l17.963,2.519l-0.001,0.006l16.872,2.38l0.099,0.02l0.095,0.034l0,0l0.09,0.046l12.355,7.343l0,0l3.459,0.064l-0.001,0.003l5.369,0.105l-7.757,-5.407l-0.093,-0.077l-0.08,-0.092l-0.062,-0.103l-0.045,-0.112l-0.026,-0.118l-0.006,-0.121l0.014,-0.12l0.034,-0.116l0.053,-0.108l0.069,-0.099l0.085,-0.086l0.098,-0.07l0.108,-0.053l0.115,-0.035l0.12,-0.015l14.232,-0.637l0.001,0.014l0.114,0.005Zm17.873,44.338l0.125,0.067l0.111,0.088l12.069,11.206l-0.057,-5.976l-0.081,-7.798l0.009,-0.117l0.03,-0.114l0.049,-0.107l0.066,-0.097l0.082,-0.083l0.095,-0.068l0.105,-0.051l0.113,-0.031l0.116,-0.012l0.116,0.008l0.112,0.029l0.106,0.047l0.096,0.065l7.015,5.651l1.461,1.173l0.079,0.077l0.065,0.089l0.048,0.098l0.031,0.106l2.433,12.137l-0.002,0.001l0.29,1.426l4.135,-12.045l0,0l-0.096,-4.992l-0.002,0l-0.108,-5.532l-0.001,0l-6.246,-7.699l-0.056,-0.082l-0.042,-0.091l-0.026,-0.097l-0.01,-0.099l0.007,-0.1l0.023,-0.097l0.04,-0.092l0.054,-0.084l0.067,-0.074l0.079,-0.062l0.088,-0.048l0.095,-0.032l0.099,-0.017l13.585,-1.077l0.279,-0.022l-6.742,-3.211l0,0.001l-16.226,-0.407l-0.107,-0.011l-0.104,-0.03l-0.097,-0.047l-0.088,-0.063l-0.076,-0.078l-0.062,-0.088l-0.046,-0.099l-0.029,-0.104l-0.01,-0.108l0.008,-0.108l0.026,-0.106l0.044,-0.099l0.06,-0.09l0.075,-0.079l0.087,-0.065l9.531,-5.92l-3.35,-1.371l0,0.001l-10.252,0.846l-0.112,0l-0.11,-0.019l-0.106,-0.037l-0.098,-0.055l-0.088,-0.07l-0.074,-0.085l-0.059,-0.095l-0.043,-0.104l-0.024,-0.11l-0.005,-0.112l0.013,-0.112l1.42,-6.768l0.082,-0.392l-4.84,0.542l-8.525,0.223l-0.108,-0.005l-0.105,-0.022l-0.1,-0.038l-0.094,-0.054l-0.011,0.017l-14.461,-9.85l0,0l-11.845,0.543l8.012,5.562l0.096,0.08l0.083,0.096l0.064,0.108l0.046,0.118l0.025,0.123l0.003,0.126l-0.018,0.125l-0.038,0.12l-0.059,0.112l-0.076,0.1l-0.093,0.086l-0.105,0.069l-0.116,0.05l-0.123,0.03l-0.126,0.009l-8.174,-0.143l-3.297,-0.059l-0.129,-0.014l-0.125,-0.035l-0.117,-0.056l-0.006,0.01l-12.401,-7.356l0,0l-16.938,-2.362l-12.747,-1.784l7.564,3.636l4.667,2.246l0.091,0.052l0.083,0.063l7.858,6.799l0.092,0.094l0.074,0.108l0.056,0.119l0.036,0.126l0.014,0.13l-0.008,0.131l-0.03,0.128l-0.05,0.121l-0.07,0.111l-0.087,0.098l-4.25,4.035l-0.1,0.081l-0.113,0.063l-0.121,0.044l-0.127,0.024l-0.129,0.002l-0.128,-0.019l-0.123,-0.04l-12.106,-5.026l0.002,-0.005l-3.413,-1.417l8.668,7.483l0.085,0.086l0.07,0.098l0.054,0.108l0.036,0.115l0.017,0.119l-0.001,0.121l-0.021,0.118l-0.039,0.114l-0.056,0.107l-3.006,4.717l-2.645,3.079l-0.011,-0.008l-8.148,9.505l0,0l-4.421,10.769l10.984,-8.842l0.102,-0.068l0.112,-0.049l0.118,-0.03l0.122,-0.008l0.121,0.012l0.118,0.033l0.11,0.053l0.099,0.071l0.086,0.087l0.069,0.1l0.051,0.111l0.031,0.118l0.01,0.121l-0.006,7.435l-0.009,0.108l-0.025,0.105l-0.041,0.1l-0.056,0.093l-11.622,16.203l-0.007,-0.003l-4.897,6.842l0,0l-2.581,9.005l4.17,-7.692l0.06,-0.091l0.075,-0.08l0.087,-0.066l0.003,0.005l6.585,-4.137l0.092,-0.048l0.098,-0.031l0.102,-0.016l0.103,0.001l0.101,0.018l0.097,0.034l0.09,0.049l0.081,0.064l0.07,0.075l0.057,0.086l0.041,0.094l0.026,0.1l0.01,0.102l0.197,16.857l0.435,4.619l-0.001,0l0.399,4.192l0,0l4.425,11.179l0.03,0.098l0.012,0.102l-0.005,0.102l-0.022,0.1l-0.038,0.095l-0.054,0.087l-0.001,-0.002l-3.225,4.353l3.976,-1.054l-0.002,-0.003l7.509,-1.995l0,0l-0.003,-4.832l-0.426,-9.487l-1.239,-5.154l-1.31,-5.407l-0.016,-0.096l0,-0.098l0.015,-0.097l0.029,-0.093l0.044,-0.088l0.057,-0.08l0.069,-0.07l0.078,-0.058l0.088,-0.046l8.26,-3.499l-0.009,-0.011l3.565,-1.501l-0.002,-0.002l3.483,-10.768l0.047,-0.112l0.065,-0.102l0.082,-0.089l0.096,-0.074l0.107,-0.056l0.116,-0.038l0.121,-0.016l0.121,0.004l0.12,0.025l0.113,0.045l0.104,0.064l0.091,0.081l0.077,0.096l0.058,0.108l0.04,0.116l0.718,2.964l0.045,-0.015l2.621,10.971l0.002,-0.001l2.648,1.714l-1.343,-3.719l-0.036,-0.133l-0.014,-0.137l0.009,-0.137l3.35,-21.847l0.364,-2.386l0.034,-0.146l0.057,-0.139l0.078,-0.129l0.098,-0.114l0.115,-0.097l0.13,-0.078l-0.024,-0.048l10.408,-5.098l0.148,-0.059l0.155,-0.036l0.158,-0.01l0.159,0.015l0.154,0.04l0.146,0.064l0.134,0.086l0.119,0.107l0.101,0.124l0.08,0.139l0.057,0.15l2.53,8.711l2.048,-5.678l4.434,-9.625l0.087,-0.157l0.11,-0.141l0.131,-0.124l0.148,-0.102l0.162,-0.079l0.173,-0.053l0.178,-0.026l6.796,-0.457l0.199,0.004l0.195,0.036l0.187,0.068l0.174,0.098l0.155,0.124l0.133,0.149l0.107,0.168l0.453,0.876l14.992,28.951l-0.78,-10.704l-0.861,-11.696l0.002,-0.144l0.026,-0.141l0.05,-0.135l0.073,-0.124l0.092,-0.109l0.109,-0.092l0.123,-0.073l0.133,-0.05l0.14,-0.026l0.143,-0.003l0.14,0.022l0.134,0.045Z" style="fill:#671f00;"/></svg>