<?xml version="1.0" encoding="UTF-8" standalone="no"?><!DOCTYPE svg PUBLIC "-//W3C//DTD SVG 1.1//EN" "http://www.w3.org/Graphics/SVG/1.1/DTD/svg11.dtd"><svg width="217px" height="138px" version="1.1" xmlns="http://www.w3.org/2000/svg" xmlns:xlink="http://www.w3.org/1999/xlink" xml:space="preserve" xmlns:serif="http://www.serif.com/" style="fill-rule:evenodd;clip-rule:evenodd;stroke-linecap:round;stroke-linejoin:round;stroke-miterlimit:1.5;"><path d="M104.14,2.165c1.445,-0.037 2.897,-0.055 4.356,-0.055c58.716,0 106.385,29.904 106.385,66.737c0,36.834 -47.669,66.738 -106.385,66.738c-1.459,0 -2.911,-0.019 -4.356,-0.056c17.523,-0.997 31.445,-15.542 31.445,-33.313l0,-66.737c0,-17.771 -13.922,-32.316 -31.445,-33.314Z" style="fill:#ffd600;fill-opacity:0;stroke:#671f00;stroke-width:4.22px;"/><path d="M135.585,35.479c0,-18.417 -14.952,-33.369 -33.369,-33.369l-66.737,0c-18.417,0 -33.369,14.952 -33.369,33.369l0,66.737c0,18.417 14.952,33.369 33.369,33.369l66.737,0c18.417,0 33.369,-14.952 33.369,-33.369l0,-66.737Z" style="fill:#ffd600;fill-opacity:0;stroke:#671f00;stroke-width:4.22px;"/></svg>