<?xml version="1.0" encoding="UTF-8" standalone="no"?><!DOCTYPE svg PUBLIC "-//W3C//DTD SVG 1.1//EN" "http://www.w3.org/Graphics/SVG/1.1/DTD/svg11.dtd"><svg width="217px" height="138px" version="1.1" xmlns="http://www.w3.org/2000/svg" xmlns:xlink="http://www.w3.org/1999/xlink" xml:space="preserve" xmlns:serif="http://www.serif.com/" style="fill-rule:evenodd;clip-rule:evenodd;stroke-linecap:round;stroke-linejoin:round;stroke-miterlimit:1.5;"><path d="M112.851,2.165c-1.445,-0.037 -2.897,-0.055 -4.355,-0.055c-58.716,0 -106.386,29.904 -106.386,66.737c0,36.834 47.67,66.738 106.386,66.738c1.458,0 2.91,-0.019 4.355,-0.056c-17.522,-0.997 -31.444,-15.542 -31.444,-33.313l0,-66.737c0,-17.771 13.922,-32.316 31.444,-33.314Z" style="fill:#fff;fill-opacity:0;stroke:#671f00;stroke-width:4.22px;"/><path d="M81.407,35.479c0,-18.417 14.952,-33.369 33.368,-33.369l66.738,0c18.416,0 33.368,14.952 33.368,33.369l0,66.737c0,18.417 -14.952,33.369 -33.368,33.369l-66.738,0c-18.416,0 -33.368,-14.952 -33.368,-33.369l0,-66.737Z" style="fill:#ffd600;fill-opacity:0;stroke:#671f00;stroke-width:4.22px;"/></svg>