<?xml version="1.0" encoding="UTF-8" standalone="no"?><!DOCTYPE svg PUBLIC "-//W3C//DTD SVG 1.1//EN" "http://www.w3.org/Graphics/SVG/1.1/DTD/svg11.dtd"><svg width="173px" height="173px" version="1.1" xmlns="http://www.w3.org/2000/svg" xmlns:xlink="http://www.w3.org/1999/xlink" xml:space="preserve" xmlns:serif="http://www.serif.com/" style="fill-rule:evenodd;clip-rule:evenodd;stroke-linecap:round;stroke-linejoin:round;stroke-miterlimit:1.5;"><circle cx="86.119" cy="86.119" r="84.193" style="fill:#fff;"/><path d="M88.584,1.192l0.273,0.001l0.272,0.002l0.273,0.003l0.272,0.004l0.273,0.004l0.272,0.005l0.272,0.007l0.272,0.007l0.271,0.007l0.272,0.009l0.271,0.01l0.271,0.01l0.271,0.012l0.27,0.012l0.271,0.013l0.27,0.013l0.27,0.015l0.27,0.016l0.27,0.016l0.27,0.017l0.269,0.018l0.269,0.019l0.269,0.02l0.269,0.021l0.268,0.021l0.269,0.022l0.268,0.024l0.268,0.023l0.268,0.025l0.267,0.026l0.267,0.026l0.268,0.028l0.267,0.028l0.266,0.029l0.267,0.029l0.266,0.031l0.266,0.031l0.266,0.033l0.265,0.033l0.266,0.034l0.265,0.034l0.265,0.036l0.265,0.036l0.264,0.037l0.264,0.038l0.264,0.039l0.264,0.04l0.264,0.04l0.263,0.041l0.263,0.042l0.263,0.043l0.263,0.044l0.262,0.044l0.262,0.046l0.262,0.046l0.262,0.047l0.261,0.047l0.261,0.049l0.261,0.049l0.261,0.05l0.26,0.051l0.261,0.052l0.259,0.052l0.26,0.053l0.26,0.054l0.259,0.055l0.259,0.056l0.258,0.056l0.259,0.058l0.258,0.058l0.257,0.058l0.258,0.06l0.257,0.06l0.09,0.021l0.167,0.042l0.256,0.063l0.256,0.065l0.256,0.065l0.255,0.066l0.255,0.067l0.255,0.068l0.255,0.068l0.254,0.07l0.254,0.07l0.253,0.07l0.254,0.072l0.253,0.072l0.253,0.073l0.252,0.074l0.252,0.074l0.252,0.076l0.251,0.076l0.252,0.077l0.251,0.077l0.25,0.079l0.25,0.079l0.25,0.08l0.25,0.08l0.249,0.082l0.249,0.082l0.249,0.082l0.249,0.084l0.248,0.084l0.247,0.085l0.248,0.086l0.247,0.087l0.247,0.087l0.246,0.088l0.246,0.089l0.246,0.089l0.246,0.091l0.245,0.091l0.245,0.091l0.244,0.093l0.244,0.093l0.244,0.094l0.243,0.095l0.243,0.095l0.243,0.096l0.243,0.097l0.242,0.097l0.241,0.099l0.242,0.099l0.241,0.099l0.24,0.101l0.241,0.101l0.24,0.102l0.239,0.102l0.24,0.104l0.239,0.104l0.238,0.104l0.238,0.106l0.238,0.106l0.238,0.107l0.237,0.107l0.236,0.108l0.237,0.109l0.236,0.11l0.235,0.11l0.235,0.111l0.235,0.112l0.235,0.112l0.234,0.114l0.234,0.113l0.233,0.115l0.233,0.115l0.233,0.116l0.231,0.118l0.231,0.119l0.23,0.12l0.23,0.12l0.23,0.121l0.23,0.122l0.228,0.122l0.229,0.123l0.228,0.124l0.228,0.124l0.227,0.125l0.227,0.126l0.227,0.126l0.226,0.127l0.225,0.128l0.226,0.129l0.224,0.129l0.225,0.129l0.224,0.131l0.223,0.131l0.224,0.131l0.222,0.133l0.223,0.133l0.222,0.133l0.221,0.135l0.221,0.135l0.221,0.135l0.22,0.137l0.22,0.136l0.219,0.138l0.219,0.138l0.218,0.139l0.218,0.14l0.218,0.14l0.217,0.141l0.217,0.141l0.216,0.142l0.128,0.085l0.087,0.058l0.215,0.145l0.214,0.145l0.214,0.145l0.213,0.147l0.213,0.147l0.212,0.147l0.212,0.149l0.211,0.149l0.211,0.149l0.211,0.15l0.21,0.151l0.209,0.151l0.209,0.152l0.209,0.153l0.208,0.153l0.207,0.154l0.208,0.154l0.172,0.13l0.034,0.025l0.206,0.157l0.205,0.157l0.204,0.158l0.204,0.158l0.204,0.159l0.203,0.16l0.202,0.16l0.202,0.161l0.202,0.161l0.201,0.162l0.201,0.162l0.2,0.163l0.199,0.164l0.199,0.164l0.199,0.165l0.198,0.166l0.198,0.166l0.071,0.06l0.125,0.107l0.196,0.168l0.196,0.168l0.195,0.169l0.194,0.17l0.194,0.17l0.194,0.171l0.192,0.171l0.193,0.172l0.192,0.173l0.191,0.173l0.191,0.173l0.19,0.174l0.19,0.175l0.189,0.175l0.189,0.176l0.188,0.176l0.188,0.177l0.187,0.178l0.186,0.178l0.187,0.179l0.185,0.179l0.185,0.179l0.184,0.181l0.184,0.18l0.184,0.182l0.183,0.182l0.182,0.182l0.182,0.183l0.181,0.184l0.18,0.184l0.18,0.184l0.18,0.185l0.179,0.186l0.178,0.186l0.178,0.187l0.178,0.187l0.176,0.188l0.177,0.188l0.175,0.189l0.175,0.189l0.175,0.19l0.174,0.191l0.173,0.19l0.173,0.192l0.172,0.192l0.172,0.192l0.171,0.193l0.171,0.194l0.17,0.194l0.169,0.194l0.169,0.195l0.168,0.196l0.168,0.196l0.167,0.197l0.167,0.197l0.165,0.197l0.166,0.198l0.164,0.199l0.164,0.199l0.164,0.2l0.162,0.2l0.163,0.201l0.161,0.201l0.161,0.202l0.161,0.202l0.159,0.203l0.16,0.203l0.158,0.204l0.158,0.204l0.158,0.205l0.157,0.205l0.156,0.206l0.155,0.206l0.155,0.206l0.155,0.207l0.154,0.208l0.153,0.208l0.152,0.208l0.152,0.209l0.152,0.21l0.15,0.21l0.151,0.21l0.149,0.211l0.149,0.211l0.148,0.212l0.148,0.212l0.147,0.213l0.146,0.213l0.146,0.213l0.145,0.214l0.145,0.215l0.143,0.215l0.144,0.215l0.142,0.216l0.142,0.217l0.142,0.216l0.14,0.218l0.14,0.217l0.14,0.218l0.139,0.219l0.138,0.219l0.137,0.219l0.137,0.22l0.136,0.221l0.136,0.22l0.135,0.222l0.134,0.221l0.134,0.222l0.133,0.223l0.132,0.223l0.132,0.223l0.131,0.224l0.13,0.224l0.13,0.225l0.129,0.225l0.128,0.225l0.128,0.226l0.127,0.226l0.126,0.227l0.126,0.227l0.125,0.228l0.124,0.228l0.124,0.228l0.123,0.229l0.122,0.229l0.122,0.23l0.121,0.23l0.12,0.231l0.119,0.231l0.119,0.231l0.118,0.232l0.117,0.232l0.117,0.233l0.116,0.233l0.116,0.233l0.114,0.234l0.114,0.234l0.113,0.235l0.113,0.235l0.112,0.235l0.111,0.236l0.111,0.236l0.109,0.236l0.109,0.237l0.109,0.237l0.108,0.238l0.107,0.238l0.106,0.239l0.105,0.238l0.105,0.239l0.104,0.24l0.104,0.24l0.103,0.24l0.102,0.241l0.101,0.241l0.101,0.241l0.1,0.242l0.099,0.242l0.098,0.243l0.098,0.242l0.097,0.244l0.096,0.243l0.096,0.244l0.095,0.244l0.094,0.245l0.093,0.245l0.093,0.245l0.092,0.246l0.091,0.246l0.09,0.247l0.09,0.246l0.089,0.247l0.088,0.248l0.088,0.248l0.087,0.248l0.086,0.248l0.085,0.249l0.085,0.249l0.084,0.25l0.083,0.249l0.082,0.251l0.082,0.25l0.08,0.251l0.081,0.251l0.079,0.252l0.078,0.251l0.078,0.252l0.077,0.253l0.077,0.253l0.075,0.253l0.075,0.253l0.074,0.254l0.073,0.254l0.073,0.254l0.072,0.255l0.071,0.255l0.07,0.255l0.069,0.256l0.069,0.256l0.068,0.256l0.067,0.257l0.066,0.257l0.066,0.257l0.065,0.257l0.064,0.258l0.063,0.258l0.062,0.258l0.062,0.259l0.061,0.259l0.06,0.259l0.059,0.26l0.059,0.26l0.058,0.26l0.057,0.26l0.056,0.261l0.055,0.261l0.055,0.261l0.053,0.262l0.053,0.262l0.053,0.262l0.051,0.262l0.051,0.263l0.049,0.263l0.049,0.263l0.049,0.264l0.047,0.263l0.047,0.265l0.045,0.264l0.045,0.264l0.044,0.265l0.044,0.265l0.042,0.266l0.042,0.266l0.041,0.265l0.04,0.267l0.039,0.266l0.039,0.267l0.037,0.267l0.037,0.267l0.036,0.267l0.035,0.268l0.034,0.268l0.034,0.268l0.033,0.269l0.031,0.269l0.031,0.269l0.031,0.269l0.029,0.269l0.028,0.27l0.028,0.27l0.027,0.27l0.026,0.27l0.025,0.271l0.024,0.271l0.024,0.271l0.022,0.271l0.022,0.272l0.021,0.272l0.02,0.272l0.019,0.272l0.019,0.273l0.017,0.272l0.017,0.273l0.016,0.273l0.015,0.274l0.014,0.273l0.013,0.274l0.012,0.274l0.012,0.274l0.011,0.275l0.009,0.275l0.009,0.274l0.008,0.275l0.008,0.276l0.006,0.275l0.005,0.276l0.005,0.276l0.004,0.276l0.003,0.276l0.002,0.277l0.001,0.276l0,0.277l-0.001,0.216l0,0.061l-0.002,0.278l-0.002,0.276l-0.004,0.277l-0.004,0.277l-0.005,0.276l-0.007,0.276l-0.007,0.276l-0.007,0.275l-0.009,0.275l-0.01,0.276l-0.01,0.275l-0.012,0.274l-0.012,0.275l-0.013,0.274l-0.014,0.274l-0.015,0.274l-0.015,0.273l-0.017,0.274l-0.017,0.273l-0.018,0.273l-0.019,0.272l-0.02,0.273l-0.021,0.272l-0.021,0.272l-0.023,0.271l-0.023,0.272l-0.024,0.271l-0.025,0.271l-0.026,0.271l-0.027,0.27l-0.027,0.27l-0.029,0.27l-0.029,0.27l-0.03,0.269l-0.031,0.269l-0.031,0.269l-0.033,0.269l-0.033,0.268l-0.034,0.269l-0.035,0.267l-0.036,0.268l-0.036,0.267l-0.038,0.267l-0.038,0.267l-0.039,0.267l-0.04,0.266l-0.041,0.266l-0.041,0.266l-0.043,0.265l-0.043,0.266l-0.044,0.264l-0.045,0.265l-0.045,0.264l-0.047,0.265l-0.047,0.263l-0.048,0.264l-0.049,0.263l-0.049,0.263l-0.051,0.263l-0.051,0.262l-0.052,0.262l-0.053,0.262l-0.053,0.261l-0.055,0.262l-0.055,0.261l-0.056,0.26l-0.056,0.261l-0.058,0.26l-0.058,0.259l-0.059,0.26l-0.06,0.259l-0.061,0.259l-0.062,0.258l-0.062,0.258l-0.063,0.258l-0.064,0.258l-0.064,0.257l-0.066,0.257l-0.066,0.257l-0.067,0.256l-0.067,0.256l-0.069,0.256l-0.069,0.255l-0.07,0.255l-0.071,0.255l-0.071,0.254l-0.072,0.254l-0.073,0.254l-0.074,0.253l-0.075,0.254l-0.075,0.252l-0.076,0.253l-0.077,0.252l-0.077,0.252l-0.079,0.251l-0.079,0.251l-0.08,0.251l-0.08,0.25l-0.081,0.25l-0.083,0.25l-0.082,0.25l-0.084,0.249l-0.084,0.248l-0.085,0.249l-0.086,0.248l-0.086,0.247l-0.088,0.248l-0.088,0.247l-0.088,0.246l-0.09,0.247l-0.09,0.246l-0.091,0.245l-0.091,0.245l-0.093,0.245l-0.093,0.245l-0.094,0.244l-0.094,0.243l-0.095,0.244l-0.096,0.243l-0.097,0.242l-0.097,0.243l-0.098,0.242l-0.099,0.241l-0.1,0.241l-0.1,0.241l-0.101,0.241l-0.102,0.24l-0.102,0.239l-0.103,0.24l-0.104,0.238l-0.104,0.239l-0.105,0.238l-0.106,0.238l-0.107,0.237l-0.107,0.237l-0.108,0.237l-0.109,0.236l-0.109,0.236l-0.11,0.235l-0.111,0.235l-0.111,0.235l-0.112,0.234l-0.113,0.234l-0.114,0.233l-0.114,0.233l-0.115,0.233l-0.115,0.232l-0.117,0.232l-0.116,0.231l-0.118,0.231l-0.118,0.231l-0.119,0.23l-0.12,0.23l-0.12,0.229l-0.121,0.229l-0.122,0.229l-0.122,0.228l-0.123,0.228l-0.123,0.227l-0.125,0.227l-0.125,0.226l-0.125,0.226l-0.127,0.226l-0.126,0.225l-0.128,0.225l-0.128,0.224l-0.129,0.224l-0.13,0.224l-0.13,0.223l-0.131,0.222l-0.131,0.222l-0.132,0.222l-0.133,0.221l-0.134,0.221l-0.134,0.221l-0.134,0.22l-0.136,0.219l-0.136,0.219l-0.136,0.219l-0.138,0.218l-0.137,0.218l-0.139,0.217l-0.139,0.217l-0.14,0.217l-0.14,0.216l-0.142,0.215l-0.141,0.215l-0.143,0.215l-0.142,0.214l-0.144,0.214l-0.144,0.213l-0.145,0.212l-0.145,0.213l-0.147,0.212l-0.146,0.211l-0.147,0.211l-0.148,0.21l-0.149,0.21l-0.149,0.21l-0.15,0.209l-0.15,0.208l-0.151,0.208l-0.152,0.208l-0.152,0.207l-0.153,0.207l-0.153,0.206l-0.154,0.206l-0.154,0.205l-0.156,0.205l-0.155,0.204l-0.157,0.204l-0.157,0.203l-0.157,0.203l-0.158,0.202l-0.159,0.202l-0.159,0.201l-0.16,0.201l-0.161,0.2l-0.161,0.2l-0.161,0.199l-0.163,0.199l-0.163,0.199l-0.163,0.197l-0.164,0.198l-0.164,0.197l-0.166,0.196l-0.165,0.196l-0.167,0.195l-0.166,0.195l-0.168,0.194l-0.168,0.194l-0.168,0.193l-0.17,0.193l-0.169,0.192l-0.17,0.192l-0.171,0.191l-0.172,0.191l-0.172,0.19l-0.172,0.19l-0.173,0.189l-0.174,0.188l-0.174,0.188l-0.175,0.188l-0.175,0.187l-0.176,0.186l-0.176,0.186l-0.177,0.186l-0.177,0.185l-0.178,0.184l-0.179,0.184l-0.179,0.183l-0.18,0.183l-0.18,0.182l-0.181,0.182l-0.181,0.181l-0.182,0.18l-0.182,0.18l-0.183,0.18l-0.183,0.179l-0.184,0.178l-0.184,0.178l-0.185,0.177l-0.186,0.177l-0.186,0.176l-0.186,0.176l-0.188,0.175l-0.187,0.175l-0.188,0.174l-0.189,0.173l-0.189,0.173l-0.19,0.172l-0.19,0.172l-0.19,0.171l-0.192,0.17l-0.191,0.17l-0.193,0.17l-0.192,0.169l-0.194,0.168l-0.193,0.168l-0.195,0.167l-0.194,0.167l-0.195,0.166l-0.196,0.165l-0.196,0.165l-0.197,0.164l-0.197,0.164l-0.198,0.163l-0.198,0.162l-0.199,0.162l-0.199,0.162l-0.2,0.16l-0.2,0.161l-0.201,0.159l-0.201,0.159l-0.202,0.158l-0.202,0.158l-0.202,0.157l-0.203,0.157l-0.204,0.156l-0.204,0.155l-0.204,0.155l-0.205,0.154l-0.206,0.154l-0.206,0.153l-0.206,0.152l-0.207,0.152l-0.207,0.151l-0.208,0.151l-0.208,0.15l-0.209,0.149l-0.209,0.149l-0.21,0.148l-0.21,0.147l-0.211,0.147l-0.211,0.147l-0.211,0.145l-0.212,0.145l-0.213,0.145l-0.212,0.143l-0.214,0.143l-0.213,0.143l-0.215,0.142l-0.214,0.141l-0.215,0.141l-0.216,0.14l-0.216,0.139l-0.216,0.139l-0.217,0.138l-0.217,0.137l-0.218,0.137l-0.218,0.136l-0.219,0.136l-0.219,0.135l-0.219,0.134l-0.22,0.133l-0.221,0.133l-0.22,0.133l-0.222,0.131l-0.221,0.131l-0.222,0.131l-0.223,0.129l-0.223,0.129l-0.223,0.129l-0.224,0.127l-0.224,0.127l-0.224,0.127l-0.225,0.126l-0.226,0.125l-0.225,0.124l-0.227,0.124l-0.226,0.123l-0.227,0.122l-0.228,0.122l-0.227,0.121l-0.229,0.121l-0.228,0.119l-0.229,0.119l-0.23,0.119l-0.23,0.117l-0.23,0.118l-0.23,0.116l-0.231,0.116l-0.232,0.115l-0.232,0.114l-0.232,0.114l-0.232,0.112l-0.233,0.113l-0.234,0.111l-0.233,0.111l-0.235,0.11l-0.234,0.11l-0.235,0.109l-0.235,0.108l-0.236,0.107l-0.236,0.107l-0.236,0.106l-0.237,0.105l-0.237,0.105l-0.238,0.104l-0.238,0.103l-0.238,0.103l-0.239,0.101l-0.239,0.101l-0.239,0.101l-0.24,0.1l-0.24,0.099l-0.24,0.098l-0.21,0.085l-0.031,0.012l-0.241,0.097l-0.242,0.096l-0.242,0.096l-0.242,0.094l-0.243,0.094l-0.243,0.093l-0.243,0.093l-0.244,0.092l-0.244,0.091l-0.244,0.09l-0.245,0.09l-0.245,0.088l-0.245,0.089l-0.246,0.087l-0.246,0.087l-0.246,0.086l-0.247,0.085l-0.247,0.084l-0.247,0.084l-0.248,0.083l-0.248,0.082l-0.249,0.082l-0.248,0.08l-0.249,0.08l-0.25,0.08l-0.249,0.078l-0.251,0.078l-0.25,0.077l-0.251,0.076l-0.251,0.076l-0.251,0.074l-0.252,0.074l-0.251,0.074l-0.253,0.072l-0.252,0.072l-0.253,0.071l-0.253,0.07l-0.254,0.07l-0.254,0.068l-0.254,0.068l-0.254,0.067l-0.255,0.067l-0.255,0.065l-0.255,0.065l-0.256,0.064l-0.256,0.064l-0.256,0.062l-0.257,0.062l-0.257,0.061l-0.257,0.06l-0.257,0.059l-0.258,0.059l-0.258,0.058l-0.258,0.057l-0.259,0.056l-0.258,0.056l-0.259,0.054l-0.26,0.054l-0.26,0.054l-0.26,0.052l-0.26,0.051l-0.26,0.051l-0.261,0.05l-0.261,0.049l-0.261,0.049l-0.262,0.047l-0.262,0.047l-0.262,0.046l-0.263,0.045l-0.262,0.045l-0.263,0.043l-0.263,0.043l-0.264,0.042l-0.264,0.041l-0.264,0.04l-0.264,0.04l-0.264,0.039l-0.265,0.037l-0.265,0.038l-0.265,0.036l-0.266,0.035l-0.266,0.035l-0.266,0.034l-0.266,0.033l-0.266,0.032l-0.267,0.031l-0.267,0.031l-0.267,0.029l-0.268,0.029l-0.268,0.028l-0.268,0.027l-0.268,0.027l-0.268,0.025l-0.269,0.025l-0.269,0.024l-0.269,0.023l-0.269,0.022l-0.27,0.021l-0.27,0.021l-0.27,0.02l-0.27,0.018l-0.27,0.018l-0.271,0.018l-0.271,0.016l-0.271,0.015l-0.272,0.015l-0.271,0.014l-0.272,0.012l-0.272,0.013l-0.272,0.011l-0.273,0.01l-0.272,0.009l-0.273,0.009l-0.273,0.008l-0.273,0.007l-0.274,0.006l-0.273,0.005l-0.274,0.004l-0.274,0.004l-0.275,0.002l-0.274,0.002l-0.275,0.001l-0.275,0l-0.275,-0.001l-0.275,-0.002l-0.274,-0.003l-0.275,-0.003l-0.274,-0.005l-0.275,-0.005l-0.274,-0.006l-0.273,-0.007l-0.274,-0.008l-0.273,-0.009l-0.273,-0.009l-0.273,-0.011l-0.273,-0.011l-0.272,-0.012l-0.272,-0.013l-0.272,-0.014l-0.272,-0.015l-0.272,-0.015l-0.271,-0.017l-0.271,-0.017l-0.271,-0.018l-0.27,-0.019l-0.271,-0.02l-0.27,-0.02l-0.27,-0.022l-0.269,-0.022l-0.27,-0.023l-0.269,-0.024l-0.269,-0.025l-0.268,-0.026l-0.269,-0.026l-0.268,-0.027l-0.268,-0.029l-0.267,-0.029l-0.268,-0.029l-0.267,-0.031l-0.267,-0.031l-0.266,-0.033l-0.267,-0.033l-0.266,-0.034l-0.266,-0.035l-0.265,-0.035l-0.266,-0.036l-0.265,-0.038l-0.264,-0.038l-0.265,-0.038l-0.264,-0.04l-0.264,-0.041l-0.264,-0.041l-0.263,-0.042l-0.263,-0.043l-0.263,-0.043l-0.263,-0.045l-0.262,-0.045l-0.262,-0.046l-0.262,-0.047l-0.262,-0.048l-0.261,-0.048l-0.261,-0.049l-0.261,-0.051l-0.26,-0.05l-0.26,-0.052l-0.26,-0.052l-0.259,-0.054l-0.259,-0.054l-0.259,-0.054l-0.259,-0.056l-0.258,-0.056l-0.258,-0.058l-0.258,-0.057l-0.257,-0.059l-0.258,-0.06l-0.256,-0.06l-0.257,-0.061l-0.256,-0.062l-0.256,-0.062l-0.256,-0.064l-0.255,-0.064l-0.255,-0.065l-0.255,-0.065l-0.254,-0.067l-0.254,-0.067l-0.254,-0.068l-0.253,-0.069l-0.253,-0.069l-0.253,-0.07l-0.252,-0.071l-0.253,-0.072l-0.251,-0.073l-0.252,-0.073l-0.251,-0.074l-0.251,-0.075l-0.25,-0.075l-0.25,-0.076l-0.25,-0.077l-0.25,-0.078l-0.249,-0.079l-0.249,-0.079l-0.248,-0.08l-0.249,-0.081l-0.247,-0.081l-0.248,-0.082l-0.247,-0.083l-0.247,-0.084l-0.246,-0.084l-0.246,-0.085l-0.246,-0.086l-0.245,-0.087l-0.246,-0.087l-0.244,-0.088l-0.245,-0.089l-0.244,-0.09l-0.243,-0.09l-0.244,-0.091l-0.243,-0.091l-0.242,-0.093l-0.242,-0.093l-0.242,-0.094l-0.242,-0.094l-0.241,-0.095l-0.241,-0.096l-0.24,-0.097l-0.24,-0.097l-0.24,-0.099l-0.239,-0.098l-0.239,-0.1l-0.239,-0.1l-0.238,-0.101l-0.238,-0.102l-0.237,-0.102l-0.237,-0.103l-0.237,-0.104l-0.236,-0.104l-0.236,-0.105l-0.235,-0.106l-0.236,-0.106l-0.234,-0.108l-0.235,-0.107l-0.234,-0.109l-0.233,-0.109l-0.233,-0.11l-0.233,-0.111l-0.233,-0.111l-0.232,-0.112l-0.231,-0.113l-0.232,-0.113l-0.23,-0.114l-0.231,-0.115l-0.23,-0.115l-0.23,-0.116l-0.229,-0.117l-0.229,-0.117l-0.228,-0.118l-0.228,-0.119l-0.228,-0.119l-0.227,-0.12l-0.227,-0.121l-0.226,-0.122l-0.226,-0.122l-0.225,-0.122l-0.226,-0.124l-0.224,-0.124l-0.225,-0.124l-0.223,-0.126l-0.224,-0.126l-0.223,-0.126l-0.222,-0.128l-0.223,-0.128l-0.221,-0.128l-0.222,-0.129l-0.221,-0.13l-0.22,-0.131l-0.22,-0.131l-0.22,-0.132l-0.219,-0.132l-0.219,-0.133l-0.218,-0.134l-0.218,-0.134l-0.217,-0.135l-0.217,-0.136l-0.217,-0.136l-0.216,-0.137l-0.215,-0.138l-0.216,-0.138l-0.214,-0.138l-0.215,-0.14l-0.213,-0.14l-0.214,-0.141l-0.213,-0.141l-0.212,-0.142l-0.212,-0.142l-0.212,-0.143l-0.211,-0.144l-0.211,-0.144l-0.21,-0.145l-0.21,-0.146l-0.209,-0.146l-0.209,-0.147l-0.208,-0.147l-0.208,-0.148l-0.207,-0.149l-0.207,-0.149l-0.207,-0.15l-0.206,-0.151l-0.205,-0.151l-0.205,-0.151l-0.205,-0.152l-0.204,-0.153l-0.204,-0.154l-0.203,-0.154l-0.202,-0.154l-0.203,-0.155l-0.201,-0.156l-0.202,-0.157l-0.2,-0.157l-0.2,-0.157l-0.2,-0.158l-0.2,-0.159l-0.198,-0.159l-0.199,-0.16l-0.197,-0.161l-0.198,-0.161l-0.196,-0.161l-0.197,-0.162l-0.196,-0.163l-0.195,-0.164l-0.195,-0.163l-0.194,-0.165l-0.194,-0.165l-0.193,-0.166l-0.193,-0.166l-0.192,-0.167l-0.192,-0.167l-0.191,-0.168l-0.191,-0.168l-0.19,-0.169l-0.19,-0.17l-0.189,-0.17l-0.189,-0.17l-0.188,-0.172l-0.188,-0.171l-0.187,-0.173l-0.186,-0.173l-0.186,-0.173l-0.186,-0.174l-0.185,-0.174l-0.185,-0.175l-0.184,-0.176l-0.183,-0.176l-0.183,-0.177l-0.182,-0.177l-0.182,-0.178l-0.182,-0.178l-0.18,-0.179l-0.181,-0.179l-0.179,-0.18l-0.179,-0.181l-0.179,-0.181l-0.178,-0.181l-0.178,-0.182l-0.177,-0.183l-0.176,-0.183l-0.176,-0.183l-0.176,-0.184l-0.174,-0.185l-0.175,-0.185l-0.173,-0.186l-0.117,-0.125l-0.057,-0.061l-0.172,-0.187l-0.172,-0.187l-0.172,-0.187l-0.171,-0.188l-0.171,-0.189l-0.169,-0.189l-0.17,-0.19l-0.169,-0.19l-0.168,-0.191l-0.168,-0.191l-0.167,-0.192l-0.166,-0.192l-0.166,-0.192l-0.166,-0.194l-0.164,-0.193l-0.165,-0.194l-0.163,-0.195l-0.163,-0.195l-0.163,-0.196l-0.162,-0.196l-0.161,-0.197l-0.161,-0.197l-0.16,-0.198l-0.16,-0.198l-0.159,-0.198l-0.158,-0.199l-0.158,-0.2l-0.157,-0.2l-0.157,-0.2l-0.156,-0.201l-0.156,-0.202l-0.155,-0.202l-0.154,-0.202l-0.154,-0.203l-0.153,-0.203l-0.152,-0.204l-0.152,-0.205l-0.151,-0.204l-0.151,-0.206l-0.15,-0.205l-0.15,-0.206l-0.149,-0.207l-0.148,-0.207l-0.148,-0.208l-0.147,-0.208l-0.146,-0.208l-0.146,-0.209l-0.145,-0.209l-0.145,-0.21l-0.144,-0.211l-0.143,-0.21l-0.143,-0.211l-0.142,-0.212l-0.141,-0.212l-0.141,-0.213l-0.141,-0.213l-0.139,-0.213l-0.139,-0.214l-0.139,-0.214l-0.137,-0.215l-0.137,-0.215l-0.137,-0.216l-0.136,-0.216l-0.135,-0.216l-0.135,-0.217l-0.134,-0.217l-0.133,-0.218l-0.133,-0.218l-0.132,-0.219l-0.131,-0.219l-0.131,-0.219l-0.13,-0.22l-0.129,-0.22l-0.129,-0.221l-0.128,-0.221l-0.128,-0.222l-0.127,-0.222l-0.126,-0.222l-0.125,-0.223l-0.125,-0.223l-0.124,-0.224l-0.124,-0.224l-0.123,-0.224l-0.122,-0.225l-0.122,-0.225l-0.121,-0.226l-0.12,-0.226l-0.119,-0.226l-0.119,-0.227l-0.119,-0.227l-0.117,-0.228l-0.117,-0.228l-0.116,-0.229l-0.116,-0.228l-0.115,-0.23l-0.114,-0.229l-0.114,-0.23l-0.113,-0.231l-0.112,-0.23l-0.111,-0.232l-0.111,-0.231l-0.11,-0.232l-0.11,-0.232l-0.108,-0.233l-0.109,-0.233l-0.107,-0.234l-0.107,-0.233l-0.106,-0.235l-0.105,-0.234l-0.105,-0.235l-0.104,-0.235l-0.103,-0.236l-0.102,-0.236l-0.102,-0.237l-0.101,-0.236l-0.101,-0.237l-0.099,-0.238l-0.099,-0.238l-0.099,-0.238l-0.097,-0.239l-0.097,-0.239l-0.097,-0.239l-0.095,-0.24l-0.095,-0.24l-0.094,-0.24l-0.093,-0.241l-0.093,-0.241l-0.092,-0.241l-0.091,-0.242l-0.09,-0.242l-0.09,-0.243l-0.089,-0.242l-0.089,-0.243l-0.087,-0.244l-0.087,-0.244l-0.086,-0.244l-0.086,-0.244l-0.084,-0.245l-0.084,-0.245l-0.083,-0.246l-0.083,-0.246l-0.082,-0.246l-0.081,-0.246l-0.08,-0.247l-0.079,-0.247l-0.079,-0.248l-0.078,-0.248l-0.078,-0.248l-0.076,-0.248l-0.076,-0.249l-0.075,-0.249l-0.074,-0.249l-0.074,-0.25l-0.073,-0.25l-0.072,-0.25l-0.071,-0.251l-0.071,-0.251l-0.07,-0.251l-0.069,-0.252l-0.068,-0.252l-0.068,-0.252l-0.066,-0.252l-0.066,-0.253l-0.066,-0.253l-0.064,-0.254l-0.064,-0.253l-0.063,-0.254l-0.062,-0.254l-0.061,-0.255l-0.061,-0.255l-0.043,-0.183l-0.017,-0.072l-0.059,-0.255l-0.059,-0.256l-0.058,-0.256l-0.057,-0.256l-0.056,-0.257l-0.056,-0.257l-0.054,-0.257l-0.054,-0.257l-0.054,-0.258l-0.052,-0.258l-0.051,-0.258l-0.051,-0.258l-0.05,-0.259l-0.05,-0.259l-0.048,-0.26l-0.048,-0.259l-0.046,-0.26l-0.046,-0.26l-0.046,-0.261l-0.044,-0.26l-0.044,-0.261l-0.043,-0.261l-0.042,-0.262l-0.041,-0.262l-0.041,-0.262l-0.039,-0.262l-0.039,-0.262l-0.038,-0.263l-0.037,-0.263l-0.037,-0.263l-0.035,-0.264l-0.035,-0.264l-0.034,-0.264l-0.033,-0.264l-0.033,-0.265l-0.031,-0.264l-0.031,-0.265l-0.03,-0.266l-0.029,-0.265l-0.028,-0.266l-0.028,-0.266l-0.026,-0.266l-0.026,-0.266l-0.025,-0.267l-0.024,-0.267l-0.023,-0.267l-0.023,-0.268l-0.021,-0.267l-0.021,-0.268l-0.02,-0.268l-0.019,-0.268l-0.019,-0.269l-0.017,-0.269l-0.017,-0.269l-0.015,-0.269l-0.015,-0.269l-0.014,-0.27l-0.014,-0.27l-0.012,-0.27l-0.011,-0.27l-0.011,-0.271l-0.01,-0.27l-0.009,-0.271l-0.008,-0.271l-0.007,-0.272l-0.007,-0.271l-0.005,-0.272l-0.005,-0.272l-0.004,-0.272l-0.003,-0.272l-0.002,-0.273l-0.001,-0.272l-0.001,-0.273l0.001,-0.274l0.001,-0.273l0.002,-0.273l0.003,-0.272l0.004,-0.273l0.005,-0.272l0.006,-0.272l0.006,-0.272l0.008,-0.272l0.008,-0.271l0.009,-0.271l0.01,-0.271l0.011,-0.271l0.011,-0.271l0.013,-0.27l0.013,-0.27l0.014,-0.27l0.015,-0.27l0.016,-0.269l0.017,-0.269l0.017,-0.269l0.019,-0.269l0.019,-0.268l0.02,-0.269l0.021,-0.268l0.022,-0.267l0.022,-0.268l0.024,-0.267l0.024,-0.267l0.025,-0.267l0.026,-0.267l0.026,-0.266l0.028,-0.266l0.028,-0.266l0.029,-0.266l0.03,-0.265l0.031,-0.265l0.032,-0.265l0.032,-0.265l0.034,-0.264l0.034,-0.264l0.034,-0.264l0.036,-0.263l0.037,-0.264l0.037,-0.263l0.038,-0.263l0.039,-0.262l0.04,-0.262l0.04,-0.262l0.042,-0.262l0.042,-0.261l0.043,-0.262l0.044,-0.26l0.044,-0.261l0.045,-0.26l0.047,-0.261l0.047,-0.259l0.015,-0.086l0.032,-0.174l0.047,-0.259l0.049,-0.259l0.049,-0.259l0.05,-0.259l0.051,-0.258l0.052,-0.258l0.052,-0.258l0.053,-0.257l0.054,-0.257l0.055,-0.257l0.055,-0.257l0.057,-0.256l0.057,-0.256l0.058,-0.256l0.058,-0.255l0.06,-0.255l0.06,-0.255l0.061,-0.255l0.062,-0.254l0.062,-0.254l0.063,-0.254l0.064,-0.253l0.065,-0.253l0.066,-0.253l0.066,-0.252l0.067,-0.252l0.068,-0.252l0.068,-0.251l0.07,-0.252l0.07,-0.25l0.071,-0.251l0.071,-0.25l0.073,-0.25l0.073,-0.25l0.074,-0.249l0.074,-0.249l0.075,-0.248l0.077,-0.249l0.076,-0.248l0.078,-0.247l0.078,-0.248l0.079,-0.247l0.08,-0.246l0.081,-0.247l0.081,-0.246l0.082,-0.245l0.082,-0.246l0.084,-0.245l0.084,-0.244l0.085,-0.245l0.086,-0.244l0.086,-0.243l0.087,-0.244l0.071,-0.197l0.017,-0.046l0.088,-0.243l0.088,-0.242l0.09,-0.242l0.09,-0.242l0.091,-0.242l0.091,-0.241l0.092,-0.24l0.093,-0.241l0.094,-0.24l0.094,-0.24l0.095,-0.239l0.096,-0.239l0.097,-0.239l0.097,-0.238l0.098,-0.238l0.098,-0.237l0.1,-0.237l0.1,-0.237l0.1,-0.237l0.102,-0.236l0.102,-0.236l0.103,-0.235l0.103,-0.235l0.104,-0.235l0.105,-0.234l0.106,-0.234l0.106,-0.233l0.107,-0.233l0.108,-0.233l0.108,-0.232l0.109,-0.232l0.11,-0.232l0.11,-0.231l0.111,-0.231l0.112,-0.23l0.112,-0.231l0.114,-0.229l0.113,-0.229l0.115,-0.229l0.115,-0.229l0.116,-0.228l0.116,-0.228l0.117,-0.227l0.118,-0.227l0.119,-0.226l0.119,-0.227l0.12,-0.225l0.12,-0.226l0.121,-0.224l0.122,-0.225l0.122,-0.224l0.123,-0.224l0.124,-0.223l0.125,-0.223l0.125,-0.222l0.125,-0.222l0.127,-0.222l0.127,-0.221l0.127,-0.221l0.129,-0.22l0.129,-0.22l0.129,-0.22l0.131,-0.219l0.13,-0.219l0.132,-0.218l0.132,-0.218l0.133,-0.217l0.133,-0.217l0.077,-0.124l0.057,-0.093l0.135,-0.216l0.135,-0.216l0.135,-0.215l0.136,-0.215l0.137,-0.215l0.138,-0.214l0.138,-0.214l0.139,-0.213l0.139,-0.213l0.14,-0.212l0.141,-0.212l0.141,-0.212l0.142,-0.211l0.142,-0.211l0.143,-0.21l0.144,-0.21l0.144,-0.209l0.145,-0.209l0.146,-0.208l0.146,-0.208l0.147,-0.208l0.147,-0.207l0.148,-0.206l0.149,-0.206l0.149,-0.206l0.15,-0.205l0.15,-0.205l0.151,-0.204l0.152,-0.204l0.152,-0.203l0.153,-0.203l0.153,-0.202l0.154,-0.202l0.155,-0.202l0.155,-0.201l0.156,-0.2l0.156,-0.2l0.157,-0.2l0.158,-0.199l0.158,-0.198l0.159,-0.198l0.159,-0.198l0.16,-0.197l0.16,-0.197l0.161,-0.196l0.162,-0.195l0.162,-0.195l0.163,-0.195l0.163,-0.194l0.164,-0.194l0.165,-0.193l0.165,-0.193l0.166,-0.192l0.166,-0.192l0.166,-0.191l0.168,-0.191l0.168,-0.19l0.168,-0.189l0.169,-0.19l0.17,-0.188l0.17,-0.188l0.171,-0.188l0.171,-0.187l0.172,-0.187l0.172,-0.186l0.173,-0.186l0.173,-0.185l0.174,-0.184l0.175,-0.184l0.175,-0.184l0.176,-0.183l0.176,-0.182l0.177,-0.182l0.177,-0.182l0.178,-0.18l0.178,-0.181l0.179,-0.18l0.18,-0.179l0.18,-0.179l0.18,-0.178l0.181,-0.178l0.182,-0.177l0.182,-0.176l0.182,-0.177l0.184,-0.175l0.183,-0.175l0.185,-0.175l0.184,-0.173l0.186,-0.174l0.185,-0.173l0.187,-0.172l0.187,-0.172l0.187,-0.171l0.188,-0.17l0.188,-0.171l0.189,-0.169l0.189,-0.169l0.19,-0.168l0.191,-0.168l0.191,-0.168l0.191,-0.166l0.192,-0.166l0.193,-0.166l0.193,-0.165l0.193,-0.165l0.194,-0.163l0.194,-0.164l0.195,-0.163l0.196,-0.162l0.196,-0.161l0.196,-0.161l0.197,-0.161l0.198,-0.16l0.198,-0.159l0.198,-0.159l0.199,-0.158l0.199,-0.157l0.2,-0.157l0.201,-0.157l0.2,-0.156l0.202,-0.155l0.202,-0.155l0.202,-0.154l0.203,-0.153l0.203,-0.153l0.204,-0.152l0.204,-0.152l0.204,-0.151l0.206,-0.15l0.205,-0.15l0.206,-0.149l0.207,-0.149l0.207,-0.148l0.207,-0.148l0.208,-0.146l0.209,-0.147l0.209,-0.145l0.209,-0.145l0.21,-0.145l0.21,-0.144l0.211,-0.143l0.211,-0.142l0.211,-0.142l0.213,-0.142l0.212,-0.14l0.213,-0.14l0.213,-0.14l0.214,-0.139l0.215,-0.138l0.214,-0.138l0.216,-0.137l0.215,-0.136l0.2,-0.125l0.016,-0.011l0.217,-0.135l0.216,-0.135l0.218,-0.134l0.217,-0.133l0.218,-0.133l0.219,-0.132l0.219,-0.132l0.219,-0.131l0.22,-0.13l0.22,-0.13l0.221,-0.129l0.221,-0.128l0.222,-0.128l0.222,-0.127l0.222,-0.126l0.223,-0.126l0.223,-0.125l0.224,-0.125l0.224,-0.123l0.224,-0.124l0.225,-0.122l0.225,-0.122l0.226,-0.121l0.226,-0.121l0.227,-0.119l0.227,-0.12l0.227,-0.118l0.228,-0.118l0.228,-0.117l0.229,-0.117l0.229,-0.116l0.229,-0.115l0.23,-0.114l0.23,-0.114l0.231,-0.113l0.231,-0.113l0.231,-0.111l0.232,-0.112l0.232,-0.11l0.233,-0.11l0.233,-0.109l0.233,-0.108l0.234,-0.108l0.234,-0.107l0.234,-0.106l0.235,-0.106l0.235,-0.105l0.236,-0.104l0.236,-0.104l0.236,-0.103l0.237,-0.102l0.237,-0.101l0.238,-0.101l0.238,-0.1l0.238,-0.099l0.239,-0.099l0.239,-0.098l0.239,-0.097l0.24,-0.097l0.24,-0.096l0.24,-0.095l0.241,-0.094l0.242,-0.094l0.241,-0.093l0.242,-0.092l0.242,-0.092l0.243,-0.09l0.243,-0.09l0.243,-0.09l0.244,-0.089l0.244,-0.087l0.245,-0.088l0.244,-0.086l0.245,-0.086l0.246,-0.085l0.246,-0.084l0.246,-0.084l0.246,-0.083l0.247,-0.082l0.247,-0.081l0.248,-0.081l0.248,-0.08l0.248,-0.079l0.248,-0.078l0.249,-0.078l0.249,-0.077l0.25,-0.076l0.25,-0.075l0.25,-0.075l0.25,-0.074l0.251,-0.073l0.251,-0.073l0.252,-0.071l0.252,-0.071l0.252,-0.071l0.252,-0.069l0.253,-0.069l0.253,-0.067l0.253,-0.068l0.254,-0.066l0.254,-0.066l0.254,-0.064l0.255,-0.065l0.255,-0.063l0.255,-0.062l0.256,-0.062l0.255,-0.061l0.257,-0.06l0.256,-0.06l0.257,-0.059l0.257,-0.057l0.257,-0.058l0.258,-0.056l0.258,-0.055l0.258,-0.055l0.259,-0.054l0.259,-0.053l0.259,-0.053l0.259,-0.051l0.26,-0.051l0.26,-0.05l0.26,-0.05l0.261,-0.048l0.26,-0.048l0.262,-0.047l0.261,-0.046l0.262,-0.045l0.262,-0.045l0.262,-0.043l0.262,-0.043l0.263,-0.042l0.263,-0.041l0.264,-0.041l0.263,-0.04l0.264,-0.038l0.264,-0.038l0.265,-0.038l0.264,-0.036l0.265,-0.036l0.265,-0.034l0.266,-0.034l0.266,-0.034l0.266,-0.032l0.266,-0.031l0.266,-0.031l0.267,-0.03l0.267,-0.029l0.267,-0.028l0.268,-0.027l0.267,-0.027l0.268,-0.026l0.269,-0.025l0.268,-0.024l0.269,-0.023l0.269,-0.022l0.269,-0.022l0.27,-0.021l0.269,-0.019l0.27,-0.019l0.27,-0.019l0.271,-0.017l0.27,-0.016l0.271,-0.016l0.271,-0.015l0.272,-0.014l0.271,-0.013l0.272,-0.012l0.272,-0.012l0.272,-0.01l0.273,-0.01l0.272,-0.009l0.273,-0.007l0.273,-0.008l0.274,-0.006l0.273,-0.005l0.274,-0.005l0.274,-0.003l0.274,-0.003l0.276,-0.002l0.273,-0.008l0.036,-0.001l0.238,-0.005l0.274,-0.005l0.274,-0.005l0.274,-0.003l0.274,-0.002l0.273,-0.002l0.273,-0.001l0.274,0Zm-3.274,1.436l-0.269,0.001l-0.269,0.003l-0.269,0.003l-0.269,0.004l-0.269,0.005l-0.268,0.006l-0.268,0.006l-0.268,0.008l-0.268,0.008l-0.268,0.009l-0.267,0.01l-0.267,0.011l-0.267,0.011l-0.267,0.013l-0.266,0.013l-0.267,0.015l-0.266,0.015l-0.265,0.015l-0.266,0.017l-0.266,0.018l-0.265,0.018l-0.265,0.019l-0.265,0.02l-0.264,0.021l-0.264,0.021l-0.264,0.023l-0.264,0.023l-0.264,0.024l-0.263,0.025l-0.264,0.026l-0.263,0.026l-0.262,0.028l-0.263,0.028l-0.262,0.029l-0.262,0.03l-0.262,0.03l-0.261,0.032l-0.261,0.032l-0.262,0.033l-0.26,0.034l-0.261,0.034l-0.26,0.036l-0.26,0.036l-0.26,0.037l-0.26,0.038l-0.259,0.039l-0.259,0.039l-0.259,0.04l-0.258,0.041l-0.258,0.042l-0.259,0.043l-0.257,0.043l-0.258,0.044l-0.257,0.045l-0.257,0.046l-0.257,0.047l-0.256,0.047l-0.256,0.048l-0.256,0.049l-0.256,0.05l-0.255,0.05l-0.255,0.051l-0.255,0.052l-0.255,0.053l-0.254,0.053l-0.254,0.055l-0.254,0.055l-0.253,0.056l-0.253,0.056l-0.253,0.058l-0.253,0.058l-0.252,0.059l-0.252,0.06l-0.252,0.06l-0.251,0.061l-0.251,0.062l-0.251,0.063l-0.251,0.063l-0.25,0.065l-0.25,0.065l-0.249,0.065l-0.25,0.067l-0.249,0.067l-0.249,0.068l-0.248,0.069l-0.248,0.069l-0.248,0.071l-0.248,0.071l-0.247,0.071l-0.247,0.073l-0.246,0.073l-0.247,0.074l-0.246,0.075l-0.245,0.075l-0.246,0.076l-0.245,0.077l-0.245,0.078l-0.244,0.078l-0.244,0.079l-0.244,0.08l-0.243,0.081l-0.243,0.081l-0.243,0.082l-0.243,0.083l-0.242,0.083l-0.242,0.084l-0.241,0.085l-0.241,0.086l-0.241,0.086l-0.241,0.087l-0.24,0.088l-0.24,0.088l-0.239,0.09l-0.239,0.09l-0.239,0.09l-0.238,0.092l-0.239,0.092l-0.237,0.092l-0.238,0.094l-0.237,0.094l-0.236,0.095l-0.237,0.095l-0.236,0.097l-0.235,0.097l-0.236,0.097l-0.235,0.099l-0.234,0.099l-0.235,0.099l-0.233,0.101l-0.234,0.101l-0.233,0.102l-0.233,0.102l-0.232,0.104l-0.232,0.103l-0.232,0.105l-0.231,0.105l-0.231,0.106l-0.231,0.107l-0.23,0.107l-0.23,0.108l-0.229,0.109l-0.229,0.109l-0.229,0.11l-0.228,0.111l-0.228,0.111l-0.228,0.112l-0.227,0.113l-0.227,0.113l-0.226,0.114l-0.226,0.115l-0.226,0.115l-0.225,0.116l-0.225,0.117l-0.224,0.118l-0.224,0.118l-0.224,0.118l-0.223,0.12l-0.223,0.12l-0.223,0.12l-0.222,0.122l-0.221,0.121l-0.222,0.123l-0.221,0.123l-0.22,0.124l-0.22,0.125l-0.22,0.125l-0.219,0.126l-0.219,0.126l-0.218,0.128l-0.218,0.127l-0.218,0.129l-0.217,0.129l-0.217,0.129l-0.216,0.131l-0.216,0.131l-0.215,0.131l-0.017,0.01l-0.198,0.123l-0.215,0.133l-0.214,0.134l-0.213,0.134l-0.214,0.135l-0.212,0.136l-0.213,0.136l-0.211,0.137l-0.212,0.138l-0.211,0.138l-0.211,0.139l-0.21,0.139l-0.209,0.14l-0.21,0.141l-0.208,0.141l-0.209,0.142l-0.208,0.142l-0.207,0.143l-0.207,0.144l-0.207,0.144l-0.206,0.145l-0.206,0.146l-0.205,0.146l-0.205,0.146l-0.204,0.148l-0.204,0.148l-0.203,0.148l-0.203,0.149l-0.202,0.15l-0.202,0.15l-0.202,0.151l-0.201,0.152l-0.201,0.152l-0.2,0.152l-0.2,0.154l-0.199,0.153l-0.198,0.155l-0.199,0.155l-0.198,0.155l-0.197,0.157l-0.197,0.156l-0.196,0.158l-0.196,0.158l-0.195,0.158l-0.195,0.159l-0.195,0.16l-0.194,0.16l-0.193,0.161l-0.193,0.161l-0.193,0.162l-0.192,0.163l-0.191,0.163l-0.191,0.163l-0.191,0.164l-0.19,0.165l-0.189,0.166l-0.189,0.165l-0.189,0.167l-0.188,0.167l-0.187,0.167l-0.187,0.168l-0.187,0.169l-0.186,0.169l-0.185,0.17l-0.185,0.17l-0.185,0.171l-0.184,0.172l-0.183,0.172l-0.183,0.172l-0.183,0.173l-0.182,0.174l-0.181,0.174l-0.181,0.175l-0.18,0.175l-0.18,0.176l-0.18,0.176l-0.178,0.177l-0.179,0.177l-0.177,0.178l-0.178,0.178l-0.176,0.179l-0.177,0.18l-0.175,0.18l-0.175,0.18l-0.175,0.181l-0.174,0.182l-0.173,0.182l-0.173,0.183l-0.173,0.183l-0.172,0.183l-0.171,0.185l-0.171,0.184l-0.17,0.185l-0.17,0.186l-0.169,0.186l-0.168,0.187l-0.168,0.187l-0.168,0.188l-0.167,0.188l-0.166,0.189l-0.166,0.189l-0.165,0.19l-0.165,0.191l-0.164,0.19l-0.164,0.192l-0.163,0.191l-0.163,0.193l-0.161,0.192l-0.162,0.194l-0.161,0.193l-0.16,0.195l-0.159,0.194l-0.16,0.196l-0.158,0.195l-0.158,0.197l-0.157,0.196l-0.157,0.197l-0.156,0.198l-0.156,0.198l-0.155,0.199l-0.154,0.199l-0.154,0.2l-0.154,0.2l-0.152,0.2l-0.152,0.201l-0.152,0.202l-0.151,0.202l-0.15,0.202l-0.15,0.203l-0.149,0.203l-0.149,0.204l-0.148,0.204l-0.147,0.205l-0.147,0.205l-0.146,0.206l-0.146,0.206l-0.145,0.207l-0.144,0.207l-0.144,0.207l-0.143,0.208l-0.143,0.209l-0.141,0.209l-0.142,0.209l-0.141,0.21l-0.14,0.21l-0.139,0.21l-0.139,0.212l-0.138,0.211l-0.138,0.212l-0.137,0.213l-0.136,0.212l-0.136,0.214l-0.135,0.214l-0.058,0.091l-0.077,0.123l-0.133,0.215l-0.133,0.215l-0.132,0.216l-0.132,0.216l-0.131,0.216l-0.13,0.217l-0.13,0.218l-0.129,0.218l-0.129,0.218l-0.128,0.219l-0.127,0.219l-0.126,0.219l-0.126,0.22l-0.125,0.221l-0.125,0.221l-0.124,0.221l-0.123,0.221l-0.123,0.222l-0.122,0.223l-0.121,0.223l-0.121,0.223l-0.12,0.224l-0.12,0.224l-0.118,0.224l-0.118,0.225l-0.118,0.225l-0.117,0.226l-0.116,0.226l-0.115,0.227l-0.115,0.226l-0.114,0.228l-0.113,0.227l-0.113,0.228l-0.112,0.229l-0.112,0.229l-0.11,0.229l-0.111,0.229l-0.109,0.23l-0.109,0.231l-0.108,0.231l-0.107,0.231l-0.107,0.231l-0.106,0.232l-0.105,0.232l-0.105,0.233l-0.104,0.233l-0.103,0.234l-0.103,0.233l-0.101,0.235l-0.102,0.234l-0.1,0.235l-0.1,0.235l-0.099,0.236l-0.098,0.236l-0.098,0.236l-0.097,0.237l-0.096,0.237l-0.096,0.237l-0.095,0.238l-0.094,0.238l-0.094,0.239l-0.093,0.239l-0.092,0.239l-0.091,0.24l-0.091,0.24l-0.09,0.24l-0.089,0.24l-0.088,0.241l-0.017,0.046l-0.071,0.196l-0.086,0.242l-0.086,0.242l-0.085,0.243l-0.084,0.242l-0.084,0.244l-0.083,0.243l-0.082,0.244l-0.081,0.244l-0.081,0.245l-0.08,0.245l-0.079,0.245l-0.079,0.246l-0.078,0.246l-0.077,0.246l-0.076,0.246l-0.075,0.247l-0.075,0.247l-0.074,0.248l-0.074,0.248l-0.072,0.248l-0.072,0.248l-0.071,0.249l-0.07,0.249l-0.07,0.249l-0.069,0.25l-0.068,0.25l-0.067,0.25l-0.067,0.251l-0.066,0.251l-0.065,0.251l-0.064,0.252l-0.064,0.251l-0.063,0.253l-0.062,0.252l-0.061,0.253l-0.06,0.253l-0.06,0.253l-0.059,0.254l-0.058,0.253l-0.058,0.255l-0.056,0.254l-0.056,0.255l-0.056,0.255l-0.054,0.255l-0.053,0.256l-0.053,0.256l-0.052,0.256l-0.052,0.257l-0.05,0.256l-0.05,0.257l-0.049,0.258l-0.048,0.257l-0.047,0.258l-0.031,0.173l-0.015,0.085l-0.045,0.259l-0.044,0.259l-0.044,0.259l-0.042,0.259l-0.042,0.26l-0.041,0.259l-0.04,0.261l-0.04,0.26l-0.038,0.261l-0.038,0.26l-0.037,0.262l-0.036,0.261l-0.035,0.262l-0.035,0.261l-0.034,0.263l-0.033,0.262l-0.032,0.263l-0.031,0.263l-0.03,0.263l-0.03,0.263l-0.029,0.264l-0.028,0.263l-0.027,0.265l-0.027,0.264l-0.025,0.264l-0.025,0.265l-0.024,0.265l-0.023,0.266l-0.022,0.265l-0.022,0.266l-0.02,0.266l-0.02,0.266l-0.019,0.266l-0.018,0.267l-0.018,0.267l-0.016,0.267l-0.016,0.267l-0.015,0.268l-0.014,0.267l-0.013,0.268l-0.012,0.268l-0.011,0.269l-0.011,0.268l-0.01,0.269l-0.009,0.269l-0.008,0.269l-0.007,0.27l-0.006,0.269l-0.006,0.27l-0.005,0.27l-0.003,0.27l-0.003,0.271l-0.002,0.27l-0.002,0.271l0,0.271l0,0.271l0.002,0.272l0.002,0.271l0.003,0.27l0.004,0.271l0.005,0.27l0.005,0.271l0.007,0.27l0.007,0.269l0.008,0.27l0.009,0.269l0.01,0.269l0.011,0.269l0.011,0.269l0.013,0.268l0.013,0.268l0.014,0.268l0.015,0.268l0.016,0.268l0.016,0.267l0.018,0.267l0.018,0.267l0.019,0.266l0.02,0.267l0.021,0.266l0.021,0.266l0.023,0.265l0.023,0.266l0.024,0.265l0.025,0.265l0.025,0.265l0.027,0.264l0.027,0.264l0.029,0.264l0.028,0.264l0.03,0.263l0.031,0.264l0.031,0.263l0.032,0.262l0.034,0.263l0.033,0.262l0.035,0.262l0.035,0.261l0.037,0.262l0.037,0.261l0.038,0.261l0.038,0.261l0.04,0.26l0.04,0.26l0.041,0.26l0.042,0.259l0.043,0.26l0.043,0.259l0.044,0.259l0.045,0.258l0.046,0.258l0.047,0.258l0.047,0.258l0.048,0.257l0.049,0.257l0.05,0.257l0.05,0.257l0.052,0.256l0.052,0.256l0.053,0.256l0.053,0.255l0.055,0.255l0.055,0.255l0.056,0.254l0.056,0.255l0.058,0.254l0.058,0.253l0.059,0.254l0.06,0.253l0.061,0.252l0.061,0.253l0.062,0.252l0.064,0.252l0.063,0.251l0.065,0.251l0.065,0.251l0.067,0.251l0.066,0.25l0.068,0.25l0.068,0.249l0.07,0.25l0.069,0.249l0.071,0.248l0.071,0.249l0.073,0.248l0.072,0.248l0.074,0.247l0.074,0.247l0.075,0.247l0.076,0.246l0.077,0.246l0.077,0.246l0.078,0.245l0.079,0.245l0.079,0.245l0.08,0.245l0.081,0.244l0.082,0.244l0.082,0.243l0.084,0.243l0.083,0.243l0.085,0.242l0.085,0.242l0.086,0.242l0.087,0.241l0.087,0.241l0.089,0.241l0.088,0.24l0.09,0.24l0.09,0.24l0.091,0.239l0.092,0.239l0.092,0.239l0.093,0.238l0.094,0.238l0.095,0.237l0.095,0.238l0.096,0.236l0.097,0.237l0.097,0.236l0.098,0.235l0.099,0.236l0.099,0.235l0.1,0.234l0.101,0.235l0.101,0.233l0.102,0.234l0.103,0.233l0.104,0.233l0.104,0.232l0.105,0.232l0.106,0.232l0.106,0.231l0.107,0.231l0.107,0.23l0.109,0.23l0.109,0.23l0.109,0.229l0.111,0.229l0.111,0.228l0.111,0.229l0.113,0.227l0.113,0.228l0.113,0.227l0.115,0.226l0.115,0.226l0.115,0.226l0.117,0.225l0.117,0.225l0.117,0.225l0.119,0.224l0.118,0.224l0.12,0.223l0.12,0.223l0.121,0.222l0.122,0.223l0.122,0.221l0.123,0.222l0.123,0.22l0.125,0.221l0.124,0.22l0.126,0.22l0.126,0.219l0.127,0.219l0.127,0.218l0.128,0.218l0.129,0.217l0.129,0.217l0.13,0.217l0.13,0.216l0.131,0.216l0.132,0.216l0.133,0.215l0.133,0.214l0.133,0.214l0.135,0.214l0.134,0.213l0.136,0.213l0.136,0.212l0.137,0.212l0.137,0.211l0.138,0.211l0.139,0.211l0.139,0.21l0.14,0.21l0.141,0.209l0.141,0.209l0.141,0.208l0.143,0.208l0.143,0.207l0.143,0.207l0.144,0.207l0.145,0.206l0.145,0.206l0.146,0.205l0.147,0.204l0.147,0.205l0.147,0.203l0.149,0.204l0.149,0.203l0.149,0.202l0.15,0.202l0.151,0.201l0.151,0.201l0.152,0.201l0.152,0.2l0.153,0.199l0.154,0.199l0.154,0.199l0.155,0.198l0.155,0.198l0.156,0.197l0.156,0.196l0.158,0.197l0.157,0.195l0.158,0.195l0.159,0.195l0.159,0.194l0.16,0.194l0.161,0.193l0.161,0.193l0.161,0.192l0.163,0.192l0.162,0.192l0.164,0.19l0.163,0.191l0.165,0.189l0.165,0.19l0.165,0.188l0.166,0.189l0.167,0.187l0.167,0.188l0.168,0.186l0.168,0.187l0.169,0.185l0.169,0.186l0.17,0.184l0.171,0.185l0.171,0.183l0.171,0.183l0.172,0.183l0.173,0.182l0.173,0.182l0.174,0.181l0.174,0.18l0.175,0.18l0.176,0.179l0.175,0.179l0.177,0.179l0.177,0.177l0.177,0.178l0.178,0.177l0.179,0.176l0.179,0.175l0.18,0.176l0.18,0.174l0.18,0.174l0.181,0.174l0.182,0.173l0.182,0.172l0.183,0.172l0.183,0.172l0.184,0.17l0.184,0.171l0.185,0.169l0.185,0.17l0.186,0.168l0.186,0.168l0.187,0.168l0.187,0.167l0.187,0.166l0.189,0.166l0.188,0.165l0.19,0.165l0.189,0.164l0.191,0.164l0.19,0.163l0.191,0.162l0.192,0.162l0.192,0.162l0.193,0.16l0.193,0.161l0.194,0.159l0.194,0.159l0.194,0.159l0.195,0.158l0.196,0.157l0.196,0.157l0.196,0.156l0.197,0.156l0.198,0.155l0.198,0.154l0.198,0.154l0.199,0.153l0.199,0.153l0.2,0.152l0.2,0.152l0.201,0.15l0.201,0.151l0.202,0.15l0.202,0.149l0.202,0.148l0.203,0.148l0.204,0.147l0.204,0.147l0.204,0.146l0.205,0.146l0.205,0.145l0.206,0.144l0.206,0.144l0.207,0.143l0.207,0.143l0.207,0.141l0.208,0.142l0.209,0.14l0.209,0.14l0.209,0.14l0.21,0.139l0.21,0.138l0.21,0.138l0.211,0.137l0.212,0.136l0.212,0.136l0.212,0.135l0.213,0.134l0.213,0.134l0.213,0.133l0.214,0.133l0.215,0.132l0.215,0.131l0.215,0.131l0.216,0.13l0.216,0.13l0.216,0.128l0.217,0.129l0.218,0.127l0.218,0.127l0.218,0.126l0.218,0.126l0.219,0.125l0.22,0.124l0.22,0.124l0.22,0.123l0.22,0.122l0.221,0.122l0.222,0.121l0.222,0.121l0.222,0.119l0.223,0.12l0.223,0.118l0.223,0.118l0.224,0.117l0.224,0.116l0.225,0.116l0.225,0.115l0.225,0.115l0.226,0.114l0.226,0.113l0.226,0.112l0.227,0.112l0.228,0.111l0.227,0.111l0.228,0.11l0.229,0.109l0.229,0.108l0.229,0.108l0.229,0.107l0.23,0.107l0.231,0.106l0.23,0.105l0.231,0.104l0.232,0.104l0.231,0.103l0.233,0.102l0.232,0.102l0.233,0.101l0.233,0.1l0.234,0.1l0.234,0.099l0.234,0.098l0.235,0.097l0.235,0.097l0.235,0.096l0.236,0.096l0.236,0.094l0.236,0.094l0.237,0.094l0.237,0.092l0.237,0.092l0.238,0.091l0.238,0.091l0.239,0.09l0.239,0.089l0.239,0.088l0.239,0.088l0.24,0.087l0.24,0.086l0.241,0.085l0.241,0.085l0.241,0.084l0.241,0.084l0.242,0.082l0.242,0.082l0.243,0.081l0.242,0.081l0.244,0.08l0.243,0.079l0.244,0.078l0.244,0.077l0.244,0.077l0.245,0.076l0.245,0.076l0.245,0.074l0.246,0.074l0.246,0.073l0.246,0.073l0.247,0.071l0.247,0.071l0.247,0.07l0.247,0.07l0.248,0.069l0.248,0.067l0.249,0.068l0.248,0.066l0.249,0.066l0.25,0.065l0.249,0.064l0.25,0.063l0.25,0.063l0.251,0.062l0.251,0.061l0.251,0.061l0.251,0.059l0.252,0.059l0.252,0.058l0.252,0.058l0.252,0.056l0.253,0.056l0.253,0.055l0.253,0.054l0.254,0.054l0.254,0.053l0.254,0.052l0.254,0.051l0.255,0.05l0.255,0.05l0.255,0.049l0.256,0.048l0.256,0.047l0.256,0.047l0.256,0.045l0.257,0.045l0.256,0.045l0.258,0.043l0.257,0.043l0.257,0.041l0.258,0.041l0.258,0.041l0.259,0.039l0.259,0.039l0.258,0.038l0.26,0.037l0.259,0.036l0.26,0.035l0.259,0.035l0.261,0.034l0.26,0.033l0.261,0.032l0.26,0.032l0.262,0.03l0.261,0.03l0.262,0.029l0.261,0.028l0.262,0.028l0.263,0.026l0.262,0.026l0.263,0.025l0.263,0.024l0.263,0.024l0.264,0.022l0.263,0.022l0.264,0.021l0.264,0.02l0.265,0.019l0.264,0.018l0.265,0.018l0.265,0.017l0.265,0.016l0.266,0.015l0.265,0.014l0.266,0.013l0.266,0.013l0.267,0.012l0.266,0.011l0.267,0.01l0.267,0.009l0.267,0.008l0.267,0.008l0.268,0.007l0.267,0.005l0.268,0.006l0.268,0.004l0.269,0.003l0.268,0.002l0.269,0.002l0.269,0.001l0.269,0l0.269,-0.001l0.27,-0.002l0.269,-0.003l0.269,-0.003l0.268,-0.004l0.269,-0.006l0.268,-0.006l0.268,-0.006l0.268,-0.008l0.268,-0.009l0.267,-0.009l0.267,-0.01l0.267,-0.011l0.267,-0.012l0.266,-0.013l0.266,-0.014l0.266,-0.014l0.266,-0.015l0.266,-0.016l0.265,-0.017l0.265,-0.018l0.265,-0.019l0.265,-0.019l0.264,-0.02l0.264,-0.021l0.264,-0.022l0.264,-0.023l0.263,-0.023l0.264,-0.025l0.263,-0.025l0.262,-0.026l0.263,-0.027l0.262,-0.027l0.262,-0.029l0.262,-0.029l0.261,-0.03l0.261,-0.031l0.261,-0.031l0.261,-0.033l0.261,-0.033l0.26,-0.034l0.26,-0.035l0.259,-0.035l0.26,-0.037l0.259,-0.037l0.259,-0.038l0.259,-0.039l0.258,-0.039l0.258,-0.041l0.258,-0.041l0.257,-0.042l0.258,-0.043l0.257,-0.043l0.256,-0.045l0.257,-0.045l0.256,-0.046l0.256,-0.046l0.256,-0.048l0.255,-0.048l0.255,-0.049l0.255,-0.05l0.254,-0.05l0.255,-0.052l0.254,-0.052l0.253,-0.053l0.254,-0.053l0.253,-0.055l0.253,-0.055l0.252,-0.056l0.252,-0.057l0.252,-0.057l0.252,-0.058l0.251,-0.059l0.251,-0.06l0.251,-0.061l0.25,-0.061l0.25,-0.062l0.25,-0.063l0.25,-0.063l0.249,-0.065l0.249,-0.065l0.249,-0.065l0.248,-0.067l0.248,-0.067l0.247,-0.068l0.248,-0.069l0.247,-0.069l0.247,-0.071l0.246,-0.071l0.246,-0.071l0.246,-0.073l0.245,-0.073l0.245,-0.074l0.245,-0.075l0.245,-0.075l0.244,-0.076l0.244,-0.077l0.243,-0.078l0.243,-0.078l0.243,-0.079l0.243,-0.08l0.242,-0.08l0.242,-0.081l0.241,-0.082l0.241,-0.083l0.241,-0.083l0.241,-0.084l0.24,-0.085l0.24,-0.085l0.239,-0.087l0.239,-0.087l0.239,-0.087l0.239,-0.088l0.238,-0.089l0.237,-0.09l0.238,-0.091l0.237,-0.091l0.236,-0.092l0.237,-0.092l0.236,-0.093l0.235,-0.094l0.236,-0.095l0.235,-0.095l0.234,-0.096l0.234,-0.097l0.03,-0.012l0.204,-0.085l0.234,-0.098l0.233,-0.099l0.232,-0.1l0.233,-0.1l0.232,-0.101l0.231,-0.101l0.232,-0.102l0.23,-0.103l0.231,-0.104l0.23,-0.104l0.23,-0.105l0.229,-0.105l0.229,-0.107l0.229,-0.106l0.228,-0.108l0.228,-0.108l0.227,-0.109l0.227,-0.11l0.227,-0.11l0.226,-0.111l0.226,-0.112l0.226,-0.112l0.225,-0.113l0.225,-0.113l0.224,-0.114l0.224,-0.115l0.224,-0.116l0.223,-0.116l0.222,-0.117l0.223,-0.117l0.222,-0.119l0.221,-0.118l0.221,-0.12l0.221,-0.12l0.221,-0.121l0.219,-0.121l0.22,-0.122l0.219,-0.123l0.219,-0.123l0.218,-0.124l0.218,-0.125l0.217,-0.125l0.217,-0.126l0.217,-0.126l0.216,-0.127l0.216,-0.128l0.215,-0.128l0.215,-0.129l0.215,-0.13l0.214,-0.13l0.214,-0.131l0.213,-0.132l0.213,-0.132l0.212,-0.132l0.212,-0.134l0.211,-0.134l0.211,-0.134l0.211,-0.136l0.21,-0.135l0.21,-0.137l0.209,-0.137l0.209,-0.138l0.209,-0.138l0.208,-0.139l0.207,-0.139l0.207,-0.14l0.207,-0.141l0.206,-0.141l0.206,-0.142l0.205,-0.143l0.205,-0.143l0.204,-0.144l0.204,-0.144l0.204,-0.145l0.203,-0.145l0.202,-0.146l0.203,-0.147l0.201,-0.147l0.201,-0.148l0.201,-0.148l0.2,-0.149l0.2,-0.15l0.199,-0.15l0.199,-0.151l0.199,-0.151l0.198,-0.152l0.197,-0.153l0.197,-0.153l0.196,-0.153l0.197,-0.155l0.195,-0.154l0.195,-0.156l0.195,-0.156l0.194,-0.156l0.193,-0.157l0.194,-0.158l0.192,-0.158l0.192,-0.159l0.192,-0.159l0.191,-0.16l0.191,-0.161l0.19,-0.161l0.19,-0.161l0.189,-0.162l0.189,-0.163l0.188,-0.163l0.188,-0.164l0.187,-0.164l0.187,-0.165l0.186,-0.165l0.186,-0.166l0.185,-0.167l0.185,-0.167l0.184,-0.168l0.183,-0.168l0.184,-0.168l0.182,-0.17l0.182,-0.169l0.182,-0.171l0.181,-0.17l0.181,-0.172l0.18,-0.172l0.18,-0.172l0.179,-0.173l0.178,-0.174l0.178,-0.174l0.178,-0.174l0.177,-0.175l0.176,-0.176l0.176,-0.176l0.176,-0.176l0.174,-0.178l0.175,-0.177l0.174,-0.178l0.173,-0.179l0.173,-0.179l0.172,-0.18l0.171,-0.18l0.172,-0.181l0.17,-0.181l0.17,-0.182l0.17,-0.182l0.169,-0.183l0.168,-0.183l0.168,-0.184l0.167,-0.184l0.167,-0.185l0.166,-0.185l0.166,-0.186l0.165,-0.186l0.165,-0.187l0.164,-0.187l0.163,-0.188l0.163,-0.188l0.163,-0.189l0.161,-0.189l0.162,-0.19l0.16,-0.19l0.16,-0.191l0.16,-0.191l0.159,-0.191l0.158,-0.193l0.158,-0.192l0.157,-0.193l0.157,-0.194l0.156,-0.194l0.156,-0.194l0.155,-0.195l0.154,-0.196l0.154,-0.195l0.153,-0.197l0.153,-0.197l0.152,-0.197l0.151,-0.198l0.151,-0.198l0.151,-0.199l0.15,-0.199l0.149,-0.199l0.148,-0.2l0.148,-0.201l0.148,-0.201l0.146,-0.201l0.147,-0.202l0.145,-0.202l0.145,-0.203l0.145,-0.203l0.144,-0.204l0.143,-0.204l0.142,-0.205l0.142,-0.205l0.142,-0.205l0.141,-0.206l0.14,-0.206l0.139,-0.207l0.139,-0.207l0.139,-0.208l0.138,-0.208l0.137,-0.209l0.136,-0.208l0.136,-0.21l0.136,-0.21l0.134,-0.21l0.134,-0.21l0.134,-0.212l0.133,-0.211l0.132,-0.212l0.131,-0.212l0.131,-0.213l0.131,-0.213l0.129,-0.214l0.13,-0.214l0.128,-0.214l0.128,-0.215l0.127,-0.215l0.127,-0.216l0.126,-0.216l0.125,-0.217l0.124,-0.216l0.124,-0.218l0.124,-0.217l0.123,-0.218l0.122,-0.219l0.121,-0.219l0.121,-0.219l0.12,-0.22l0.12,-0.22l0.118,-0.22l0.119,-0.221l0.117,-0.222l0.117,-0.221l0.116,-0.222l0.116,-0.223l0.115,-0.223l0.114,-0.223l0.114,-0.223l0.113,-0.224l0.112,-0.225l0.112,-0.225l0.111,-0.225l0.11,-0.225l0.11,-0.226l0.109,-0.226l0.108,-0.227l0.108,-0.227l0.107,-0.227l0.106,-0.228l0.106,-0.228l0.105,-0.229l0.104,-0.229l0.103,-0.229l0.103,-0.229l0.103,-0.23l0.101,-0.231l0.101,-0.23l0.1,-0.231l0.1,-0.232l0.099,-0.231l0.098,-0.232l0.097,-0.233l0.097,-0.233l0.096,-0.233l0.095,-0.233l0.095,-0.234l0.094,-0.234l0.093,-0.235l0.093,-0.235l0.092,-0.235l0.091,-0.236l0.091,-0.236l0.089,-0.236l0.089,-0.236l0.089,-0.237l0.087,-0.238l0.087,-0.237l0.087,-0.238l0.085,-0.238l0.085,-0.239l0.084,-0.239l0.084,-0.239l0.082,-0.24l0.082,-0.24l0.082,-0.24l0.08,-0.24l0.08,-0.241l0.079,-0.242l0.079,-0.241l0.077,-0.242l0.077,-0.242l0.076,-0.242l0.076,-0.243l0.075,-0.243l0.074,-0.244l0.073,-0.243l0.073,-0.244l0.072,-0.245l0.071,-0.244l0.07,-0.245l0.07,-0.246l0.069,-0.245l0.068,-0.246l0.067,-0.246l0.067,-0.247l0.066,-0.246l0.065,-0.247l0.064,-0.248l0.064,-0.247l0.063,-0.248l0.062,-0.249l0.062,-0.248l0.06,-0.249l0.06,-0.249l0.06,-0.249l0.058,-0.25l0.058,-0.25l0.057,-0.25l0.056,-0.251l0.055,-0.25l0.055,-0.251l0.054,-0.252l0.053,-0.251l0.052,-0.252l0.052,-0.252l0.051,-0.253l0.05,-0.253l0.049,-0.253l0.048,-0.253l0.048,-0.253l0.047,-0.254l0.046,-0.254l0.046,-0.254l0.044,-0.255l0.044,-0.255l0.043,-0.255l0.043,-0.255l0.041,-0.256l0.041,-0.256l0.04,-0.256l0.039,-0.256l0.038,-0.257l0.038,-0.257l0.037,-0.257l0.036,-0.257l0.035,-0.258l0.034,-0.258l0.034,-0.258l0.033,-0.258l0.032,-0.259l0.031,-0.258l0.03,-0.26l0.03,-0.259l0.029,-0.259l0.028,-0.26l0.027,-0.26l0.027,-0.26l0.025,-0.261l0.025,-0.261l0.024,-0.261l0.023,-0.261l0.022,-0.261l0.022,-0.262l0.021,-0.262l0.02,-0.262l0.019,-0.262l0.018,-0.262l0.017,-0.263l0.017,-0.263l0.016,-0.263l0.015,-0.264l0.014,-0.263l0.013,-0.264l0.013,-0.264l0.012,-0.264l0.01,-0.265l0.01,-0.265l0.01,-0.264l0.008,-0.265l0.007,-0.266l0.007,-0.265l0.006,-0.266l0.005,-0.266l0.004,-0.266l0.003,-0.266l0.003,-0.267l0.002,-0.266l0,-0.267l0,-0.267l-0.001,-0.268l0,-0.058l-0.001,-0.209l-0.002,-0.267l-0.004,-0.267l-0.004,-0.266l-0.005,-0.267l-0.005,-0.266l-0.007,-0.266l-0.007,-0.266l-0.009,-0.265l-0.009,-0.266l-0.01,-0.265l-0.01,-0.265l-0.012,-0.264l-0.012,-0.265l-0.014,-0.264l-0.014,-0.264l-0.015,-0.264l-0.015,-0.263l-0.017,-0.264l-0.017,-0.263l-0.018,-0.263l-0.019,-0.262l-0.02,-0.263l-0.021,-0.262l-0.021,-0.262l-0.023,-0.261l-0.023,-0.262l-0.024,-0.261l-0.024,-0.261l-0.026,-0.261l-0.026,-0.26l-0.027,-0.26l-0.028,-0.26l-0.029,-0.26l-0.029,-0.26l-0.031,-0.259l-0.031,-0.259l-0.032,-0.259l-0.033,-0.258l-0.033,-0.258l-0.034,-0.258l-0.036,-0.258l-0.036,-0.258l-0.036,-0.257l-0.038,-0.257l-0.038,-0.256l-0.039,-0.257l-0.04,-0.256l-0.041,-0.256l-0.041,-0.256l-0.042,-0.255l-0.043,-0.255l-0.044,-0.255l-0.044,-0.254l-0.046,-0.255l-0.046,-0.254l-0.047,-0.253l-0.047,-0.254l-0.049,-0.253l-0.049,-0.253l-0.05,-0.253l-0.051,-0.252l-0.051,-0.252l-0.052,-0.252l-0.053,-0.251l-0.054,-0.251l-0.055,-0.251l-0.055,-0.251l-0.056,-0.25l-0.057,-0.25l-0.057,-0.25l-0.059,-0.25l-0.059,-0.249l-0.06,-0.249l-0.06,-0.248l-0.061,-0.248l-0.063,-0.248l-0.062,-0.248l-0.064,-0.247l-0.064,-0.248l-0.065,-0.246l-0.066,-0.247l-0.067,-0.246l-0.067,-0.246l-0.068,-0.245l-0.069,-0.246l-0.069,-0.244l-0.07,-0.245l-0.071,-0.244l-0.072,-0.244l-0.072,-0.244l-0.073,-0.243l-0.074,-0.243l-0.075,-0.243l-0.075,-0.242l-0.076,-0.242l-0.077,-0.242l-0.078,-0.242l-0.078,-0.241l-0.079,-0.24l-0.079,-0.241l-0.081,-0.24l-0.081,-0.24l-0.081,-0.239l-0.083,-0.239l-0.083,-0.239l-0.084,-0.238l-0.085,-0.239l-0.085,-0.237l-0.086,-0.238l-0.087,-0.237l-0.087,-0.236l-0.088,-0.237l-0.089,-0.236l-0.09,-0.236l-0.09,-0.235l-0.091,-0.235l-0.092,-0.235l-0.092,-0.234l-0.093,-0.234l-0.094,-0.233l-0.094,-0.234l-0.095,-0.232l-0.096,-0.233l-0.096,-0.232l-0.097,-0.232l-0.098,-0.231l-0.099,-0.231l-0.099,-0.231l-0.1,-0.23l-0.1,-0.23l-0.102,-0.23l-0.102,-0.229l-0.102,-0.229l-0.103,-0.229l-0.104,-0.228l-0.105,-0.228l-0.105,-0.227l-0.106,-0.227l-0.107,-0.227l-0.107,-0.226l-0.108,-0.226l-0.108,-0.225l-0.11,-0.225l-0.11,-0.225l-0.11,-0.224l-0.111,-0.224l-0.112,-0.224l-0.113,-0.223l-0.113,-0.223l-0.114,-0.222l-0.114,-0.222l-0.116,-0.222l-0.115,-0.221l-0.117,-0.221l-0.117,-0.22l-0.118,-0.22l-0.118,-0.22l-0.071,-0.131l-0.048,-0.088l-0.119,-0.219l-0.121,-0.219l-0.12,-0.218l-0.122,-0.217l-0.122,-0.218l-0.122,-0.217l-0.124,-0.216l-0.123,-0.216l-0.125,-0.216l-0.125,-0.215l-0.126,-0.215l-0.126,-0.214l-0.127,-0.214l-0.128,-0.214l-0.128,-0.213l-0.129,-0.213l-0.13,-0.212l-0.13,-0.212l-0.131,-0.212l-0.131,-0.211l-0.132,-0.21l-0.133,-0.211l-0.133,-0.209l-0.134,-0.21l-0.135,-0.209l-0.135,-0.208l-0.135,-0.208l-0.137,-0.208l-0.137,-0.207l-0.137,-0.207l-0.138,-0.206l-0.139,-0.206l-0.139,-0.205l-0.14,-0.205l-0.141,-0.205l-0.141,-0.204l-0.141,-0.204l-0.143,-0.203l-0.143,-0.203l-0.143,-0.202l-0.144,-0.202l-0.145,-0.201l-0.145,-0.201l-0.146,-0.201l-0.146,-0.2l-0.147,-0.199l-0.148,-0.199l-0.148,-0.199l-0.149,-0.198l-0.149,-0.198l-0.15,-0.197l-0.151,-0.197l-0.151,-0.196l-0.151,-0.196l-0.153,-0.195l-0.152,-0.195l-0.154,-0.195l-0.154,-0.194l-0.154,-0.193l-0.155,-0.193l-0.156,-0.193l-0.156,-0.192l-0.157,-0.192l-0.157,-0.191l-0.158,-0.19l-0.158,-0.19l-0.159,-0.19l-0.095,-0.112l-0.065,-0.077l-0.16,-0.189l-0.16,-0.189l-0.161,-0.187l-0.162,-0.188l-0.162,-0.187l-0.162,-0.186l-0.164,-0.186l-0.163,-0.186l-0.165,-0.185l-0.165,-0.184l-0.165,-0.184l-0.166,-0.183l-0.166,-0.183l-0.167,-0.183l-0.168,-0.182l-0.168,-0.181l-0.168,-0.181l-0.17,-0.18l-0.169,-0.18l-0.17,-0.18l-0.171,-0.179l-0.171,-0.178l-0.172,-0.178l-0.172,-0.177l-0.173,-0.177l-0.174,-0.176l-0.174,-0.176l-0.174,-0.175l-0.175,-0.175l-0.175,-0.174l-0.176,-0.174l-0.177,-0.173l-0.177,-0.173l-0.177,-0.172l-0.178,-0.172l-0.179,-0.171l-0.179,-0.17l-0.179,-0.17l-0.18,-0.17l-0.181,-0.169l-0.181,-0.168l-0.182,-0.168l-0.182,-0.167l-0.182,-0.167l-0.183,-0.166l-0.184,-0.166l-0.184,-0.165l-0.184,-0.165l-0.185,-0.164l-0.186,-0.163l-0.186,-0.163l-0.187,-0.163l-0.187,-0.162l-0.187,-0.161l-0.188,-0.161l-0.189,-0.16l-0.12,-0.102l-0.068,-0.058l-0.189,-0.16l-0.189,-0.159l-0.19,-0.158l-0.191,-0.159l-0.19,-0.157l-0.192,-0.157l-0.191,-0.156l-0.193,-0.156l-0.192,-0.156l-0.194,-0.154l-0.193,-0.154l-0.194,-0.154l-0.195,-0.153l-0.195,-0.153l-0.196,-0.151l-0.196,-0.152l-0.196,-0.15l-0.032,-0.025l-0.164,-0.126l-0.197,-0.151l-0.197,-0.15l-0.198,-0.149l-0.198,-0.149l-0.198,-0.148l-0.199,-0.148l-0.2,-0.147l-0.2,-0.146l-0.2,-0.146l-0.201,-0.146l-0.201,-0.144l-0.202,-0.145l-0.202,-0.143l-0.203,-0.143l-0.203,-0.142l-0.204,-0.142l-0.204,-0.141l-0.083,-0.058l-0.121,-0.084l-0.204,-0.141l-0.204,-0.14l-0.206,-0.14l-0.205,-0.14l-0.206,-0.138l-0.206,-0.138l-0.207,-0.138l-0.208,-0.137l-0.207,-0.136l-0.208,-0.136l-0.209,-0.135l-0.209,-0.135l-0.21,-0.134l-0.21,-0.133l-0.21,-0.133l-0.211,-0.132l-0.211,-0.131l-0.212,-0.131l-0.212,-0.13l-0.212,-0.13l-0.213,-0.129l-0.214,-0.129l-0.213,-0.127l-0.215,-0.127l-0.214,-0.127l-0.215,-0.126l-0.216,-0.125l-0.216,-0.125l-0.216,-0.124l-0.217,-0.123l-0.217,-0.123l-0.218,-0.122l-0.218,-0.122l-0.218,-0.12l-0.219,-0.121l-0.219,-0.119l-0.22,-0.119l-0.006,-0.003l-0.213,-0.117l-0.22,-0.12l-0.22,-0.118l-0.22,-0.118l-0.221,-0.118l-0.221,-0.116l-0.222,-0.117l-0.222,-0.115l-0.223,-0.115l-0.223,-0.114l-0.223,-0.114l-0.224,-0.113l-0.224,-0.112l-0.224,-0.112l-0.225,-0.11l-0.226,-0.111l-0.225,-0.109l-0.226,-0.109l-0.227,-0.109l-0.227,-0.107l-0.227,-0.107l-0.228,-0.107l-0.228,-0.105l-0.228,-0.105l-0.229,-0.105l-0.23,-0.103l-0.229,-0.103l-0.23,-0.103l-0.231,-0.101l-0.231,-0.101l-0.231,-0.1l-0.231,-0.1l-0.232,-0.099l-0.233,-0.098l-0.232,-0.098l-0.233,-0.097l-0.234,-0.096l-0.234,-0.095l-0.234,-0.095l-0.234,-0.094l-0.235,-0.094l-0.236,-0.093l-0.235,-0.092l-0.237,-0.091l-0.236,-0.091l-0.237,-0.09l-0.237,-0.089l-0.237,-0.089l-0.238,-0.087l-0.239,-0.088l-0.238,-0.086l-0.239,-0.086l-0.239,-0.085l-0.24,-0.084l-0.24,-0.084l-0.24,-0.083l-0.241,-0.082l-0.241,-0.082l-0.242,-0.08l-0.241,-0.08l-0.243,-0.08l-0.242,-0.078l-0.243,-0.078l-0.243,-0.077l-0.243,-0.077l-0.244,-0.076l-0.244,-0.075l-0.245,-0.074l-0.245,-0.074l-0.245,-0.072l-0.246,-0.073l-0.245,-0.071l-0.161,-0.046l-0.085,-0.025l-0.246,-0.072l-0.247,-0.071l-0.247,-0.07l-0.247,-0.07l-0.247,-0.069l-0.248,-0.068l-0.248,-0.067l-0.248,-0.067l-0.249,-0.066l-0.249,-0.065l-0.249,-0.064l-0.25,-0.064l-0.25,-0.063l-0.251,-0.062l-0.25,-0.061l-0.251,-0.061l-0.252,-0.06l-0.251,-0.059l-0.252,-0.058l-0.253,-0.058l-0.252,-0.057l-0.253,-0.056l-0.254,-0.055l-0.253,-0.055l-0.254,-0.053l-0.254,-0.053l-0.255,-0.053l-0.255,-0.051l-0.255,-0.051l-0.255,-0.05l-0.256,-0.049l-0.256,-0.048l-0.257,-0.048l-0.256,-0.047l-0.257,-0.046l-0.258,-0.045l-0.257,-0.045l-0.258,-0.043l-0.258,-0.043l-0.259,-0.042l-0.259,-0.042l-0.259,-0.04l-0.259,-0.04l-0.26,-0.039l-0.26,-0.038l-0.26,-0.037l-0.261,-0.037l-0.26,-0.036l-0.261,-0.035l-0.262,-0.034l-0.262,-0.033l-0.262,-0.033l-0.262,-0.032l-0.262,-0.03l-0.263,-0.031l-0.263,-0.029l-0.264,-0.028l-0.263,-0.028l-0.264,-0.027l-0.264,-0.026l-0.265,-0.025l-0.265,-0.025l-0.265,-0.023l-0.265,-0.023l-0.265,-0.022l-0.266,-0.021l-0.266,-0.02l-0.267,-0.02l-0.266,-0.018l-0.267,-0.018l-0.267,-0.017l-0.268,-0.016l-0.267,-0.016l-0.268,-0.014l-0.268,-0.014l-0.269,-0.013l-0.268,-0.011l-0.269,-0.012l-0.27,-0.01l-0.269,-0.009l-0.234,-0.008l-0.036,-0.001l-0.271,-0.009l0,0l-0.268,-0.001l-0.27,0l-0.27,0.001Z" style="fill:#671f00;"/><ellipse cx="136.552" cy="61.824" rx="12.417" ry="15.239" style="fill:#fff;stroke:#671f00;stroke-width:1.71px;"/><path d="M118.786,71.302c0,0 -0.473,-7.021 1.361,-9.478c1.834,-2.456 4.594,4.779 4.594,4.779" style="fill:none;stroke:#671f00;stroke-width:1.71px;"/><ellipse cx="106.842" cy="75.615" rx="12.417" ry="15.239" style="fill:#fff;stroke:#671f00;stroke-width:1.71px;"/><path d="M147.083,53.297l3.815,-24.62" style="fill:none;stroke:#671f00;stroke-width:1.71px;"/><path d="M94.426,78.611l-90.557,-11.096" style="fill:none;stroke:#671f00;stroke-width:1.71px;"/><ellipse cx="136.552" cy="64.874" rx="4.828" ry="8.659" style="fill:#c1ff9e;"/><path d="M137.543,55.382l0.086,0.003l0.086,0.004l0.086,0.007l0.087,0.009l0.086,0.01l0.087,0.012l0.087,0.014l0.087,0.016l0.087,0.018l0.087,0.019l0.087,0.021l0.087,0.023l0.087,0.025l0.087,0.026l0.087,0.028l0.087,0.03l0.027,0.009l0.058,0.025l0.083,0.038l0.082,0.04l0.082,0.041l0.082,0.042l0.082,0.044l0.081,0.046l0.081,0.046l0.08,0.049l0.08,0.049l0.08,0.051l0.079,0.052l0.079,0.054l0.078,0.054l0.078,0.057l0.077,0.057l0.078,0.059l0.076,0.06l0.077,0.061l0.075,0.062l0.076,0.064l0.054,0.046l0.019,0.02l0.069,0.07l0.068,0.071l0.068,0.073l0.067,0.073l0.066,0.075l0.066,0.075l0.066,0.077l0.064,0.077l0.064,0.079l0.038,0.046l0.024,0.034l0.058,0.084l0.058,0.084l0.057,0.085l0.063,0.097l0.044,0.078l0.051,0.09l0.05,0.091l0.048,0.091l0.019,0.035l0.028,0.058l0.044,0.095l0.043,0.096l0.042,0.096l0.042,0.096l0.041,0.098l0.04,0.098l0.039,0.099l0.039,0.099l0.038,0.1l0.037,0.101l0.036,0.101l0.036,0.102l0.017,0.051l0.017,0.052l0.032,0.104l0.032,0.104l0.032,0.105l0.03,0.105l0.03,0.106l0.029,0.107l0.028,0.107l0.027,0.107l0.027,0.108l0.026,0.109l0.025,0.109l0.024,0.11l0.023,0.11l0.025,0.122l0.019,0.101l0.02,0.112l0.019,0.112l0.018,0.113l0.017,0.113l0.017,0.114l0.016,0.115l0.015,0.114l0.014,0.116l0.014,0.115l0.012,0.116l0.012,0.117l0.011,0.117l0.01,0.117l0.01,0.117l0.008,0.118l0.008,0.119l0.007,0.119l0.006,0.119l0.005,0.119l0.004,0.12l0.004,0.12l0.002,0.121l0.002,0.12l0.001,0.121l0,0.122l-0.001,0.122l-0.001,0.122l-0.003,0.122l-0.003,0.122l-0.005,0.123l-0.005,0.118l0,0.005l-0.007,0.123l-0.008,0.123l-0.009,0.122l-0.01,0.122l-0.011,0.121l-0.011,0.121l-0.012,0.12l-0.013,0.12l-0.014,0.119l-0.015,0.119l-0.015,0.118l-0.017,0.118l-0.017,0.117l-0.017,0.117l-0.019,0.116l-0.019,0.116l-0.02,0.115l-0.021,0.115l-0.022,0.114l-0.022,0.114l-0.023,0.113l-0.024,0.112l-0.025,0.112l-0.025,0.111l-0.026,0.111l-0.027,0.11l-0.027,0.109l-0.028,0.109l-0.029,0.108l-0.029,0.108l-0.031,0.106l-0.031,0.107l-0.031,0.105l-0.032,0.105l-0.033,0.105l-0.034,0.103l-0.034,0.103l-0.035,0.102l-0.036,0.102l-0.036,0.101l-0.037,0.1l-0.037,0.099l-0.039,0.099l-0.039,0.098l-0.039,0.097l-0.04,0.097l-0.041,0.096l-0.041,0.095l-0.042,0.094l-0.043,0.094l-0.043,0.092l-0.044,0.092l-0.044,0.091l-0.045,0.091l-0.046,0.089l-0.046,0.089l-0.047,0.088l-0.048,0.087l-0.048,0.086l-0.048,0.086l-0.05,0.084l-0.05,0.084l-0.05,0.083l-0.051,0.082l-0.052,0.081l-0.052,0.08l-0.053,0.08l-0.053,0.078l-0.054,0.078l-0.055,0.076l-0.055,0.076l-0.056,0.075l-0.056,0.074l-0.057,0.073l-0.058,0.071l-0.058,0.071l-0.058,0.07l-0.06,0.069l-0.06,0.068l-0.06,0.067l-0.061,0.066l-0.062,0.065l-0.062,0.064l-0.063,0.062l-0.063,0.062l-0.064,0.061l-0.062,0.056l-0.003,0.003l-0.065,0.058l-0.066,0.058l-0.067,0.056l-0.067,0.055l-0.068,0.053l-0.068,0.053l-0.069,0.051l-0.07,0.05l-0.07,0.049l-0.07,0.047l-0.072,0.047l-0.072,0.044l-0.072,0.044l-0.073,0.042l-0.074,0.041l-0.074,0.04l-0.075,0.038l-0.076,0.036l-0.076,0.035l-0.076,0.034l-0.077,0.032l-0.078,0.031l-0.078,0.029l-0.079,0.027l-0.079,0.026l-0.079,0.024l-0.08,0.022l-0.081,0.021l-0.08,0.019l-0.082,0.018l-0.081,0.015l-0.082,0.014l-0.082,0.012l-0.083,0.01l-0.082,0.009l-0.083,0.006l-0.083,0.005l-0.083,0.002l-0.084,0.001l-0.083,-0.001l-0.084,-0.003l-0.083,-0.004l-0.083,-0.007l-0.082,-0.009l-0.082,-0.01l-0.082,-0.012l-0.081,-0.014l-0.08,-0.016l-0.08,-0.018l-0.079,-0.019l-0.079,-0.021l-0.078,-0.023l-0.077,-0.024l-0.077,-0.026l-0.076,-0.028l-0.075,-0.029l-0.075,-0.03l-0.074,-0.033l-0.073,-0.033l-0.072,-0.035l-0.072,-0.037l-0.071,-0.038l-0.07,-0.039l-0.069,-0.041l-0.069,-0.042l-0.067,-0.043l-0.067,-0.045l-0.067,-0.046l-0.065,-0.047l-0.065,-0.048l-0.064,-0.05l-0.063,-0.05l-0.062,-0.052l-0.062,-0.053l-0.061,-0.054l-0.06,-0.055l-0.059,-0.057l-0.059,-0.057l-0.058,-0.058l-0.057,-0.06l-0.056,-0.06l-0.056,-0.061l-0.055,-0.063l-0.054,-0.063l-0.054,-0.064l-0.052,-0.066l-0.053,-0.066l-0.051,-0.067l-0.051,-0.068l-0.05,-0.069l-0.049,-0.07l-0.049,-0.07l-0.048,-0.072l-0.047,-0.072l-0.047,-0.074l-0.046,-0.074l-0.045,-0.075l-0.044,-0.075l-0.044,-0.077l-0.044,-0.077l-0.042,-0.079l-0.042,-0.079l-0.041,-0.08l-0.041,-0.08l-0.04,-0.081l-0.039,-0.083l-0.038,-0.082l-0.038,-0.084l-0.038,-0.084l-0.036,-0.085l-0.036,-0.086l-0.035,-0.087l-0.035,-0.087l-0.034,-0.088l-0.033,-0.088l-0.033,-0.09l-0.031,-0.089l-0.032,-0.091l-0.009,-0.027l-0.022,-0.064l-0.03,-0.092l-0.03,-0.092l-0.029,-0.093l-0.029,-0.094l-0.027,-0.094l-0.027,-0.095l-0.027,-0.095l-0.026,-0.096l-0.025,-0.097l-0.024,-0.097l-0.024,-0.098l-0.023,-0.098l-0.022,-0.099l-0.022,-0.1l-0.02,-0.1l-0.021,-0.1l-0.019,-0.101l-0.019,-0.102l-0.018,-0.102l-0.017,-0.103l-0.017,-0.103l-0.016,-0.103l-0.015,-0.105l-0.014,-0.104l-0.014,-0.105l-0.013,-0.106l-0.012,-0.106l-0.012,-0.106l-0.01,-0.107l-0.01,-0.107l-0.009,-0.108l-0.009,-0.108l-0.008,-0.108l-0.007,-0.109l-0.006,-0.109l-0.001,-0.027l-0.005,-0.083l-0.006,-0.11l-0.006,-0.11l-0.004,-0.111l-0.004,-0.11l-0.003,-0.112l-0.002,-0.111l-0.001,-0.112l-0.001,-0.113l0,-0.112l0.001,-0.113l0.002,-0.113l0.003,-0.114l0.003,-0.114l0.004,-0.114l0.005,-0.114l0.006,-0.113l0.007,-0.113l0.007,-0.113l0.008,-0.112l0.009,-0.112l0.01,-0.112l0.011,-0.111l0.011,-0.11l0.012,-0.11l0.012,-0.11l0.003,-0.019l0.007,-0.09l0.01,-0.109l0.011,-0.109l0.011,-0.108l0.012,-0.108l0.013,-0.107l0.014,-0.107l0.014,-0.106l0.015,-0.106l0.015,-0.105l0.017,-0.105l0.001,-0.01l0.013,-0.095l0.015,-0.104l0.015,-0.104l0.016,-0.103l0.017,-0.103l0.017,-0.102l0.019,-0.102l0.018,-0.101l0.02,-0.101l0.02,-0.1l0.021,-0.1l0.022,-0.099l0.022,-0.098l0.023,-0.098l0.007,-0.03l0.015,-0.068l0.022,-0.097l0.023,-0.097l0.024,-0.096l0.024,-0.095l0.025,-0.095l0.026,-0.095l0.026,-0.093l0.027,-0.094l0.027,-0.092l0.028,-0.092l0.029,-0.091l0.03,-0.091l0.03,-0.09l0.031,-0.089l0.031,-0.088l0.032,-0.088l0.033,-0.087l0.034,-0.087l0.034,-0.085l0.034,-0.085l0.035,-0.085l0.036,-0.083l0.037,-0.083l0.037,-0.082l0.038,-0.081l0.038,-0.081l0.039,-0.079l0.04,-0.079l0.04,-0.079l0.041,-0.077l0.041,-0.076l0.042,-0.076l0.043,-0.075l0.043,-0.074l0.039,-0.064l0.005,-0.009l0.044,-0.073l0.044,-0.073l0.044,-0.071l0.046,-0.071l0.046,-0.069l0.046,-0.069l0.048,-0.068l0.048,-0.067l0.048,-0.066l0.049,-0.065l0.05,-0.065l0.051,-0.063l0.051,-0.062l0.052,-0.062l0.052,-0.06l0.054,-0.06l0.053,-0.058l0.055,-0.058l0.055,-0.056l0.056,-0.055l0.057,-0.055l0.057,-0.053l0.058,-0.052l0.058,-0.051l0.06,-0.05l0.06,-0.049l0.06,-0.048l0.062,-0.046l0.062,-0.046l0.062,-0.044l0.064,-0.043l0.064,-0.042l0.065,-0.04l0.066,-0.039l0.066,-0.038l0.067,-0.037l0.067,-0.035l0.069,-0.034l0.069,-0.032l0.07,-0.031l0.07,-0.029l0.071,-0.029l0.072,-0.026l0.072,-0.025l0.073,-0.024l0.073,-0.022l0.075,-0.02l0.074,-0.019l0.076,-0.017l0.075,-0.015l0.077,-0.014l0.077,-0.012l0.077,-0.011l0.078,-0.008l0.078,-0.007l0.091,-0.007l0.024,-0.008l0.043,-0.012l0.08,-0.018l0.08,-0.016l0.081,-0.014l0.082,-0.013l0.083,-0.01l0.083,-0.009l0.084,-0.007l0.084,-0.004l0.084,-0.003l0.085,-0.001l0.085,0.001Zm-1.222,1.544l-0.046,0.002l-0.047,0.002l-0.046,0.004l-0.047,0.005l-0.047,0.005l-0.047,0.007l-0.047,0.008l-0.047,0.01l-0.047,0.01l-0.048,0.011l-0.048,0.013l-0.048,0.013l-0.048,0.015l-0.048,0.016l-0.048,0.017l-0.048,0.018l-0.049,0.019l-0.049,0.021l-0.048,0.021l-0.049,0.023l-0.049,0.024l-0.049,0.025l-0.049,0.026l-0.05,0.028l-0.049,0.029l-0.049,0.03l-0.049,0.031l-0.05,0.032l-0.049,0.033l-0.05,0.035l-0.049,0.036l-0.049,0.037l-0.049,0.038l-0.05,0.039l-0.049,0.041l-0.049,0.041l-0.049,0.043l-0.049,0.044l-0.048,0.045l-0.049,0.046l-0.048,0.048l-0.049,0.048l-0.048,0.05l-0.048,0.051l-0.048,0.051l-0.047,0.053l-0.048,0.054l-0.047,0.056l-0.047,0.056l-0.046,0.057l-0.047,0.058l-0.005,0.007l-0.04,0.053l-0.045,0.062l-0.044,0.062l-0.044,0.063l-0.044,0.064l-0.044,0.065l-0.043,0.066l-0.043,0.067l-0.042,0.069l-0.042,0.069l-0.042,0.07l-0.041,0.071l-0.041,0.071l-0.041,0.073l-0.04,0.074l-0.04,0.074l-0.039,0.076l-0.039,0.076l-0.038,0.077l-0.038,0.079l-0.038,0.079l-0.037,0.079l-0.036,0.081l-0.036,0.081l-0.036,0.083l-0.035,0.083l-0.035,0.084l-0.034,0.084l-0.034,0.086l-0.033,0.086l-0.033,0.087l-0.032,0.088l-0.031,0.089l-0.031,0.089l-0.031,0.09l-0.02,0.062l-0.009,0.029l-0.028,0.092l-0.026,0.092l-0.026,0.094l-0.026,0.094l-0.025,0.094l-0.024,0.096l-0.024,0.096l-0.023,0.096l-0.023,0.097l-0.022,0.098l-0.021,0.098l-0.02,0.099l-0.02,0.1l-0.018,0.09l-0.001,0.01l-0.016,0.101l-0.015,0.102l-0.014,0.102l-0.013,0.103l-0.013,0.103l-0.012,0.103l-0.011,0.104l-0.011,0.105l-0.01,0.105l-0.009,0.105l-0.007,0.087l-0.001,0.019l-0.003,0.107l-0.003,0.107l-0.002,0.107l-0.001,0.108l0,0.107l0,0.109l0.001,0.108l0.002,0.109l0.003,0.109l0.003,0.11l0.005,0.109l0.005,0.11l0.005,0.109l0.007,0.109l0.007,0.108l0.008,0.108l0.009,0.108l0.01,0.107l0.01,0.107l0.011,0.106l0.011,0.105l0.013,0.106l0.013,0.104l0.014,0.105l0.014,0.103l0.016,0.103l0.017,0.103l0.018,0.102l0.018,0.101l0.019,0.101l0.02,0.1l0.021,0.1l0.021,0.099l0.022,0.099l0.022,0.098l0.023,0.097l0.024,0.096l0.024,0.096l0.025,0.096l0.025,0.094l0.026,0.095l0.027,0.093l0.027,0.093l0.028,0.091l0.028,0.092l0.029,0.09l0.029,0.09l0.03,0.089l0.031,0.089l0.031,0.087l0.031,0.087l0.032,0.086l0.033,0.086l0.033,0.084l0.033,0.084l0.034,0.083l0.035,0.082l0.034,0.082l0.036,0.08l0.036,0.08l0.036,0.079l0.037,0.078l0.038,0.077l0.038,0.076l0.039,0.075l0.039,0.074l0.039,0.073l0.04,0.073l0.04,0.071l0.04,0.071l0.041,0.069l0.041,0.069l0.042,0.067l0.042,0.067l0.042,0.066l0.043,0.065l0.042,0.063l0.044,0.063l0.043,0.062l0.044,0.06l0.043,0.06l0.045,0.058l0.044,0.058l0.045,0.056l0.045,0.056l0.045,0.054l0.045,0.053l0.045,0.053l0.046,0.051l0.046,0.05l0.045,0.048l0.046,0.048l0.047,0.047l0.046,0.045l0.046,0.045l0.046,0.043l0.047,0.042l0.046,0.041l0.047,0.039l0.047,0.039l0.046,0.037l0.047,0.037l0.046,0.035l0.047,0.034l0.046,0.032l0.047,0.032l0.046,0.03l0.046,0.029l0.046,0.029l0.046,0.026l0.046,0.026l0.046,0.025l0.046,0.023l0.045,0.023l0.045,0.021l0.045,0.02l0.045,0.019l0.045,0.017l0.045,0.017l0.044,0.016l0.044,0.014l0.044,0.014l0.044,0.012l0.043,0.011l0.043,0.011l0.043,0.009l0.043,0.008l0.043,0.007l0.043,0.007l0.042,0.005l0.042,0.004l0.042,0.003l0.042,0.003l0.042,0.001l0.041,0l0.042,0l0.041,-0.002l0.042,-0.002l0.041,-0.004l0.042,-0.004l0.041,-0.005l0.04,-0.006l0.041,-0.007l0.04,-0.008l0.04,-0.009l0.039,-0.01l0.04,-0.011l0.039,-0.011l0.039,-0.013l0.039,-0.013l0.039,-0.014l0.039,-0.015l0.038,-0.016l0.039,-0.017l0.038,-0.018l0.039,-0.019l0.038,-0.02l0.039,-0.02l0.038,-0.022l0.038,-0.022l0.039,-0.024l0.038,-0.024l0.038,-0.026l0.038,-0.026l0.038,-0.028l0.039,-0.028l0.038,-0.03l0.038,-0.03l0.038,-0.032l0.038,-0.032l0.038,-0.034l0.037,-0.034l0.038,-0.036l0.038,-0.036l0.037,-0.038l0.038,-0.039l0.037,-0.04l0.037,-0.04l0.037,-0.042l0.037,-0.043l0.002,-0.002l0.035,-0.042l0.037,-0.044l0.036,-0.046l0.036,-0.047l0.037,-0.048l0.035,-0.049l0.036,-0.049l0.036,-0.051l0.035,-0.052l0.035,-0.053l0.034,-0.054l0.035,-0.054l0.034,-0.056l0.034,-0.057l0.033,-0.058l0.033,-0.058l0.033,-0.06l0.033,-0.06l0.032,-0.061l0.032,-0.063l0.032,-0.063l0.031,-0.064l0.03,-0.065l0.031,-0.066l0.03,-0.066l0.029,-0.068l0.03,-0.068l0.028,-0.069l0.029,-0.07l0.028,-0.071l0.027,-0.072l0.027,-0.072l0.027,-0.073l0.026,-0.074l0.025,-0.075l0.025,-0.076l0.025,-0.076l0.024,-0.077l0.024,-0.078l0.023,-0.078l0.023,-0.079l0.022,-0.08l0.022,-0.081l0.021,-0.081l0.02,-0.082l0.02,-0.082l0.02,-0.084l0.019,-0.083l0.018,-0.085l0.018,-0.085l0.017,-0.086l0.017,-0.086l0.016,-0.087l0.015,-0.087l0.015,-0.088l0.014,-0.089l0.014,-0.089l0.013,-0.089l0.013,-0.091l0.011,-0.09l0.012,-0.091l0.01,-0.092l0.01,-0.092l0.01,-0.093l0.008,-0.093l0.008,-0.093l0.008,-0.094l0.006,-0.095l0.006,-0.094l0.006,-0.096l0.005,-0.095l0.004,-0.096l0.003,-0.097l0.003,-0.097l0.002,-0.097l0.001,-0.097l0.001,-0.098l0,-0.098l-0.001,-0.099l-0.001,-0.098l-0.002,-0.099l-0.003,-0.1l-0.004,-0.099l-0.004,-0.1l-0.005,-0.101l-0.006,-0.1l-0.006,-0.101l-0.001,-0.004l-0.005,-0.096l-0.007,-0.1l-0.007,-0.1l-0.008,-0.099l-0.009,-0.099l-0.01,-0.099l-0.01,-0.098l-0.01,-0.097l-0.012,-0.097l-0.012,-0.097l-0.012,-0.096l-0.014,-0.095l-0.013,-0.095l-0.015,-0.095l-0.015,-0.094l-0.016,-0.093l-0.016,-0.093l-0.017,-0.092l-0.018,-0.092l-0.018,-0.091l-0.018,-0.09l-0.02,-0.09l-0.019,-0.089l-0.021,-0.089l-0.021,-0.088l-0.021,-0.087l-0.022,-0.087l-0.023,-0.086l-0.023,-0.085l-0.023,-0.085l-0.024,-0.084l-0.022,-0.075l-0.002,-0.008l-0.024,-0.083l-0.025,-0.082l-0.024,-0.082l-0.026,-0.08l-0.025,-0.08l-0.026,-0.079l-0.027,-0.079l-0.027,-0.077l-0.028,-0.077l-0.027,-0.076l-0.029,-0.076l-0.028,-0.074l-0.03,-0.074l-0.029,-0.072l-0.015,-0.036l-0.014,-0.036l-0.029,-0.072l-0.03,-0.071l-0.029,-0.069l-0.03,-0.069l-0.031,-0.068l-0.03,-0.068l-0.032,-0.066l-0.031,-0.065l-0.031,-0.065l-0.032,-0.063l-0.033,-0.063l-0.032,-0.061l-0.02,-0.038l-0.011,-0.024l-0.03,-0.061l-0.03,-0.06l-0.03,-0.06l-0.026,-0.051l-0.003,-0.008l-0.027,-0.06l-0.026,-0.059l-0.027,-0.058l-0.027,-0.058l-0.012,-0.023l-0.013,-0.035l-0.023,-0.059l-0.023,-0.057l-0.024,-0.057l-0.024,-0.056l-0.024,-0.055l-0.025,-0.054l-0.025,-0.054l-0.025,-0.052l-0.025,-0.051l-0.007,-0.015l-0.015,-0.039l-0.02,-0.054l-0.021,-0.054l-0.022,-0.052l-0.021,-0.052l-0.022,-0.051l-0.023,-0.05l-0.022,-0.049l-0.024,-0.049l-0.023,-0.047l-0.024,-0.047l-0.024,-0.046l-0.024,-0.045l-0.025,-0.044l-0.025,-0.043l-0.026,-0.043l-0.025,-0.042l-0.027,-0.041l-0.026,-0.04l-0.027,-0.039l-0.027,-0.038l-0.018,-0.026l-0.008,-0.014l-0.024,-0.042l-0.025,-0.041l-0.025,-0.04l-0.026,-0.04l-0.027,-0.04l-0.027,-0.038l-0.028,-0.038l-0.028,-0.037l-0.029,-0.036l-0.03,-0.036l-0.03,-0.035l-0.031,-0.034l-0.031,-0.033l-0.033,-0.033l-0.033,-0.032l-0.034,-0.032l-0.035,-0.03l-0.035,-0.03l-0.037,-0.029l-0.037,-0.028l-0.038,-0.028l-0.04,-0.027l-0.04,-0.026l-0.041,-0.025l-0.042,-0.024l-0.044,-0.023l-0.044,-0.022l-0.032,-0.013l-0.022,-0.01l0,-0.001l-0.038,-0.003l-0.046,-0.002l-0.046,-0.002l-0.046,-0.001l-0.047,0.001Z" style="fill:#671f00;"/><path d="M136.923,55.179c1.38,0 2.62,2.474 2.62,4.164c0,1.691 -0.736,8.231 -4.979,6.761c-1.814,-0.629 -1.949,-4.627 -1.949,-6.317c0,-1.691 2.928,-4.608 4.308,-4.608Z" style="fill:#fff;stroke:#671f00;stroke-width:0.6px;"/><ellipse cx="107.294" cy="78.962" rx="4.828" ry="8.659" style="fill:#c1ff9e;"/><path d="M108.285,69.469l0.086,0.003l0.086,0.005l0.086,0.006l0.086,0.009l0.087,0.01l0.087,0.012l0.086,0.014l0.087,0.016l0.088,0.018l0.087,0.019l0.087,0.021l0.087,0.023l0.087,0.025l0.087,0.026l0.087,0.028l0.087,0.03l0.027,0.01l0.057,0.025l0.083,0.038l0.083,0.039l0.082,0.041l0.082,0.043l0.081,0.044l0.082,0.045l0.08,0.047l0.081,0.048l0.08,0.049l0.079,0.051l0.079,0.052l0.079,0.054l0.079,0.055l0.078,0.056l0.077,0.057l0.077,0.059l0.077,0.06l0.076,0.061l0.076,0.062l0.075,0.064l0.054,0.047l0.02,0.019l0.069,0.07l0.068,0.072l0.067,0.072l0.067,0.073l0.067,0.075l0.066,0.075l0.065,0.077l0.065,0.077l0.064,0.079l0.037,0.046l0.025,0.035l0.058,0.083l0.057,0.084l0.057,0.085l0.064,0.098l0.044,0.077l0.05,0.09l0.05,0.091l0.049,0.091l0.018,0.035l0.028,0.059l0.044,0.095l0.043,0.095l0.043,0.096l0.041,0.097l0.041,0.097l0.04,0.098l0.04,0.099l0.038,0.1l0.038,0.1l0.037,0.1l0.037,0.102l0.035,0.102l0.017,0.051l0.017,0.051l0.033,0.104l0.032,0.104l0.031,0.105l0.031,0.105l0.029,0.106l0.029,0.107l0.028,0.107l0.028,0.108l0.026,0.108l0.026,0.108l0.025,0.11l0.024,0.109l0.024,0.111l0.025,0.121l0.018,0.101l0.02,0.112l0.019,0.112l0.019,0.113l0.017,0.114l0.017,0.114l0.016,0.114l0.015,0.115l0.014,0.115l0.013,0.116l0.013,0.116l0.012,0.116l0.011,0.117l0.01,0.117l0.009,0.118l0.009,0.118l0.008,0.118l0.006,0.119l0.006,0.119l0.006,0.119l0.004,0.12l0.003,0.12l0.003,0.121l0.002,0.121l0.001,0.121l0,0.121l-0.001,0.122l-0.002,0.122l-0.002,0.122l-0.004,0.123l-0.004,0.123l-0.005,0.117l0,0.006l-0.008,0.123l-0.008,0.122l-0.009,0.122l-0.009,0.122l-0.011,0.121l-0.012,0.121l-0.012,0.12l-0.013,0.12l-0.014,0.119l-0.014,0.119l-0.016,0.119l-0.016,0.117l-0.017,0.118l-0.018,0.117l-0.018,0.116l-0.02,0.116l-0.02,0.115l-0.021,0.114l-0.021,0.114l-0.023,0.114l-0.023,0.113l-0.023,0.112l-0.025,0.112l-0.025,0.111l-0.026,0.111l-0.027,0.11l-0.027,0.109l-0.028,0.109l-0.029,0.108l-0.03,0.108l-0.03,0.107l-0.031,0.106l-0.032,0.106l-0.032,0.105l-0.033,0.104l-0.033,0.104l-0.035,0.103l-0.035,0.102l-0.035,0.101l-0.036,0.101l-0.037,0.1l-0.038,0.1l-0.038,0.099l-0.039,0.098l-0.039,0.097l-0.041,0.096l-0.04,0.096l-0.042,0.095l-0.042,0.094l-0.042,0.094l-0.043,0.093l-0.044,0.092l-0.045,0.091l-0.045,0.09l-0.045,0.09l-0.047,0.088l-0.047,0.088l-0.047,0.087l-0.048,0.087l-0.049,0.085l-0.049,0.085l-0.05,0.084l-0.051,0.082l-0.051,0.082l-0.051,0.082l-0.052,0.08l-0.053,0.079l-0.054,0.079l-0.054,0.077l-0.054,0.077l-0.055,0.075l-0.056,0.075l-0.057,0.074l-0.057,0.073l-0.057,0.072l-0.058,0.071l-0.059,0.07l-0.059,0.069l-0.06,0.068l-0.061,0.066l-0.061,0.066l-0.061,0.065l-0.063,0.064l-0.062,0.063l-0.064,0.061l-0.064,0.061l-0.061,0.056l-0.004,0.004l-0.065,0.058l-0.066,0.057l-0.066,0.056l-0.067,0.055l-0.068,0.054l-0.069,0.052l-0.068,0.051l-0.07,0.05l-0.07,0.049l-0.071,0.048l-0.071,0.046l-0.072,0.045l-0.073,0.043l-0.073,0.043l-0.073,0.04l-0.075,0.04l-0.075,0.038l-0.075,0.037l-0.076,0.035l-0.077,0.033l-0.077,0.032l-0.077,0.031l-0.078,0.029l-0.079,0.027l-0.079,0.026l-0.08,0.024l-0.08,0.023l-0.08,0.021l-0.081,0.019l-0.081,0.017l-0.082,0.016l-0.081,0.013l-0.083,0.012l-0.082,0.011l-0.083,0.008l-0.083,0.006l-0.083,0.005l-0.083,0.003l-0.083,0.001l-0.084,-0.001l-0.083,-0.003l-0.083,-0.005l-0.083,-0.007l-0.083,-0.008l-0.081,-0.011l-0.082,-0.012l-0.081,-0.014l-0.08,-0.016l-0.08,-0.017l-0.08,-0.02l-0.078,-0.021l-0.078,-0.022l-0.078,-0.025l-0.076,-0.026l-0.076,-0.027l-0.076,-0.029l-0.074,-0.031l-0.074,-0.032l-0.073,-0.034l-0.073,-0.035l-0.071,-0.037l-0.071,-0.038l-0.07,-0.039l-0.069,-0.041l-0.069,-0.042l-0.068,-0.043l-0.067,-0.045l-0.066,-0.045l-0.065,-0.048l-0.065,-0.048l-0.064,-0.049l-0.063,-0.051l-0.063,-0.052l-0.061,-0.053l-0.061,-0.054l-0.06,-0.055l-0.06,-0.056l-0.058,-0.057l-0.058,-0.059l-0.057,-0.059l-0.057,-0.061l-0.055,-0.061l-0.055,-0.062l-0.054,-0.064l-0.054,-0.064l-0.053,-0.065l-0.052,-0.066l-0.051,-0.067l-0.051,-0.068l-0.05,-0.069l-0.05,-0.07l-0.048,-0.071l-0.048,-0.071l-0.047,-0.073l-0.047,-0.073l-0.046,-0.074l-0.045,-0.075l-0.045,-0.076l-0.044,-0.077l-0.043,-0.077l-0.042,-0.078l-0.042,-0.079l-0.042,-0.08l-0.04,-0.081l-0.04,-0.081l-0.039,-0.082l-0.039,-0.083l-0.038,-0.084l-0.037,-0.084l-0.037,-0.085l-0.036,-0.086l-0.035,-0.086l-0.034,-0.087l-0.034,-0.088l-0.033,-0.089l-0.033,-0.089l-0.032,-0.09l-0.031,-0.091l-0.009,-0.026l-0.022,-0.065l-0.031,-0.091l-0.029,-0.093l-0.029,-0.093l-0.029,-0.093l-0.028,-0.094l-0.027,-0.095l-0.026,-0.096l-0.026,-0.096l-0.025,-0.096l-0.024,-0.098l-0.024,-0.097l-0.023,-0.099l-0.022,-0.099l-0.022,-0.099l-0.021,-0.1l-0.02,-0.101l-0.019,-0.101l-0.019,-0.102l-0.018,-0.102l-0.018,-0.102l-0.016,-0.103l-0.016,-0.104l-0.015,-0.104l-0.015,-0.105l-0.013,-0.105l-0.013,-0.105l-0.012,-0.106l-0.012,-0.107l-0.011,-0.106l-0.01,-0.108l-0.009,-0.107l-0.008,-0.108l-0.008,-0.109l-0.007,-0.109l-0.006,-0.109l-0.001,-0.027l-0.006,-0.082l-0.006,-0.11l-0.005,-0.111l-0.005,-0.11l-0.003,-0.111l-0.003,-0.111l-0.002,-0.112l-0.002,-0.112l0,-0.112l0,-0.113l0.001,-0.113l0.002,-0.113l0.002,-0.113l0.004,-0.114l0.004,-0.114l0.005,-0.114l0.006,-0.114l0.006,-0.113l0.008,-0.113l0.008,-0.112l0.009,-0.112l0.01,-0.111l0.01,-0.111l0.011,-0.111l0.012,-0.11l0.013,-0.11l0.002,-0.019l0.008,-0.09l0.01,-0.109l0.01,-0.109l0.012,-0.108l0.012,-0.107l0.013,-0.108l0.013,-0.106l0.014,-0.107l0.015,-0.105l0.016,-0.106l0.016,-0.104l0.002,-0.01l0.013,-0.095l0.014,-0.104l0.016,-0.104l0.016,-0.104l0.017,-0.102l0.017,-0.103l0.018,-0.101l0.019,-0.102l0.02,-0.1l0.02,-0.101l0.021,-0.099l0.021,-0.099l0.023,-0.099l0.022,-0.098l0.008,-0.03l0.015,-0.067l0.022,-0.098l0.023,-0.096l0.023,-0.097l0.025,-0.095l0.025,-0.095l0.025,-0.094l0.026,-0.094l0.027,-0.093l0.028,-0.093l0.028,-0.092l0.029,-0.091l0.029,-0.09l0.031,-0.09l0.03,-0.089l0.032,-0.089l0.032,-0.088l0.033,-0.087l0.033,-0.086l0.034,-0.086l0.035,-0.085l0.035,-0.084l0.036,-0.084l0.036,-0.083l0.038,-0.082l0.037,-0.081l0.039,-0.08l0.039,-0.08l0.039,-0.079l0.041,-0.078l0.04,-0.078l0.042,-0.076l0.042,-0.076l0.043,-0.075l0.043,-0.074l0.039,-0.064l0.005,-0.009l0.043,-0.073l0.044,-0.072l0.045,-0.072l0.045,-0.07l0.046,-0.07l0.047,-0.069l0.047,-0.068l0.048,-0.067l0.049,-0.066l0.049,-0.065l0.05,-0.064l0.05,-0.064l0.052,-0.062l0.051,-0.061l0.053,-0.061l0.053,-0.059l0.054,-0.059l0.055,-0.057l0.055,-0.057l0.056,-0.055l0.056,-0.054l0.057,-0.054l0.058,-0.052l0.059,-0.051l0.059,-0.05l0.06,-0.049l0.061,-0.047l0.061,-0.047l0.062,-0.045l0.063,-0.045l0.064,-0.042l0.064,-0.042l0.065,-0.041l0.065,-0.039l0.066,-0.038l0.067,-0.036l0.068,-0.035l0.068,-0.034l0.069,-0.033l0.07,-0.031l0.071,-0.029l0.071,-0.028l0.071,-0.027l0.073,-0.025l0.072,-0.023l0.074,-0.022l0.074,-0.021l0.075,-0.018l0.075,-0.018l0.076,-0.015l0.076,-0.014l0.077,-0.012l0.077,-0.01l0.078,-0.009l0.078,-0.007l0.092,-0.006l0.024,-0.008l0.042,-0.012l0.08,-0.018l0.081,-0.017l0.081,-0.014l0.082,-0.012l0.083,-0.011l0.083,-0.008l0.083,-0.007l0.084,-0.005l0.085,-0.003l0.085,-0.001l0.085,0.001Zm-1.222,1.544l-0.046,0.002l-0.047,0.003l-0.047,0.003l-0.046,0.005l-0.047,0.006l-0.047,0.007l-0.047,0.008l-0.047,0.009l-0.048,0.01l-0.047,0.012l-0.048,0.012l-0.048,0.014l-0.048,0.014l-0.048,0.016l-0.048,0.017l-0.049,0.018l-0.048,0.019l-0.049,0.021l-0.049,0.022l-0.049,0.022l-0.049,0.024l-0.049,0.025l-0.049,0.027l-0.049,0.027l-0.049,0.029l-0.05,0.03l-0.049,0.031l-0.049,0.032l-0.05,0.034l-0.049,0.034l-0.049,0.036l-0.05,0.037l-0.049,0.038l-0.049,0.04l-0.049,0.04l-0.049,0.042l-0.049,0.042l-0.049,0.044l-0.049,0.045l-0.048,0.047l-0.049,0.047l-0.048,0.049l-0.048,0.049l-0.048,0.051l-0.048,0.052l-0.048,0.053l-0.047,0.054l-0.047,0.055l-0.047,0.056l-0.047,0.057l-0.046,0.059l-0.006,0.007l-0.04,0.053l-0.044,0.061l-0.045,0.062l-0.044,0.063l-0.044,0.064l-0.043,0.066l-0.043,0.066l-0.043,0.067l-0.043,0.068l-0.042,0.069l-0.041,0.07l-0.042,0.071l-0.041,0.072l-0.04,0.073l-0.04,0.073l-0.04,0.075l-0.039,0.075l-0.039,0.077l-0.038,0.077l-0.038,0.078l-0.038,0.079l-0.037,0.08l-0.037,0.08l-0.036,0.082l-0.035,0.082l-0.036,0.083l-0.034,0.084l-0.035,0.085l-0.033,0.085l-0.033,0.087l-0.033,0.087l-0.032,0.087l-0.032,0.089l-0.031,0.089l-0.03,0.09l-0.021,0.063l-0.009,0.028l-0.027,0.092l-0.027,0.093l-0.026,0.093l-0.025,0.094l-0.025,0.095l-0.025,0.095l-0.023,0.096l-0.024,0.096l-0.022,0.098l-0.022,0.097l-0.021,0.099l-0.021,0.099l-0.02,0.099l-0.017,0.091l-0.002,0.009l-0.015,0.102l-0.015,0.101l-0.014,0.102l-0.014,0.103l-0.012,0.103l-0.012,0.104l-0.012,0.104l-0.01,0.104l-0.01,0.105l-0.009,0.106l-0.007,0.087l-0.001,0.019l-0.004,0.106l-0.002,0.107l-0.002,0.107l-0.001,0.108l-0.001,0.108l0.001,0.108l0.001,0.109l0.002,0.108l0.002,0.11l0.004,0.109l0.004,0.11l0.005,0.109l0.006,0.11l0.007,0.108l0.007,0.109l0.008,0.108l0.009,0.107l0.009,0.107l0.01,0.107l0.011,0.106l0.012,0.106l0.012,0.105l0.013,0.105l0.014,0.104l0.015,0.104l0.015,0.103l0.017,0.102l0.018,0.102l0.019,0.102l0.019,0.101l0.02,0.1l0.02,0.1l0.022,0.099l0.021,0.098l0.023,0.098l0.023,0.097l0.023,0.097l0.025,0.096l0.024,0.095l0.026,0.095l0.026,0.094l0.026,0.093l0.028,0.093l0.027,0.092l0.029,0.091l0.028,0.091l0.03,0.09l0.03,0.089l0.03,0.088l0.031,0.088l0.032,0.087l0.032,0.086l0.032,0.085l0.033,0.085l0.034,0.083l0.034,0.083l0.034,0.083l0.035,0.081l0.035,0.081l0.036,0.079l0.037,0.079l0.037,0.078l0.037,0.077l0.039,0.076l0.038,0.075l0.039,0.074l0.04,0.074l0.039,0.072l0.04,0.071l0.041,0.071l0.041,0.069l0.041,0.069l0.042,0.068l0.041,0.066l0.043,0.066l0.042,0.065l0.043,0.064l0.043,0.062l0.044,0.062l0.043,0.061l0.044,0.059l0.044,0.059l0.045,0.057l0.044,0.057l0.045,0.055l0.045,0.055l0.045,0.053l0.046,0.052l0.045,0.051l0.046,0.05l0.046,0.049l0.046,0.048l0.046,0.046l0.046,0.046l0.047,0.044l0.046,0.043l0.047,0.042l0.046,0.041l0.047,0.04l0.046,0.038l0.047,0.038l0.046,0.036l0.047,0.035l0.046,0.034l0.047,0.033l0.046,0.031l0.047,0.031l0.046,0.029l0.046,0.028l0.046,0.027l0.046,0.026l0.046,0.024l0.045,0.024l0.046,0.022l0.045,0.021l0.045,0.02l0.045,0.019l0.045,0.018l0.044,0.017l0.045,0.015l0.044,0.015l0.044,0.013l0.043,0.012l0.044,0.012l0.043,0.01l0.043,0.009l0.043,0.009l0.043,0.007l0.042,0.006l0.042,0.005l0.043,0.004l0.042,0.004l0.042,0.002l0.041,0.001l0.042,0.001l0.042,-0.001l0.041,-0.001l0.042,-0.003l0.041,-0.003l0.041,-0.005l0.041,-0.005l0.041,-0.006l0.04,-0.007l0.04,-0.008l0.04,-0.009l0.04,-0.01l0.039,-0.01l0.04,-0.012l0.039,-0.012l0.039,-0.014l0.039,-0.014l0.038,-0.015l0.039,-0.016l0.039,-0.017l0.038,-0.018l0.039,-0.019l0.038,-0.019l0.038,-0.021l0.039,-0.021l0.038,-0.023l0.038,-0.024l0.038,-0.024l0.039,-0.026l0.038,-0.026l0.038,-0.027l0.038,-0.029l0.038,-0.029l0.038,-0.031l0.038,-0.031l0.038,-0.033l0.038,-0.033l0.038,-0.035l0.038,-0.035l0.037,-0.037l0.038,-0.038l0.037,-0.038l0.038,-0.04l0.037,-0.041l0.037,-0.042l0.037,-0.042l0.002,-0.003l0.035,-0.041l0.036,-0.045l0.037,-0.046l0.036,-0.047l0.036,-0.047l0.036,-0.049l0.036,-0.05l0.035,-0.051l0.035,-0.052l0.035,-0.053l0.035,-0.053l0.034,-0.055l0.034,-0.056l0.034,-0.056l0.034,-0.058l0.033,-0.059l0.033,-0.059l0.033,-0.061l0.032,-0.061l0.032,-0.062l0.031,-0.063l0.031,-0.064l0.031,-0.065l0.03,-0.066l0.03,-0.067l0.03,-0.067l0.029,-0.069l0.029,-0.069l0.028,-0.07l0.028,-0.071l0.028,-0.071l0.027,-0.073l0.026,-0.073l0.026,-0.074l0.026,-0.075l0.025,-0.075l0.025,-0.077l0.024,-0.077l0.024,-0.077l0.023,-0.079l0.022,-0.079l0.023,-0.08l0.021,-0.08l0.021,-0.082l0.021,-0.081l0.02,-0.083l0.019,-0.083l0.019,-0.084l0.019,-0.084l0.017,-0.086l0.018,-0.085l0.016,-0.086l0.016,-0.087l0.016,-0.088l0.015,-0.088l0.014,-0.088l0.014,-0.089l0.013,-0.09l0.012,-0.09l0.012,-0.091l0.011,-0.091l0.011,-0.092l0.01,-0.092l0.009,-0.092l0.009,-0.093l0.008,-0.094l0.007,-0.094l0.007,-0.094l0.006,-0.095l0.006,-0.095l0.004,-0.096l0.004,-0.096l0.004,-0.096l0.003,-0.097l0.002,-0.097l0.001,-0.098l0.001,-0.098l0,-0.098l-0.001,-0.098l-0.002,-0.099l-0.002,-0.099l-0.003,-0.099l-0.003,-0.1l-0.004,-0.1l-0.005,-0.1l-0.006,-0.101l-0.007,-0.1l0,-0.005l-0.006,-0.096l-0.006,-0.1l-0.008,-0.1l-0.008,-0.099l-0.009,-0.099l-0.009,-0.098l-0.01,-0.098l-0.011,-0.098l-0.011,-0.097l-0.012,-0.096l-0.013,-0.096l-0.013,-0.096l-0.014,-0.095l-0.014,-0.094l-0.016,-0.094l-0.015,-0.094l-0.017,-0.092l-0.017,-0.093l-0.017,-0.091l-0.018,-0.091l-0.019,-0.091l-0.019,-0.09l-0.02,-0.089l-0.02,-0.089l-0.021,-0.088l-0.022,-0.087l-0.021,-0.087l-0.023,-0.086l-0.023,-0.085l-0.023,-0.085l-0.024,-0.084l-0.023,-0.075l-0.002,-0.008l-0.024,-0.083l-0.024,-0.082l-0.025,-0.081l-0.025,-0.081l-0.026,-0.08l-0.026,-0.079l-0.026,-0.078l-0.027,-0.078l-0.028,-0.077l-0.028,-0.076l-0.028,-0.075l-0.029,-0.075l-0.029,-0.073l-0.029,-0.073l-0.015,-0.036l-0.015,-0.036l-0.029,-0.072l-0.029,-0.07l-0.03,-0.07l-0.03,-0.069l-0.03,-0.068l-0.031,-0.067l-0.031,-0.067l-0.031,-0.065l-0.032,-0.064l-0.032,-0.064l-0.032,-0.062l-0.032,-0.062l-0.021,-0.038l-0.011,-0.023l-0.029,-0.062l-0.03,-0.06l-0.03,-0.06l-0.026,-0.05l-0.004,-0.008l-0.026,-0.061l-0.027,-0.059l-0.026,-0.058l-0.028,-0.057l-0.011,-0.024l-0.013,-0.035l-0.023,-0.058l-0.024,-0.058l-0.023,-0.057l-0.024,-0.056l-0.024,-0.055l-0.025,-0.054l-0.025,-0.053l-0.025,-0.053l-0.026,-0.051l-0.007,-0.014l-0.014,-0.04l-0.021,-0.054l-0.021,-0.053l-0.021,-0.053l-0.022,-0.052l-0.022,-0.051l-0.022,-0.05l-0.023,-0.049l-0.023,-0.048l-0.023,-0.048l-0.024,-0.047l-0.024,-0.045l-0.025,-0.046l-0.025,-0.044l-0.025,-0.043l-0.025,-0.043l-0.026,-0.041l-0.026,-0.041l-0.026,-0.04l-0.027,-0.04l-0.027,-0.038l-0.019,-0.026l-0.007,-0.013l-0.025,-0.042l-0.024,-0.042l-0.026,-0.04l-0.026,-0.04l-0.026,-0.039l-0.027,-0.039l-0.028,-0.037l-0.028,-0.037l-0.029,-0.037l-0.03,-0.035l-0.03,-0.035l-0.031,-0.034l-0.032,-0.034l-0.032,-0.033l-0.033,-0.032l-0.034,-0.031l-0.035,-0.031l-0.036,-0.03l-0.036,-0.029l-0.037,-0.028l-0.039,-0.028l-0.039,-0.026l-0.04,-0.026l-0.041,-0.025l-0.043,-0.024l-0.043,-0.024l-0.044,-0.022l-0.032,-0.013l-0.022,-0.01l0,-0.001l-0.038,-0.002l-0.046,-0.003l-0.046,-0.002l-0.047,0l-0.046,0Z" style="fill:#671f00;"/><path d="M107.664,69.266c1.38,0 2.621,2.475 2.621,4.165c0,1.69 -0.737,8.231 -4.98,6.76c-1.813,-0.628 -1.948,-4.627 -1.948,-6.317c0,-1.69 2.927,-4.608 4.307,-4.608Z" style="fill:#fff;stroke:#671f00;stroke-width:0.6px;"/><ellipse cx="134.114" cy="103.424" rx="4.696" ry="3.888" style="fill:#fff;stroke:#671f00;stroke-width:1.71px;"/><path d="M125.407,36.174l0.218,0.002l0.217,0.005l0.217,0.005l0.216,0.007l0.215,0.008l0.215,0.01l0.213,0.011l0.213,0.012l0.212,0.013l0.211,0.015l0.211,0.016l0.209,0.016l0.209,0.019l0.207,0.019l0.207,0.02l0.205,0.021l0.205,0.023l0.204,0.023l0.202,0.024l0.202,0.026l0.201,0.026l0.199,0.027l0.199,0.028l0.197,0.029l0.196,0.03l0.195,0.031l0.194,0.031l0.193,0.033l0.192,0.033l0.19,0.033l0.189,0.035l0.188,0.035l0.187,0.036l0.185,0.036l0.184,0.037l0.183,0.038l0.181,0.038l0.18,0.039l0.179,0.039l0.178,0.04l0.35,0.08l0.345,0.083l0.339,0.084l0.332,0.085l0.327,0.087l0.32,0.087l0.314,0.088l0.307,0.089l0.301,0.089l0.293,0.09l0.287,0.089l0.279,0.089l0.272,0.089l0.264,0.088l0.257,0.088l0.249,0.086l0.242,0.086l0.233,0.084l0.225,0.083l0.216,0.081l0.208,0.079l0.2,0.077l0.19,0.075l0.182,0.073l0.172,0.07l0.164,0.067l0.154,0.064l0.144,0.061l0.135,0.058l0.239,0.105l0.199,0.089l0.158,0.072l0.115,0.054l0.092,0.044l0.165,0.421l-0.423,0.16l-0.092,-0.037l-0.112,-0.045l-0.157,-0.06l-0.198,-0.075l-0.24,-0.088l-0.135,-0.048l-0.145,-0.051l-0.154,-0.054l-0.163,-0.056l-0.173,-0.058l-0.182,-0.06l-0.191,-0.062l-0.2,-0.064l-0.208,-0.065l-0.217,-0.066l-0.225,-0.068l-0.233,-0.068l-0.241,-0.07l-0.249,-0.069l-0.257,-0.071l-0.263,-0.07l-0.272,-0.071l-0.278,-0.07l-0.285,-0.07l-0.292,-0.07l-0.299,-0.069l-0.305,-0.069l-0.311,-0.067l-0.317,-0.066l-0.324,-0.065l-0.329,-0.063l-0.334,-0.062l-0.34,-0.06l-0.346,-0.058l-0.174,-0.028l-0.176,-0.027l-0.177,-0.027l-0.178,-0.026l-0.18,-0.026l-0.18,-0.025l-0.182,-0.024l-0.183,-0.024l-0.184,-0.023l-0.185,-0.022l-0.186,-0.021l-0.187,-0.021l-0.188,-0.02l-0.189,-0.019l-0.191,-0.018l-0.191,-0.017l-0.192,-0.016l-0.192,-0.016l-0.194,-0.014l-0.195,-0.014l-0.195,-0.012l-0.197,-0.012l-0.197,-0.011l-0.198,-0.009l-0.198,-0.008l-0.199,-0.008l-0.201,-0.006l-0.2,-0.005l-0.202,-0.004l-0.202,-0.003l-0.202,-0.002l-0.204,0l-0.204,0.001l-0.204,0.002l-0.205,0.003l-0.205,0.005l-0.206,0.006l-0.207,0.007l-0.207,0.009l-0.207,0.01l-0.208,0.011l-0.208,0.013l-0.209,0.014l-0.208,0.016l-0.21,0.017l-0.212,0.019l-0.904,-0.805l0.805,-0.904l0.219,-0.006l0.222,-0.005l0.221,-0.003l0.22,-0.001l0.22,-0.001l0.219,0.002Z" style="fill:#671f00;"/><path d="M98.86,46.905l-0.268,1.181l-0.169,0.098l-0.163,0.098l-0.161,0.099l-0.16,0.102l-0.159,0.103l-0.157,0.104l-0.155,0.106l-0.154,0.108l-0.153,0.109l-0.152,0.111l-0.15,0.113l-0.148,0.113l-0.147,0.115l-0.146,0.117l-0.144,0.118l-0.143,0.119l-0.142,0.12l-0.14,0.122l-0.138,0.123l-0.138,0.123l-0.135,0.125l-0.135,0.126l-0.133,0.127l-0.131,0.128l-0.131,0.129l-0.128,0.13l-0.128,0.131l-0.126,0.131l-0.124,0.132l-0.124,0.133l-0.121,0.134l-0.121,0.134l-0.119,0.135l-0.117,0.135l-0.116,0.136l-0.115,0.137l-0.114,0.137l-0.111,0.137l-0.111,0.137l-0.109,0.138l-0.108,0.139l-0.107,0.138l-0.105,0.139l-0.103,0.138l-0.103,0.139l-0.101,0.139l-0.099,0.139l-0.098,0.139l-0.097,0.139l-0.096,0.138l-0.094,0.139l-0.093,0.138l-0.091,0.138l-0.09,0.138l-0.089,0.138l-0.087,0.137l-0.086,0.137l-0.085,0.136l-0.083,0.136l-0.082,0.135l-0.081,0.135l-0.079,0.134l-0.078,0.134l-0.077,0.132l-0.075,0.132l-0.074,0.131l-0.144,0.261l-0.139,0.256l-0.134,0.253l-0.128,0.248l-0.124,0.243l-0.118,0.239l-0.114,0.233l-0.108,0.228l-0.103,0.221l-0.098,0.215l-0.094,0.209l-0.088,0.202l-0.084,0.194l-0.078,0.187l-0.074,0.178l-0.069,0.171l-0.065,0.161l-0.059,0.153l-0.055,0.143l-0.051,0.134l-0.045,0.123l-0.078,0.217l-0.06,0.172l-0.042,0.125l-0.034,0.104l-0.38,0.213l-0.209,-0.382l0.028,-0.11l0.036,-0.134l0.051,-0.182l0.066,-0.227l0.039,-0.131l0.043,-0.14l0.047,-0.151l0.051,-0.16l0.056,-0.17l0.06,-0.179l0.064,-0.187l0.068,-0.196l0.073,-0.204l0.077,-0.212l0.082,-0.22l0.087,-0.227l0.091,-0.233l0.096,-0.24l0.101,-0.247l0.106,-0.252l0.111,-0.258l0.116,-0.263l0.121,-0.268l0.126,-0.272l0.131,-0.277l0.068,-0.14l0.069,-0.141l0.071,-0.142l0.072,-0.143l0.073,-0.143l0.074,-0.145l0.076,-0.145l0.077,-0.146l0.079,-0.146l0.08,-0.147l0.081,-0.148l0.083,-0.148l0.084,-0.149l0.086,-0.149l0.087,-0.15l0.089,-0.15l0.09,-0.151l0.092,-0.15l0.093,-0.151l0.094,-0.152l0.096,-0.151l0.098,-0.152l0.099,-0.151l0.101,-0.152l0.102,-0.152l0.104,-0.152l0.105,-0.152l0.107,-0.152l0.109,-0.151l0.11,-0.152l0.112,-0.151l0.113,-0.151l0.115,-0.15l0.117,-0.151l0.118,-0.15l0.12,-0.149l0.121,-0.149l0.124,-0.149l0.125,-0.148l0.126,-0.148l0.129,-0.147l0.13,-0.146l0.132,-0.145l0.133,-0.145l0.136,-0.144l0.137,-0.143l0.139,-0.143l0.141,-0.141l0.142,-0.14l0.144,-0.14l0.147,-0.138l0.148,-0.138l0.15,-0.136l0.151,-0.135l0.154,-0.134l0.155,-0.132l0.158,-0.132l0.159,-0.129l0.161,-0.129l0.163,-0.127l0.165,-0.126l0.167,-0.124l0.169,-0.122l0.171,-0.121l0.173,-0.12l0.171,-0.114l1.18,0.268Z" style="fill:#671f00;"/></svg>