<?xml version="1.0" encoding="UTF-8" standalone="no"?><!DOCTYPE svg PUBLIC "-//W3C//DTD SVG 1.1//EN" "http://www.w3.org/Graphics/SVG/1.1/DTD/svg11.dtd"><svg width="124px" height="78px" version="1.1" xmlns="http://www.w3.org/2000/svg" xmlns:xlink="http://www.w3.org/1999/xlink" xml:space="preserve" xmlns:serif="http://www.serif.com/" style="fill-rule:evenodd;clip-rule:evenodd;stroke-linejoin:round;stroke-miterlimit:1.41421;"><path d="M70.996,23.854c0,0 6.039,13.055 22.404,13.277c16.365,0.221 28.627,-7.883 28.627,-7.883l-13.808,-14.787l-3.202,-10.936c0,0 -30.438,-3.192 -45.637,-2.074c-15.2,1.117 -31.202,8.715 -31.202,8.715l-1.574,-7.886c0,0 -10.507,9.736 -14.521,15.766c-4.014,6.03 -5.644,7.943 -7.883,15.351c-2.238,7.407 -3.304,10.383 -2.904,19.914c0.4,9.531 6.638,22.818 6.638,22.818l25.308,-3.319c0,0 5.624,-7.656 7.883,-17.84c2.259,-10.183 0.829,-18.669 0.829,-18.669l16.181,11.202l-2.489,-12.862l15.35,-10.787Z" style="fill:#fff;"/><path d="M105.181,2.934l0.097,0.036l0.09,0.052l0.079,0.067l0.067,0.079l0.053,0.088l0.037,0.097l1.07,3.681l2.08,7.123l0,0l4.834,5.176l-0.005,0.004l8.646,9.241l0.241,0.256l0.065,0.083l0.051,0.093l0.033,0.1l0.015,0.105l-0.003,0.106l-0.021,0.104l-0.039,0.099l-0.056,0.091l-0.071,0.079l-0.083,0.066l-0.038,0.025l-0.111,0.072l-0.179,0.113l-0.116,0.072l-0.132,0.081l-0.148,0.089l-0.165,0.099l-0.181,0.107l-0.197,0.114l-0.212,0.122l-0.229,0.129l-0.243,0.136l-0.259,0.142l-0.274,0.148l-0.288,0.153l-0.304,0.159l-0.318,0.164l-0.332,0.168l-0.346,0.172l-0.36,0.175l-0.023,0.012l-0.162,0.078l-0.188,0.091l-0.192,0.091l-0.195,0.092l-0.199,0.092l-0.202,0.094l-0.205,0.093l-0.208,0.095l-0.212,0.094l-0.215,0.095l-0.218,0.096l-0.222,0.096l-0.224,0.096l-0.228,0.096l-0.23,0.097l-0.234,0.096l-0.237,0.097l-0.24,0.097l-0.243,0.096l-0.247,0.097l-0.249,0.097l-0.252,0.096l-0.255,0.096l-0.258,0.096l-0.26,0.096l-0.264,0.095l-0.267,0.095l-0.269,0.094l-0.272,0.094l-0.275,0.094l-0.278,0.093l-0.281,0.092l-0.072,0.023l-0.211,0.069l-0.285,0.091l-0.289,0.091l-0.291,0.09l-0.294,0.089l-0.296,0.088l-0.299,0.087l-0.302,0.086l-0.304,0.085l-0.306,0.084l-0.309,0.083l-0.312,0.081l-0.314,0.081l-0.317,0.079l-0.319,0.077l-0.321,0.077l-0.324,0.075l-0.326,0.073l-0.328,0.072l-0.331,0.07l-0.333,0.069l-0.335,0.067l-0.338,0.065l-0.34,0.064l-0.342,0.061l-0.344,0.06l-0.346,0.058l-0.348,0.056l-0.351,0.054l-0.353,0.051l-0.354,0.05l-0.357,0.048l-0.359,0.045l-0.361,0.043l-0.362,0.041l-0.365,0.038l-0.367,0.036l-0.368,0.033l-0.371,0.032l-0.372,0.028l-0.374,0.026l-0.376,0.023l-0.378,0.021l-0.38,0.017l-0.381,0.015l-0.383,0.012l-0.385,0.01l-0.386,0.006l-0.387,0.003l-0.196,0.001l-0.196,0l-0.196,-0.002l-0.196,-0.002l-0.195,-0.004l-0.194,-0.005l-0.193,-0.006l-0.192,-0.007l-0.17,-0.007l-0.022,-0.001l-0.19,-0.01l-0.19,-0.01l-0.188,-0.011l-0.188,-0.013l-0.187,-0.014l-0.186,-0.015l-0.185,-0.016l-0.184,-0.017l-0.184,-0.018l-0.182,-0.019l-0.181,-0.021l-0.181,-0.021l-0.18,-0.022l-0.179,-0.024l-0.178,-0.024l-0.177,-0.026l-0.176,-0.026l-0.175,-0.028l-0.174,-0.028l-0.174,-0.03l-0.172,-0.03l-0.172,-0.032l-0.171,-0.032l-0.17,-0.034l-0.169,-0.034l-0.168,-0.035l-0.167,-0.036l-0.167,-0.037l-0.165,-0.038l-0.165,-0.039l-0.164,-0.04l-0.162,-0.04l-0.162,-0.042l-0.162,-0.042l-0.16,-0.043l-0.159,-0.044l-0.159,-0.045l-0.157,-0.046l-0.157,-0.046l-0.156,-0.047l-0.155,-0.048l-0.154,-0.049l-0.153,-0.05l-0.152,-0.05l-0.152,-0.051l-0.15,-0.052l-0.15,-0.053l-0.149,-0.053l-0.148,-0.054l-0.147,-0.054l-0.146,-0.056l-0.146,-0.056l-0.144,-0.057l-0.144,-0.057l-0.143,-0.058l-0.142,-0.059l-0.141,-0.059l-0.14,-0.06l-0.139,-0.06l-0.139,-0.061l-0.137,-0.062l-0.137,-0.062l-0.136,-0.063l-0.135,-0.064l-0.134,-0.064l-0.134,-0.064l-0.132,-0.065l-0.132,-0.066l-0.131,-0.066l-0.13,-0.067l-0.129,-0.067l-0.128,-0.067l-0.127,-0.069l-0.127,-0.068l-0.126,-0.069l-0.124,-0.07l-0.124,-0.069l-0.124,-0.071l-0.123,-0.071l-0.241,-0.142l-0.239,-0.144l-0.235,-0.146l-0.233,-0.147l-0.228,-0.149l-0.226,-0.149l-0.222,-0.151l-0.219,-0.152l-0.216,-0.153l-0.212,-0.154l-0.209,-0.154l-0.206,-0.156l-0.203,-0.156l-0.2,-0.157l-0.196,-0.157l-0.193,-0.158l-0.19,-0.158l-0.187,-0.158l-0.183,-0.159l-0.181,-0.159l-0.177,-0.159l-0.174,-0.159l-0.171,-0.159l-0.168,-0.158l-0.165,-0.159l-0.162,-0.158l-0.159,-0.158l-0.155,-0.157l-0.153,-0.157l-0.15,-0.156l-0.146,-0.155l-0.144,-0.155l-0.141,-0.154l-0.137,-0.153l-0.135,-0.152l-0.132,-0.15l-0.129,-0.15l-0.126,-0.149l-0.123,-0.147l-0.12,-0.146l-0.117,-0.144l-0.115,-0.143l-0.111,-0.141l-0.109,-0.14l-0.106,-0.138l-0.103,-0.136l-0.1,-0.134l-0.097,-0.132l-0.095,-0.13l-0.092,-0.128l-0.089,-0.126l-0.087,-0.123l-0.083,-0.122l-0.081,-0.118l-0.08,-0.118l-0.147,-0.223l-0.138,-0.214l-0.128,-0.202l-0.047,-0.077l-13.825,9.489l-0.009,-0.003l1.451,7.5l-0.081,-0.004l0.875,4.749l0.014,0.148l-0.011,0.148l-0.036,0.144l-0.06,0.136l-0.081,0.123l-0.101,0.108l-0.117,0.089l-0.13,0.068l-0.139,0.045l-0.145,0.02l-0.146,-0.004l-0.142,-0.028l-0.136,-0.052l-0.124,-0.074l-13.372,-9.42l-1.455,-1.022l0.013,0.139l0.017,0.197l0.018,0.207l0.017,0.216l0.017,0.226l0.016,0.234l0.016,0.244l0.015,0.253l0.014,0.261l0.014,0.27l0.012,0.278l0.012,0.287l0.01,0.295l0.008,0.303l0.006,0.27l0.001,0.04l0.007,0.318l0.005,0.326l0.002,0.333l0.001,0.34l-0.001,0.348l-0.003,0.354l-0.006,0.361l-0.008,0.367l-0.01,0.374l-0.014,0.38l-0.016,0.386l-0.018,0.392l-0.022,0.398l-0.025,0.404l-0.028,0.409l-0.032,0.414l-0.017,0.209l-0.018,0.211l-0.019,0.212l-0.02,0.212l-0.02,0.215l-0.022,0.215l-0.023,0.216l-0.016,0.152l-0.007,0.066l-0.024,0.219l-0.025,0.22l-0.025,0.221l-0.027,0.222l-0.028,0.223l-0.029,0.225l-0.03,0.225l-0.031,0.226l-0.032,0.228l-0.033,0.228l-0.034,0.229l-0.036,0.23l-0.037,0.232l-0.037,0.232l-0.039,0.232l-0.041,0.234l-0.041,0.235l-0.043,0.235l-0.044,0.236l-0.045,0.237l-0.047,0.238l-0.047,0.238l-0.049,0.239l-0.051,0.24l-0.052,0.241l-0.053,0.241l-0.054,0.241l-0.056,0.241l-0.057,0.24l-0.058,0.238l-0.059,0.238l-0.061,0.236l-0.061,0.236l-0.063,0.234l-0.063,0.233l-0.065,0.232l-0.065,0.232l-0.067,0.23l-0.067,0.228l-0.068,0.228l-0.07,0.227l-0.07,0.225l-0.071,0.224l-0.071,0.223l-0.073,0.222l-0.073,0.22l-0.074,0.219l-0.074,0.218l-0.076,0.217l-0.075,0.215l-0.077,0.214l-0.077,0.213l-0.078,0.211l-0.078,0.21l-0.079,0.209l-0.064,0.167l-0.015,0.04l-0.079,0.206l-0.08,0.205l-0.08,0.203l-0.081,0.202l-0.081,0.2l-0.081,0.199l-0.081,0.197l-0.082,0.196l-0.082,0.195l-0.083,0.193l-0.082,0.191l-0.083,0.19l-0.083,0.188l-0.083,0.187l-0.166,0.368l-0.166,0.362l-0.167,0.355l-0.166,0.349l-0.166,0.341l-0.165,0.335l-0.164,0.328l-0.163,0.321l-0.162,0.313l-0.161,0.306l-0.159,0.298l-0.157,0.291l-0.155,0.283l-0.152,0.275l-0.151,0.267l-0.147,0.259l-0.145,0.25l-0.141,0.243l-0.138,0.234l-0.135,0.225l-0.131,0.217l-0.127,0.207l-0.123,0.199l-0.119,0.19l-0.114,0.181l-0.109,0.172l-0.104,0.162l-0.1,0.153l-0.181,0.275l-0.159,0.237l-0.134,0.197l-0.108,0.155l-0.08,0.113l-0.065,0.091l-0.065,0.075l0,0l-0.076,0.065l-0.085,0.051l-0.092,0.036l-0.098,0.021l-1.618,0.214l-23.684,3.151l-0.103,0.005l-0.104,-0.011l-0.1,-0.027l-0.095,-0.042l-0.087,-0.057l-0.077,-0.07l-0.064,-0.082l-0.052,-0.09l0,0l-0.071,-0.153l-0.086,-0.188l-0.116,-0.255l-0.144,-0.322l-0.169,-0.383l-0.193,-0.443l-0.105,-0.243l-0.11,-0.256l-0.114,-0.27l-0.119,-0.282l-0.123,-0.295l-0.127,-0.307l-0.131,-0.319l-0.134,-0.33l-0.137,-0.341l-0.14,-0.352l-0.142,-0.361l-0.145,-0.372l-0.147,-0.381l-0.148,-0.39l-0.15,-0.398l-0.151,-0.407l-0.152,-0.415l-0.153,-0.422l-0.153,-0.429l-0.153,-0.436l-0.005,-0.015l-0.148,-0.427l-0.152,-0.449l-0.152,-0.453l-0.15,-0.459l-0.149,-0.464l-0.148,-0.467l-0.073,-0.236l-0.072,-0.237l-0.072,-0.237l-0.072,-0.239l-0.071,-0.239l-0.07,-0.24l-0.07,-0.24l-0.068,-0.241l-0.068,-0.242l-0.068,-0.243l-0.066,-0.243l-0.066,-0.243l-0.065,-0.244l-0.063,-0.245l-0.063,-0.244l-0.062,-0.245l-0.061,-0.245l-0.06,-0.246l-0.058,-0.246l-0.058,-0.245l-0.056,-0.246l-0.055,-0.246l-0.054,-0.246l-0.053,-0.245l-0.051,-0.246l-0.05,-0.245l-0.049,-0.246l-0.047,-0.244l-0.046,-0.245l-0.044,-0.244l-0.043,-0.244l-0.041,-0.244l-0.04,-0.243l-0.038,-0.242l-0.036,-0.242l-0.034,-0.242l-0.033,-0.24l-0.031,-0.24l-0.03,-0.239l-0.027,-0.239l-0.025,-0.237l-0.024,-0.237l-0.022,-0.236l-0.019,-0.235l-0.018,-0.233l-0.015,-0.233l-0.014,-0.232l-0.011,-0.229l-0.019,-0.446l-0.017,-0.436l-0.014,-0.426l-0.012,-0.418l-0.01,-0.41l-0.008,-0.401l-0.006,-0.393l-0.004,-0.386l-0.002,-0.378l0.001,-0.371l0.003,-0.364l0.004,-0.358l0.007,-0.351l0.009,-0.345l0.011,-0.339l0.013,-0.333l0.016,-0.328l0.017,-0.322l0.02,-0.318l0.021,-0.313l0.024,-0.308l0.025,-0.304l0.028,-0.3l0.03,-0.297l0.032,-0.293l0.034,-0.29l0.036,-0.286l0.038,-0.284l0.04,-0.281l0.042,-0.279l0.043,-0.277l0.046,-0.275l0.048,-0.273l0.05,-0.272l0.052,-0.271l0.054,-0.27l0.055,-0.269l0.058,-0.269l0.059,-0.268l0.062,-0.269l0.063,-0.268l0.065,-0.27l0.067,-0.27l0.068,-0.27l0.071,-0.273l0.072,-0.273l0.074,-0.276l0.076,-0.277l0.078,-0.28l0.079,-0.282l0.081,-0.285l0.083,-0.288l0.171,-0.585l0.178,-0.601l0.184,-0.618l0.191,-0.637l0.374,-1.244l0.03,-0.097l0.104,-0.345l0.104,-0.339l0.104,-0.331l0.102,-0.324l0.103,-0.317l0.101,-0.31l0.102,-0.304l0.101,-0.297l0.101,-0.291l0.1,-0.285l0.101,-0.279l0.1,-0.274l0.101,-0.269l0.1,-0.263l0.101,-0.259l0.101,-0.254l0.101,-0.25l0.102,-0.245l0.102,-0.241l0.102,-0.238l0.103,-0.234l0.104,-0.23l0.104,-0.228l0.105,-0.224l0.106,-0.222l0.107,-0.219l0.108,-0.216l0.108,-0.215l0.11,-0.212l0.111,-0.211l0.112,-0.209l0.113,-0.208l0.114,-0.207l0.116,-0.205l0.117,-0.205l0.119,-0.205l0.12,-0.204l0.121,-0.204l0.124,-0.204l0.124,-0.205l0.127,-0.205l0.129,-0.206l0.13,-0.207l0.132,-0.208l0.134,-0.209l0.137,-0.212l0.279,-0.427l0.288,-0.437l0.297,-0.448l0.308,-0.461l0.319,-0.476l0.672,-1.003l0.355,-0.531l0.108,-0.162l0.261,-0.392l0.097,-0.145l0.1,-0.147l0.103,-0.149l0.105,-0.15l0.107,-0.151l0.109,-0.152l0.11,-0.153l0.113,-0.154l0.115,-0.154l0.117,-0.156l0.118,-0.157l0.121,-0.157l0.122,-0.158l0.123,-0.159l0.126,-0.159l0.127,-0.161l0.128,-0.16l0.13,-0.163l0.264,-0.324l0.27,-0.327l0.275,-0.328l0.279,-0.33l0.284,-0.332l0.287,-0.332l0.292,-0.333l0.294,-0.333l0.297,-0.334l0.3,-0.333l0.301,-0.332l0.303,-0.332l0.305,-0.331l0.305,-0.329l0.306,-0.327l0.306,-0.325l0.306,-0.323l0.305,-0.321l0.304,-0.317l0.302,-0.314l0.301,-0.311l0.298,-0.307l0.296,-0.302l0.293,-0.298l0.289,-0.294l0.286,-0.288l0.282,-0.283l0.277,-0.277l0.207,-0.206l0.065,-0.065l0.529,-0.522l0.504,-0.495l0.477,-0.465l0.446,-0.432l0.413,-0.397l0.376,-0.36l0.336,-0.319l0.293,-0.278l0.247,-0.233l0.342,-0.321l0.12,-0.112l0.101,-0.079l0.113,-0.062l0.121,-0.043l0.126,-0.023l0.128,-0.002l0.127,0.019l0.123,0.04l0.114,0.059l0.103,0.076l0.089,0.092l0.073,0.106l0.055,0.116l0.035,0.124l1.378,6.919l0.217,-0.096l0.227,-0.1l0.247,-0.108l0.265,-0.115l0.02,-0.008l0.264,-0.113l0.302,-0.128l0.319,-0.134l0.338,-0.14l0.354,-0.146l0.37,-0.151l0.387,-0.157l0.403,-0.16l0.418,-0.166l0.433,-0.169l0.448,-0.173l0.462,-0.176l0.476,-0.179l0.489,-0.182l0.503,-0.185l0.515,-0.187l0.528,-0.188l0.54,-0.19l0.551,-0.191l0.562,-0.191l0.286,-0.097l0.288,-0.096l0.291,-0.096l0.293,-0.096l0.296,-0.097l0.298,-0.096l0.301,-0.096l0.303,-0.095l0.305,-0.096l0.308,-0.095l0.309,-0.096l0.313,-0.094l0.314,-0.095l0.316,-0.094l0.318,-0.093l0.321,-0.094l0.322,-0.092l0.324,-0.092l0.326,-0.092l0.328,-0.09l0.33,-0.09l0.331,-0.09l0.132,-0.035l0.201,-0.053l0.335,-0.088l0.336,-0.087l0.338,-0.085l0.339,-0.085l0.34,-0.084l0.342,-0.083l0.344,-0.082l0.344,-0.081l0.346,-0.08l0.347,-0.078l0.349,-0.077l0.349,-0.076l0.35,-0.075l0.352,-0.074l0.352,-0.072l0.353,-0.07l0.354,-0.069l0.355,-0.068l0.356,-0.066l0.356,-0.065l0.357,-0.063l0.358,-0.061l0.358,-0.06l0.359,-0.058l0.359,-0.056l0.36,-0.054l0.36,-0.052l0.36,-0.051l0.361,-0.048l0.361,-0.047l0.361,-0.045l0.361,-0.042l0.362,-0.04l0.361,-0.039l0.362,-0.036l0.361,-0.034l0.362,-0.031l0.361,-0.029l0.361,-0.027l0.363,-0.025l0.368,-0.023l0.373,-0.022l0.379,-0.02l0.383,-0.018l0.388,-0.018l0.393,-0.015l0.397,-0.014l0.402,-0.013l0.406,-0.011l0.41,-0.01l0.414,-0.009l0.419,-0.007l0.422,-0.006l0.425,-0.004l0.429,-0.003l0.433,-0.003l0.436,0l0.439,0l0.442,0.002l0.445,0.002l0.447,0.004l0.451,0.005l0.453,0.006l0.455,0.007l0.457,0.009l0.46,0.009l0.462,0.01l0.463,0.011l0.466,0.012l0.467,0.014l0.468,0.014l0.47,0.015l0.471,0.015l0.472,0.017l0.473,0.018l0.474,0.018l0.475,0.019l0.95,0.04l0.953,0.044l0.809,0.039l0.143,0.007l0.952,0.048l0.95,0.051l0.947,0.053l0.943,0.054l0.938,0.057l0.932,0.059l0.926,0.059l0.917,0.062l0.908,0.062l0.898,0.063l0.887,0.064l0.874,0.065l0.861,0.065l0.847,0.066l0.832,0.065l0.815,0.066l0.798,0.065l0.779,0.065l0.76,0.064l0.739,0.063l0.718,0.063l0.695,0.061l0.671,0.06l0.646,0.059l1.215,0.112l1.103,0.104l0.983,0.094l0.855,0.084l0.719,0.072l0.573,0.059l0.42,0.043l0.346,0.036l0.102,0.02l0,0Zm-33.03,20.523l0.033,0.07l0.044,0.087l0.053,0.102l0.062,0.118l0.071,0.131l0.081,0.146l0.09,0.158l0.099,0.171l0.109,0.184l0.119,0.194l0.13,0.207l0.067,0.105l0.07,0.109l0.073,0.111l0.076,0.114l0.078,0.116l0.08,0.118l0.084,0.12l0.085,0.122l0.088,0.124l0.091,0.127l0.094,0.127l0.095,0.13l0.099,0.131l0.101,0.133l0.104,0.135l0.107,0.136l0.109,0.137l0.112,0.138l0.114,0.14l0.117,0.141l0.12,0.142l0.123,0.143l0.125,0.144l0.128,0.145l0.131,0.146l0.134,0.146l0.136,0.147l0.139,0.148l0.142,0.148l0.145,0.148l0.148,0.149l0.15,0.15l0.153,0.149l0.156,0.15l0.159,0.149l0.162,0.15l0.165,0.15l0.168,0.149l0.17,0.149l0.174,0.149l0.176,0.149l0.18,0.148l0.182,0.148l0.186,0.147l0.188,0.147l0.192,0.146l0.194,0.145l0.197,0.144l0.201,0.143l0.204,0.143l0.206,0.141l0.21,0.14l0.213,0.139l0.216,0.138l0.22,0.137l0.11,0.067l0.111,0.067l0.113,0.067l0.113,0.067l0.114,0.066l0.115,0.066l0.115,0.065l0.116,0.065l0.118,0.065l0.118,0.064l0.118,0.064l0.12,0.063l0.12,0.063l0.121,0.062l0.122,0.062l0.123,0.062l0.124,0.06l0.124,0.061l0.126,0.06l0.126,0.059l0.127,0.059l0.127,0.058l0.129,0.058l0.129,0.057l0.131,0.057l0.131,0.056l0.132,0.056l0.133,0.055l0.133,0.054l0.135,0.054l0.135,0.053l0.136,0.052l0.137,0.052l0.138,0.051l0.139,0.051l0.14,0.05l0.14,0.049l0.142,0.049l0.142,0.048l0.143,0.047l0.144,0.046l0.145,0.046l0.145,0.045l0.147,0.045l0.148,0.043l0.148,0.043l0.149,0.042l0.15,0.042l0.151,0.04l0.152,0.04l0.153,0.039l0.154,0.038l0.155,0.037l0.155,0.037l0.157,0.036l0.157,0.035l0.158,0.034l0.16,0.033l0.16,0.032l0.161,0.032l0.162,0.03l0.163,0.03l0.163,0.029l0.165,0.028l0.166,0.026l0.167,0.026l0.167,0.026l0.169,0.024l0.169,0.023l0.17,0.022l0.172,0.021l0.172,0.02l0.173,0.02l0.174,0.018l0.176,0.017l0.176,0.016l0.177,0.015l0.178,0.015l0.179,0.013l0.18,0.011l0.181,0.011l0.181,0.009l0.183,0.009l0.184,0.007l0.185,0.006l0.186,0.006l0.188,0.004l0.187,0.003l0.375,0.005l0.373,0.001l0.372,-0.001l0.37,-0.004l0.368,-0.006l0.367,-0.01l0.366,-0.012l0.364,-0.015l0.362,-0.017l0.36,-0.02l0.359,-0.023l0.358,-0.025l0.355,-0.027l0.354,-0.03l0.352,-0.032l0.351,-0.034l0.348,-0.037l0.347,-0.039l0.345,-0.041l0.343,-0.043l0.341,-0.045l0.34,-0.047l0.337,-0.049l0.335,-0.051l0.334,-0.053l0.331,-0.055l0.329,-0.056l0.327,-0.059l0.325,-0.06l0.323,-0.061l0.321,-0.063l0.319,-0.065l0.316,-0.066l0.315,-0.068l0.312,-0.069l0.31,-0.071l0.307,-0.072l0.305,-0.073l0.303,-0.074l0.301,-0.076l0.298,-0.076l0.295,-0.078l0.294,-0.079l0.29,-0.08l0.289,-0.081l0.285,-0.081l0.284,-0.083l0.28,-0.083l0.207,-0.063l0.071,-0.021l0.276,-0.086l0.272,-0.086l0.27,-0.087l0.268,-0.087l0.264,-0.088l0.262,-0.088l0.259,-0.089l0.257,-0.089l0.253,-0.09l0.251,-0.09l0.248,-0.09l0.244,-0.09l0.242,-0.091l0.24,-0.09l0.236,-0.091l0.233,-0.091l0.23,-0.09l0.227,-0.091l0.224,-0.09l0.221,-0.091l0.218,-0.09l0.215,-0.089l0.211,-0.09l0.209,-0.089l0.205,-0.089l0.202,-0.088l0.199,-0.088l0.195,-0.087l0.192,-0.087l0.189,-0.086l0.186,-0.085l0.158,-0.074l0.023,-0.011l0.355,-0.168l0.339,-0.165l0.326,-0.16l0.312,-0.157l0.297,-0.151l0.283,-0.147l0.268,-0.142l0.253,-0.135l0.238,-0.13l0.223,-0.123l0.207,-0.116l0.192,-0.108l0.175,-0.102l0.16,-0.093l0.067,-0.04l-8.547,-9.17l-4.745,-5.073l-0.058,-0.073l-0.046,-0.08l-0.033,-0.087l-1.942,-6.61l-0.009,0.003l-1.15,-3.928l-0.354,-0.035l-0.572,-0.056l-0.716,-0.068l-0.853,-0.081l-0.982,-0.09l-1.101,-0.099l-1.212,-0.106l-0.645,-0.056l-0.67,-0.057l-0.694,-0.058l-0.716,-0.06l-0.738,-0.06l-0.758,-0.06l-0.778,-0.062l-0.797,-0.061l-0.813,-0.062l-0.83,-0.062l-0.845,-0.061l-0.86,-0.062l-0.872,-0.06l-0.885,-0.061l-0.896,-0.059l-0.906,-0.058l-0.915,-0.057l-0.923,-0.056l-0.929,-0.054l-0.936,-0.053l-0.94,-0.05l-0.944,-0.049l-0.947,-0.046l-0.948,-0.044l-0.143,-0.006l-0.806,-0.036l-0.949,-0.038l-0.947,-0.036l-0.472,-0.016l-0.472,-0.016l-0.471,-0.016l-0.47,-0.014l-0.469,-0.013l-0.467,-0.013l-0.466,-0.012l-0.464,-0.01l-0.463,-0.01l-0.461,-0.009l-0.459,-0.008l-0.456,-0.007l-0.455,-0.006l-0.452,-0.005l-0.45,-0.004l-0.447,-0.003l-0.444,-0.001l-0.442,-0.001l-0.438,0.001l-0.435,0.001l-0.432,0.003l-0.429,0.004l-0.424,0.006l-0.422,0.006l-0.417,0.008l-0.413,0.009l-0.41,0.011l-0.405,0.011l-0.4,0.013l-0.397,0.015l-0.391,0.016l-0.387,0.017l-0.382,0.019l-0.376,0.02l-0.372,0.021l-0.366,0.023l-0.361,0.025l-0.355,0.026l-0.351,0.027l-0.352,0.031l-0.353,0.032l-0.352,0.035l-0.353,0.037l-0.353,0.039l-0.352,0.041l-0.353,0.043l-0.353,0.045l-0.353,0.048l-0.352,0.049l-0.353,0.051l-0.352,0.053l-0.352,0.055l-0.352,0.056l-0.351,0.059l-0.351,0.06l-0.35,0.062l-0.35,0.063l-0.349,0.065l-0.349,0.067l-0.348,0.068l-0.347,0.07l-0.347,0.071l-0.346,0.072l-0.344,0.074l-0.344,0.075l-0.343,0.076l-0.342,0.078l-0.341,0.079l-0.34,0.08l-0.339,0.081l-0.337,0.082l-0.336,0.084l-0.335,0.084l-0.334,0.085l-0.332,0.086l-0.33,0.087l-0.33,0.088l-0.197,0.053l-0.13,0.036l-0.326,0.089l-0.325,0.09l-0.323,0.09l-0.321,0.091l-0.319,0.092l-0.317,0.093l-0.316,0.092l-0.313,0.094l-0.312,0.094l-0.31,0.094l-0.307,0.094l-0.305,0.095l-0.304,0.095l-0.301,0.096l-0.298,0.095l-0.297,0.096l-0.294,0.096l-0.291,0.096l-0.289,0.096l-0.287,0.096l-0.284,0.096l-0.281,0.095l-0.555,0.192l-0.544,0.19l-0.532,0.19l-0.521,0.187l-0.508,0.186l-0.495,0.184l-0.483,0.182l-0.47,0.178l-0.455,0.176l-0.442,0.172l-0.427,0.169l-0.412,0.164l-0.396,0.16l-0.381,0.156l-0.365,0.15l-0.349,0.145l-0.332,0.139l-0.314,0.134l-0.297,0.127l-0.259,0.111l-0.02,0.009l-0.261,0.113l-0.242,0.106l-0.222,0.098l-0.387,0.173l-0.305,0.138l-0.22,0.102l-0.181,0.084l-0.121,0.045l-0.126,0.024l-0.129,0.004l-0.127,-0.018l-0.123,-0.039l-0.114,-0.058l-0.104,-0.076l-0.09,-0.092l-0.073,-0.105l-0.056,-0.116l-0.035,-0.124l-1.3,-6.491l-0.293,0.279l-0.372,0.358l-0.409,0.394l-0.442,0.43l-0.472,0.461l-0.5,0.492l-0.524,0.519l-0.065,0.065l-0.205,0.204l-0.275,0.274l-0.28,0.28l-0.284,0.286l-0.287,0.29l-0.291,0.295l-0.293,0.3l-0.296,0.303l-0.298,0.308l-0.3,0.31l-0.301,0.314l-0.303,0.317l-0.302,0.319l-0.303,0.321l-0.303,0.323l-0.302,0.325l-0.301,0.326l-0.299,0.326l-0.298,0.328l-0.295,0.328l-0.293,0.327l-0.29,0.328l-0.286,0.326l-0.283,0.326l-0.279,0.324l-0.273,0.323l-0.269,0.321l-0.264,0.319l-0.258,0.316l-0.126,0.156l-0.125,0.156l-0.123,0.156l-0.122,0.154l-0.119,0.153l-0.118,0.153l-0.116,0.151l-0.115,0.151l-0.112,0.149l-0.11,0.148l-0.108,0.147l-0.106,0.146l-0.104,0.144l-0.102,0.144l-0.099,0.141l-0.098,0.141l-0.094,0.139l-0.094,0.139l-0.261,0.39l-0.108,0.163l-0.358,0.531l-0.676,1.002l-0.319,0.474l-0.308,0.457l-0.297,0.444l-0.285,0.43l-0.276,0.421l-0.134,0.206l-0.132,0.204l-0.13,0.203l-0.128,0.201l-0.125,0.199l-0.123,0.198l-0.122,0.198l-0.119,0.196l-0.118,0.197l-0.116,0.195l-0.114,0.196l-0.113,0.196l-0.111,0.197l-0.11,0.197l-0.109,0.197l-0.107,0.199l-0.106,0.201l-0.105,0.202l-0.104,0.203l-0.103,0.206l-0.103,0.208l-0.101,0.211l-0.101,0.213l-0.1,0.216l-0.099,0.22l-0.099,0.223l-0.099,0.227l-0.098,0.23l-0.099,0.235l-0.097,0.239l-0.098,0.244l-0.098,0.249l-0.098,0.253l-0.097,0.259l-0.098,0.265l-0.099,0.27l-0.098,0.277l-0.099,0.282l-0.099,0.289l-0.1,0.296l-0.1,0.302l-0.101,0.309l-0.102,0.317l-0.102,0.325l-0.104,0.332l-0.104,0.341l-0.03,0.097l-0.379,1.241l-0.193,0.635l-0.187,0.614l-0.179,0.595l-0.172,0.579l-0.083,0.284l-0.081,0.28l-0.079,0.277l-0.077,0.274l-0.076,0.271l-0.074,0.269l-0.071,0.267l-0.07,0.264l-0.068,0.263l-0.066,0.262l-0.064,0.26l-0.062,0.26l-0.061,0.259l-0.058,0.258l-0.057,0.258l-0.054,0.259l-0.053,0.259l-0.051,0.259l-0.049,0.261l-0.047,0.261l-0.045,0.264l-0.044,0.265l-0.041,0.266l-0.039,0.27l-0.038,0.271l-0.036,0.275l-0.033,0.278l-0.032,0.281l-0.03,0.284l-0.028,0.289l-0.026,0.293l-0.024,0.297l-0.022,0.302l-0.021,0.306l-0.018,0.312l-0.016,0.318l-0.014,0.323l-0.013,0.329l-0.01,0.335l-0.008,0.342l-0.006,0.349l-0.004,0.355l-0.003,0.363l0,0.37l0.002,0.378l0.004,0.386l0.006,0.394l0.009,0.403l0.01,0.412l0.012,0.42l0.015,0.43l0.016,0.438l0.01,0.219l0.012,0.219l0.013,0.221l0.016,0.222l0.018,0.223l0.019,0.225l0.022,0.226l0.023,0.227l0.025,0.228l0.027,0.229l0.029,0.23l0.031,0.232l0.032,0.232l0.034,0.233l0.035,0.234l0.037,0.235l0.039,0.235l0.04,0.236l0.042,0.237l0.043,0.237l0.045,0.238l0.046,0.238l0.048,0.239l0.048,0.239l0.051,0.239l0.051,0.239l0.053,0.24l0.053,0.24l0.056,0.239l0.056,0.24l0.057,0.24l0.058,0.24l0.06,0.24l0.06,0.239l0.061,0.24l0.063,0.239l0.063,0.238l0.064,0.239l0.065,0.238l0.065,0.237l0.067,0.237l0.067,0.236l0.068,0.236l0.068,0.235l0.07,0.234l0.069,0.234l0.071,0.233l0.07,0.231l0.143,0.462l0.145,0.456l0.146,0.453l0.147,0.447l0.149,0.442l0.148,0.437l0.149,0.43l0.149,0.424l0.149,0.417l0.149,0.41l0.147,0.402l0.146,0.394l0.145,0.385l0.144,0.377l0.141,0.367l0.14,0.358l0.137,0.348l0.134,0.337l0.131,0.327l0.127,0.315l0.125,0.304l0.12,0.291l0.116,0.279l0.112,0.267l0.107,0.253l0.102,0.24l0.189,0.437l0.165,0.378l0.141,0.316l0.065,0.147l22.805,-2.947l0.001,0.001l1.761,-0.231l0.087,-0.124l0.129,-0.189l0.154,-0.228l0.177,-0.268l0.096,-0.147l0.102,-0.158l0.106,-0.166l0.112,-0.176l0.115,-0.185l0.121,-0.194l0.124,-0.202l0.128,-0.212l0.132,-0.22l0.135,-0.228l0.139,-0.237l0.142,-0.245l0.144,-0.253l0.148,-0.261l0.149,-0.268l0.152,-0.277l0.154,-0.284l0.156,-0.292l0.158,-0.299l0.159,-0.306l0.16,-0.314l0.162,-0.321l0.162,-0.327l0.162,-0.334l0.164,-0.341l0.163,-0.348l0.163,-0.354l0.164,-0.361l0.081,-0.181l0.081,-0.184l0.082,-0.186l0.081,-0.187l0.08,-0.189l0.081,-0.189l0.08,-0.192l0.08,-0.193l0.08,-0.194l0.079,-0.196l0.079,-0.197l0.079,-0.198l0.078,-0.2l0.078,-0.202l0.015,-0.039l0.062,-0.163l0.077,-0.204l0.076,-0.206l0.075,-0.206l0.075,-0.208l0.074,-0.209l0.074,-0.211l0.073,-0.211l0.073,-0.213l0.071,-0.214l0.071,-0.215l0.07,-0.217l0.07,-0.217l0.069,-0.219l0.067,-0.22l0.068,-0.221l0.066,-0.222l0.065,-0.223l0.064,-0.224l0.064,-0.225l0.062,-0.227l0.062,-0.227l0.06,-0.228l0.059,-0.229l0.059,-0.231l0.057,-0.231l0.056,-0.232l0.055,-0.233l0.054,-0.234l0.052,-0.235l0.052,-0.236l0.05,-0.234l0.048,-0.235l0.048,-0.233l0.046,-0.233l0.045,-0.233l0.044,-0.231l0.042,-0.231l0.042,-0.23l0.04,-0.229l0.039,-0.229l0.037,-0.227l0.037,-0.227l0.035,-0.226l0.035,-0.225l0.033,-0.224l0.032,-0.224l0.031,-0.222l0.03,-0.221l0.029,-0.221l0.027,-0.219l0.027,-0.218l0.026,-0.218l0.025,-0.216l0.023,-0.215l0.023,-0.214l0.007,-0.065l0.015,-0.149l0.02,-0.212l0.019,-0.21l0.018,-0.21l0.017,-0.209l0.017,-0.207l0.015,-0.206l0.015,-0.204l0.027,-0.406l0.024,-0.401l0.021,-0.395l0.017,-0.389l0.015,-0.384l0.012,-0.378l0.009,-0.372l0.007,-0.366l0.004,-0.359l0.003,-0.353l-0.001,-0.346l-0.002,-0.34l-0.004,-0.332l-0.006,-0.326l-0.007,-0.318l-0.01,-0.311l-0.001,-0.039l-0.01,-0.264l-0.013,-0.295l-0.014,-0.288l-0.016,-0.279l-0.016,-0.272l-0.017,-0.263l-0.018,-0.254l-0.018,-0.246l-0.02,-0.237l-0.019,-0.228l-0.02,-0.219l-0.02,-0.209l-0.02,-0.2l-0.019,-0.191l-0.02,-0.181l-0.02,-0.17l-0.018,-0.161l-0.037,-0.291l-0.033,-0.249l-0.029,-0.205l-0.024,-0.161l-0.018,-0.115l-0.016,-0.094l-0.009,-0.115l0.01,-0.114l0.029,-0.112l0.046,-0.105l0.064,-0.096l0.079,-0.084l0.092,-0.07l0.102,-0.054l0.11,-0.036l0.115,-0.018l0.116,0.002l0.114,0.021l0.11,0.04l0.101,0.057l2.745,1.874l11.75,7.993l-0.642,-3.179l-1.541,-7.582l-0.02,-0.163l0.007,-0.164l0.034,-0.161l0.059,-0.154l0.085,-0.142l0.106,-0.127l0.127,-0.108l15.236,-10.95l0.182,-0.106l0.198,-0.073l0.207,-0.037l0.211,-0.001l0.208,0.036l0.198,0.071l0.183,0.104l0.163,0.135l0.136,0.16l0.107,0.182l0.013,0.029l0.046,0.095Z" style="fill:#671f00;"/></svg>