<?xml version="1.0" encoding="UTF-8" standalone="no"?><!DOCTYPE svg PUBLIC "-//W3C//DTD SVG 1.1//EN" "http://www.w3.org/Graphics/SVG/1.1/DTD/svg11.dtd"><svg width="120px" height="84px" version="1.1" xmlns="http://www.w3.org/2000/svg" xmlns:xlink="http://www.w3.org/1999/xlink" xml:space="preserve" xmlns:serif="http://www.serif.com/" style="fill-rule:evenodd;clip-rule:evenodd;stroke-linejoin:round;stroke-miterlimit:1.41421;"><path d="M69.642,30.295c0,0 13.807,7.209 25.915,8.059c12.108,0.85 22.578,-3.611 22.578,-3.611c0,0 -10.258,-28.464 -26.614,-32.5c-16.357,-4.036 -34.412,5.098 -34.412,5.098c0,0 -21.667,-7.86 -32.076,-1.7c-5.3,3.138 -18.222,13.77 -22.288,32.455c-3.919,18.005 0.919,44.144 0.919,44.144c0,0 1.147,-2.595 24.301,-8.307c23.154,-5.713 41.677,-43.638 41.677,-43.638Z" style="fill:#fff;"/><path d="M82.655,0.544l0.194,0.001l0.195,0.002l0.194,0.003l0.195,0.004l0.195,0.004l0.196,0.006l0.195,0.006l0.195,0.008l0.196,0.008l0.196,0.009l0.196,0.01l0.196,0.011l0.196,0.013l0.196,0.013l0.196,0.013l0.197,0.015l0.196,0.016l0.197,0.017l0.196,0.018l0.197,0.019l0.196,0.02l0.197,0.021l0.197,0.022l0.197,0.023l0.196,0.024l0.197,0.025l0.197,0.027l0.197,0.027l0.196,0.028l0.197,0.03l0.197,0.03l0.197,0.032l0.196,0.033l0.197,0.034l0.197,0.035l0.196,0.036l0.196,0.037l0.197,0.039l0.196,0.04l0.196,0.04l0.196,0.042l0.196,0.044l0.196,0.044l0.196,0.046l0.196,0.047l0.196,0.048l0.198,0.05l0.197,0.053l0.198,0.056l0.196,0.057l0.196,0.06l0.196,0.062l0.194,0.064l0.194,0.066l0.194,0.069l0.192,0.07l0.192,0.073l0.191,0.074l0.191,0.077l0.19,0.079l0.189,0.081l0.189,0.082l0.188,0.085l0.187,0.087l0.186,0.088l0.186,0.09l0.185,0.093l0.185,0.094l0.184,0.096l0.183,0.098l0.182,0.099l0.182,0.102l0.181,0.103l0.18,0.105l0.18,0.106l0.179,0.109l0.178,0.11l0.178,0.111l0.177,0.113l0.176,0.115l0.175,0.117l0.175,0.118l0.174,0.119l0.174,0.121l0.173,0.123l0.172,0.124l0.171,0.125l0.171,0.127l0.17,0.129l0.169,0.13l0.168,0.131l0.168,0.132l0.167,0.134l0.167,0.136l0.166,0.136l0.165,0.138l0.164,0.139l0.164,0.141l0.163,0.141l0.162,0.143l0.162,0.144l0.161,0.145l0.16,0.147l0.159,0.147l0.159,0.149l0.158,0.15l0.158,0.15l0.156,0.152l0.156,0.153l0.156,0.154l0.154,0.155l0.154,0.156l0.153,0.157l0.153,0.158l0.151,0.159l0.152,0.159l0.15,0.161l0.15,0.161l0.149,0.163l0.148,0.163l0.147,0.164l0.147,0.165l0.146,0.165l0.146,0.166l0.144,0.167l0.144,0.168l0.144,0.169l0.142,0.169l0.142,0.17l0.141,0.17l0.141,0.171l0.139,0.172l0.03,0.037l0.11,0.135l0.138,0.172l0.138,0.174l0.137,0.173l0.136,0.175l0.136,0.174l0.135,0.176l0.134,0.175l0.134,0.176l0.132,0.177l0.132,0.177l0.132,0.177l0.13,0.178l0.13,0.178l0.129,0.178l0.129,0.179l0.254,0.358l0.252,0.36l0.249,0.36l0.246,0.36l0.242,0.362l0.24,0.362l0.237,0.362l0.234,0.362l0.231,0.362l0.228,0.362l0.225,0.361l0.222,0.361l0.218,0.361l0.216,0.36l0.213,0.358l0.21,0.358l0.206,0.356l0.204,0.355l0.2,0.354l0.198,0.352l0.194,0.349l0.018,0.034l0.174,0.314l0.188,0.345l0.186,0.344l0.182,0.34l0.179,0.338l0.176,0.336l0.173,0.332l0.17,0.33l0.166,0.326l0.163,0.323l0.16,0.319l0.157,0.316l0.153,0.312l0.15,0.308l0.147,0.304l0.144,0.3l0.14,0.295l0.137,0.291l0.134,0.286l0.13,0.281l0.127,0.276l0.123,0.271l0.121,0.266l0.116,0.26l0.114,0.255l0.11,0.249l0.21,0.48l0.195,0.455l0.183,0.43l0.168,0.402l0.045,0.109l0.11,0.264l0.141,0.343l0.128,0.313l0.112,0.28l0.098,0.247l0.083,0.213l0.069,0.178l0.092,0.242l0.031,0.084l0.028,0.101l0.01,0.104l-0.008,0.105l-0.025,0.101l0,0l-0.042,0.097l-0.058,0.087l-0.072,0.077l-0.083,0.063l-0.094,0.048l-0.123,0.052l-0.153,0.062l-0.209,0.084l-0.263,0.102l-0.153,0.059l-0.166,0.062l-0.178,0.066l-0.191,0.07l-0.204,0.074l-0.216,0.076l-0.228,0.08l-0.24,0.082l-0.251,0.085l-0.264,0.088l-0.275,0.089l-0.156,0.05l-0.129,0.042l-0.297,0.095l-0.307,0.095l-0.318,0.097l-0.328,0.098l-0.339,0.099l-0.348,0.099l-0.358,0.1l-0.368,0.1l-0.377,0.1l-0.386,0.099l-0.396,0.099l-0.403,0.098l-0.206,0.049l-0.207,0.049l-0.21,0.048l-0.212,0.048l-0.213,0.047l-0.216,0.047l-0.218,0.047l-0.219,0.046l-0.222,0.046l-0.223,0.045l-0.226,0.044l-0.227,0.045l-0.109,0.02l-0.12,0.023l-0.231,0.044l-0.233,0.043l-0.235,0.042l-0.236,0.041l-0.238,0.041l-0.24,0.04l-0.241,0.039l-0.243,0.039l-0.245,0.037l-0.246,0.037l-0.248,0.035l-0.25,0.035l-0.251,0.034l-0.253,0.033l-0.254,0.032l-0.255,0.031l-0.257,0.029l-0.259,0.029l-0.26,0.028l-0.261,0.026l-0.262,0.025l-0.264,0.024l-0.266,0.023l-0.266,0.021l-0.268,0.02l-0.269,0.019l-0.27,0.017l-0.271,0.016l-0.273,0.015l-0.274,0.013l-0.274,0.012l-0.276,0.01l-0.277,0.009l-0.278,0.007l-0.279,0.005l-0.28,0.004l-0.281,0.002l-0.282,0.001l-0.283,-0.002l-0.284,-0.003l-0.284,-0.004l-0.286,-0.007l-0.286,-0.008l-0.287,-0.011l-0.288,-0.012l-0.288,-0.014l-0.29,-0.016l-0.291,-0.018l-0.291,-0.021l-0.292,-0.022l-0.293,-0.026l-0.292,-0.027l-0.293,-0.029l-0.294,-0.032l-0.293,-0.034l-0.294,-0.035l-0.294,-0.038l-0.294,-0.04l-0.294,-0.041l-0.294,-0.044l-0.221,-0.034l-0.073,-0.011l-0.294,-0.047l-0.294,-0.048l-0.294,-0.05l-0.294,-0.052l-0.293,-0.053l-0.293,-0.055l-0.293,-0.057l-0.293,-0.058l-0.292,-0.06l-0.291,-0.061l-0.292,-0.062l-0.29,-0.064l-0.29,-0.065l-0.29,-0.067l-0.288,-0.067l-0.288,-0.069l-0.287,-0.07l-0.287,-0.072l-0.286,-0.072l-0.284,-0.073l-0.284,-0.075l-0.283,-0.075l-0.282,-0.077l-0.28,-0.077l-0.28,-0.078l-0.279,-0.079l-0.277,-0.08l-0.276,-0.08l-0.275,-0.082l-0.273,-0.081l-0.272,-0.083l-0.271,-0.083l-0.269,-0.084l-0.268,-0.084l-0.266,-0.085l-0.265,-0.085l-0.263,-0.086l-0.261,-0.086l-0.259,-0.086l-0.258,-0.086l-0.256,-0.087l-0.254,-0.087l-0.253,-0.087l-0.251,-0.088l-0.494,-0.175l-0.486,-0.175l-0.478,-0.175l-0.468,-0.174l-0.46,-0.173l-0.449,-0.173l-0.44,-0.171l-0.429,-0.169l-0.418,-0.167l-0.407,-0.165l-0.396,-0.162l-0.384,-0.159l-0.371,-0.156l-0.359,-0.152l-0.347,-0.149l-0.332,-0.144l-0.32,-0.139l-0.305,-0.135l-0.291,-0.13l-0.276,-0.125l-0.261,-0.118l-0.246,-0.113l-0.231,-0.107l-0.305,-0.143l-0.118,0.22l-0.201,0.373l-0.227,0.416l-0.251,0.457l-0.276,0.496l-0.3,0.534l-0.159,0.281l-0.165,0.289l-0.171,0.298l-0.177,0.306l-0.182,0.315l-0.189,0.323l-0.194,0.33l-0.199,0.338l-0.205,0.346l-0.211,0.353l-0.217,0.36l-0.222,0.366l-0.227,0.373l-0.233,0.38l-0.238,0.386l-0.243,0.392l-0.249,0.398l-0.254,0.403l-0.259,0.409l-0.265,0.414l-0.269,0.419l-0.275,0.424l-0.279,0.428l-0.285,0.433l-0.29,0.437l-0.294,0.441l-0.3,0.445l-0.304,0.449l-0.309,0.452l-0.314,0.455l-0.318,0.459l-0.324,0.461l-0.327,0.464l-0.333,0.466l-0.337,0.468l-0.341,0.47l-0.346,0.473l-0.35,0.474l-0.355,0.475l-0.359,0.476l-0.022,0.029l-0.341,0.449l-0.367,0.479l-0.37,0.479l-0.188,0.241l-0.188,0.24l-0.189,0.24l-0.19,0.24l-0.192,0.24l-0.192,0.24l-0.193,0.241l-0.194,0.24l-0.196,0.239l-0.196,0.24l-0.197,0.24l-0.199,0.239l-0.199,0.24l-0.2,0.239l-0.201,0.239l-0.202,0.238l-0.204,0.239l-0.204,0.238l-0.205,0.237l-0.206,0.238l-0.207,0.236l-0.208,0.237l-0.208,0.236l-0.21,0.235l-0.211,0.235l-0.211,0.235l-0.213,0.234l-0.213,0.233l-0.215,0.233l-0.215,0.233l-0.216,0.231l-0.217,0.231l-0.218,0.23l-0.219,0.23l-0.219,0.229l-0.221,0.228l-0.221,0.227l-0.223,0.226l-0.223,0.226l-0.224,0.224l-0.224,0.224l-0.226,0.223l-0.226,0.222l-0.228,0.221l-0.228,0.22l-0.229,0.219l-0.23,0.218l-0.23,0.216l-0.232,0.216l-0.232,0.215l-0.233,0.213l-0.234,0.213l-0.234,0.211l-0.235,0.209l-0.237,0.209l-0.145,0.127l-0.091,0.081l-0.238,0.206l-0.238,0.205l-0.238,0.204l-0.24,0.203l-0.24,0.201l-0.241,0.2l-0.242,0.198l-0.242,0.197l-0.244,0.195l-0.244,0.194l-0.244,0.192l-0.246,0.191l-0.246,0.189l-0.247,0.188l-0.247,0.185l-0.249,0.185l-0.249,0.182l-0.249,0.181l-0.251,0.179l-0.251,0.177l-0.251,0.175l-0.253,0.174l-0.253,0.172l-0.254,0.17l-0.254,0.167l-0.255,0.166l-0.256,0.165l-0.113,0.071l-0.143,0.091l-0.256,0.161l-0.258,0.159l-0.257,0.157l-0.259,0.154l-0.259,0.153l-0.26,0.151l-0.26,0.148l-0.261,0.146l-0.262,0.144l-0.262,0.142l-0.263,0.139l-0.263,0.137l-0.264,0.135l-0.265,0.133l-0.265,0.13l-0.266,0.128l-0.266,0.125l-0.267,0.123l-0.268,0.121l-0.268,0.118l-0.269,0.115l-0.269,0.113l-0.118,0.048l-0.151,0.063l-0.27,0.109l-0.271,0.106l-0.271,0.104l-0.271,0.101l-0.273,0.098l-0.272,0.095l-0.273,0.093l-0.274,0.09l-0.275,0.087l-0.274,0.084l-0.276,0.082l-0.276,0.078l-0.276,0.076l-0.277,0.073l-0.276,0.069l-0.539,0.133l-0.53,0.131l-0.522,0.13l-0.514,0.13l-0.507,0.128l-0.498,0.126l-0.491,0.126l-0.483,0.125l-0.475,0.123l-0.468,0.123l-0.461,0.121l-0.453,0.12l-0.445,0.119l-0.439,0.118l-0.198,0.053l-0.233,0.064l-0.424,0.116l-0.416,0.116l-0.41,0.114l-0.403,0.113l-0.395,0.112l-0.389,0.111l-0.382,0.109l-0.375,0.109l-0.369,0.107l-0.361,0.107l-0.356,0.105l-0.348,0.104l-0.343,0.103l-0.335,0.102l-0.33,0.1l-0.323,0.1l-0.317,0.098l-0.311,0.098l-0.305,0.096l-0.298,0.095l-0.293,0.094l-0.287,0.093l-0.28,0.092l-0.275,0.091l-0.27,0.09l-0.263,0.088l-0.258,0.088l-0.253,0.086l-0.246,0.085l-0.242,0.084l-0.236,0.084l-0.23,0.081l-0.226,0.081l-0.22,0.08l-0.215,0.079l-0.209,0.077l-0.205,0.077l-0.395,0.15l-0.375,0.145l-0.088,0.035l-0.268,0.107l-0.337,0.137l-0.32,0.133l-0.301,0.128l-0.285,0.124l-0.268,0.12l-0.251,0.115l-0.236,0.112l-0.221,0.106l-0.205,0.102l-0.192,0.098l-0.177,0.094l-0.164,0.089l-0.151,0.085l-0.139,0.08l-0.126,0.076l-0.115,0.071l-0.104,0.067l-0.093,0.063l-0.083,0.057l-0.073,0.054l-0.063,0.048l-0.055,0.044l-0.047,0.039l-0.038,0.033l-0.032,0.029l-0.024,0.024l-0.018,0.019l-0.011,0.012l-0.006,0.007l-0.003,0.005l0.002,-0.004l-0.001,0.002l-0.001,0.001l-0.006,0.009l0.004,-0.006l-0.003,0.004l-0.028,0.044l-0.069,0.077l-0.08,0.064l-0.09,0.05l-0.097,0.035l-0.101,0.018l-0.103,0.002l-0.101,-0.016l-0.098,-0.032l-0.091,-0.048l-0.082,-0.062l-0.071,-0.074l-0.058,-0.086l-0.042,-0.093l-0.027,-0.099l-0.014,-0.077l-0.041,-0.225l-0.064,-0.366l-0.085,-0.499l-0.05,-0.299l-0.055,-0.33l-0.058,-0.36l-0.062,-0.39l-0.065,-0.419l-0.069,-0.447l-0.071,-0.475l-0.074,-0.501l-0.076,-0.526l-0.078,-0.552l-0.079,-0.576l-0.081,-0.599l-0.081,-0.622l-0.083,-0.644l-0.082,-0.665l-0.082,-0.686l-0.082,-0.705l-0.082,-0.723l-0.04,-0.369l-0.04,-0.373l-0.04,-0.377l-0.039,-0.382l-0.039,-0.385l-0.039,-0.39l-0.038,-0.393l-0.038,-0.398l-0.037,-0.401l-0.036,-0.405l-0.036,-0.408l-0.035,-0.411l-0.034,-0.415l-0.034,-0.418l-0.033,-0.422l-0.032,-0.424l-0.031,-0.427l-0.03,-0.43l-0.03,-0.433l-0.028,-0.436l-0.027,-0.438l-0.027,-0.44l-0.025,-0.443l-0.024,-0.445l-0.022,-0.448l-0.022,-0.449l-0.02,-0.451l-0.019,-0.453l-0.018,-0.455l-0.016,-0.457l-0.015,-0.458l-0.008,-0.262l-0.006,-0.198l-0.012,-0.461l-0.01,-0.462l-0.009,-0.464l-0.008,-0.464l-0.005,-0.466l-0.004,-0.466l-0.002,-0.468l-0.001,-0.468l0.001,-0.468l0.004,-0.469l0.005,-0.47l0.007,-0.47l0.009,-0.47l0.011,-0.47l0.013,-0.471l0.015,-0.47l0.017,-0.47l0.02,-0.47l0.022,-0.469l0.024,-0.469l0.026,-0.469l0.029,-0.467l0.03,-0.468l0.034,-0.466l0.036,-0.465l0.038,-0.464l0.041,-0.464l0.043,-0.462l0.047,-0.46l0.048,-0.46l0.052,-0.458l0.054,-0.456l0.057,-0.454l0.03,-0.227l0.03,-0.226l0.031,-0.226l0.032,-0.225l0.032,-0.225l0.033,-0.224l0.034,-0.224l0.035,-0.223l0.035,-0.222l0.036,-0.222l0.037,-0.222l0.038,-0.221l0.038,-0.22l0.04,-0.22l0.04,-0.219l0.04,-0.219l0.042,-0.218l0.042,-0.217l0.044,-0.217l0.044,-0.215l0.045,-0.216l0.045,-0.214l0.048,-0.222l0.049,-0.221l0.05,-0.22l0.051,-0.22l0.051,-0.218l0.052,-0.219l0.053,-0.217l0.054,-0.216l0.055,-0.216l0.055,-0.215l0.056,-0.215l0.057,-0.213l0.058,-0.213l0.058,-0.212l0.059,-0.212l0.06,-0.21l0.06,-0.21l0.062,-0.209l0.062,-0.209l0.062,-0.207l0.064,-0.207l0.064,-0.207l0.065,-0.205l0.065,-0.205l0.066,-0.204l0.067,-0.203l0.068,-0.203l0.068,-0.201l0.069,-0.201l0.069,-0.201l0.071,-0.199l0.07,-0.199l0.072,-0.198l0.072,-0.198l0.072,-0.196l0.074,-0.196l0.074,-0.195l0.074,-0.195l0.075,-0.193l0.076,-0.193l0.076,-0.192l0.077,-0.192l0.077,-0.191l0.078,-0.19l0.079,-0.189l0.079,-0.188l0.08,-0.188l0.08,-0.187l0.081,-0.187l0.081,-0.185l0.045,-0.102l0.037,-0.083l0.082,-0.184l0.083,-0.183l0.084,-0.184l0.168,-0.362l0.171,-0.36l0.172,-0.357l0.174,-0.354l0.176,-0.351l0.178,-0.348l0.179,-0.346l0.181,-0.342l0.183,-0.339l0.184,-0.337l0.186,-0.334l0.188,-0.33l0.188,-0.328l0.191,-0.325l0.191,-0.322l0.193,-0.318l0.194,-0.316l0.195,-0.314l0.196,-0.31l0.198,-0.307l0.198,-0.304l0.2,-0.302l0.2,-0.298l0.201,-0.296l0.203,-0.293l0.203,-0.289l0.203,-0.287l0.205,-0.284l0.205,-0.281l0.206,-0.278l0.206,-0.276l0.207,-0.272l0.207,-0.27l0.208,-0.266l0.208,-0.264l0.208,-0.261l0.209,-0.258l0.209,-0.255l0.209,-0.252l0.209,-0.249l0.116,-0.137l0.094,-0.109l0.21,-0.244l0.209,-0.24l0.21,-0.238l0.209,-0.234l0.21,-0.232l0.209,-0.229l0.209,-0.226l0.209,-0.223l0.208,-0.221l0.208,-0.217l0.207,-0.215l0.207,-0.212l0.207,-0.209l0.206,-0.206l0.205,-0.203l0.205,-0.2l0.204,-0.198l0.203,-0.194l0.202,-0.192l0.202,-0.189l0.2,-0.186l0.2,-0.184l0.199,-0.18l0.197,-0.178l0.197,-0.175l0.195,-0.172l0.195,-0.169l0.193,-0.166l0.191,-0.164l0.191,-0.161l0.189,-0.157l0.188,-0.156l0.186,-0.152l0.184,-0.149l0.184,-0.147l0.181,-0.144l0.18,-0.141l0.178,-0.138l0.177,-0.136l0.174,-0.133l0.173,-0.129l0.171,-0.128l0.169,-0.124l0.167,-0.122l0.165,-0.118l0.164,-0.116l0.161,-0.114l0.158,-0.11l0.157,-0.108l0.154,-0.105l0.153,-0.102l0.15,-0.099l0.147,-0.097l0.145,-0.094l0.143,-0.091l0.14,-0.089l0.138,-0.086l0.135,-0.083l0.132,-0.08l0.124,-0.074l0.007,-0.004l0.13,-0.076l0.131,-0.074l0.132,-0.073l0.134,-0.072l0.134,-0.071l0.135,-0.069l0.136,-0.067l0.137,-0.067l0.138,-0.065l0.138,-0.063l0.14,-0.062l0.14,-0.061l0.141,-0.06l0.142,-0.059l0.143,-0.057l0.144,-0.056l0.144,-0.054l0.145,-0.053l0.146,-0.053l0.147,-0.05l0.147,-0.05l0.148,-0.048l0.149,-0.048l0.149,-0.046l0.15,-0.045l0.151,-0.043l0.151,-0.043l0.152,-0.041l0.153,-0.041l0.153,-0.039l0.154,-0.038l0.154,-0.037l0.155,-0.036l0.156,-0.034l0.156,-0.034l0.157,-0.033l0.157,-0.031l0.158,-0.031l0.158,-0.029l0.159,-0.028l0.159,-0.028l0.16,-0.026l0.16,-0.026l0.161,-0.024l0.161,-0.023l0.162,-0.023l0.161,-0.021l0.163,-0.021l0.163,-0.019l0.163,-0.019l0.163,-0.018l0.164,-0.017l0.165,-0.015l0.164,-0.015l0.165,-0.015l0.166,-0.013l0.165,-0.012l0.166,-0.012l0.166,-0.01l0.167,-0.01l0.167,-0.009l0.167,-0.008l0.167,-0.007l0.167,-0.007l0.168,-0.006l0.168,-0.004l0.168,-0.004l0.169,-0.004l0.337,-0.004l0.338,-0.001l0.338,0.001l0.339,0.005l0.339,0.007l0.34,0.01l0.339,0.013l0.34,0.015l0.34,0.018l0.34,0.02l0.339,0.023l0.039,0.003l0.301,0.022l0.338,0.028l0.339,0.03l0.338,0.032l0.337,0.034l0.337,0.036l0.336,0.039l0.335,0.04l0.334,0.042l0.333,0.043l0.332,0.046l0.33,0.047l0.329,0.048l0.328,0.05l0.326,0.052l0.325,0.053l0.323,0.054l0.321,0.055l0.319,0.057l0.317,0.058l0.315,0.058l0.313,0.06l0.311,0.061l0.308,0.062l0.306,0.062l0.303,0.063l0.301,0.064l0.298,0.065l0.295,0.065l0.293,0.065l0.289,0.066l0.286,0.067l0.283,0.066l0.28,0.067l0.276,0.067l0.273,0.068l0.27,0.067l0.265,0.067l0.262,0.067l0.258,0.067l0.255,0.067l0.25,0.067l0.246,0.066l0.479,0.131l0.462,0.13l0.444,0.126l0.079,0.023l0.345,0.101l0.405,0.121l0.384,0.116l0.363,0.112l0.34,0.106l0.318,0.101l0.295,0.095l0.27,0.089l0.245,0.081l0.22,0.074l0.193,0.066l0.26,0.09l0.188,-0.089l0.167,-0.078l0.189,-0.087l0.212,-0.096l0.235,-0.105l0.256,-0.113l0.279,-0.121l0.299,-0.128l0.32,-0.135l0.341,-0.141l0.36,-0.147l0.379,-0.152l0.398,-0.157l0.417,-0.16l0.215,-0.082l0.22,-0.083l0.224,-0.083l0.228,-0.084l0.233,-0.085l0.237,-0.085l0.241,-0.086l0.245,-0.087l0.249,-0.086l0.253,-0.088l0.257,-0.087l0.261,-0.088l0.265,-0.087l0.268,-0.088l0.272,-0.088l0.276,-0.088l0.28,-0.087l0.283,-0.088l0.286,-0.087l0.29,-0.087l0.293,-0.087l0.297,-0.086l0.3,-0.085l0.303,-0.086l0.306,-0.084l0.31,-0.084l0.312,-0.083l0.315,-0.082l0.319,-0.082l0.321,-0.08l0.324,-0.079l0.327,-0.079l0.329,-0.077l0.332,-0.076l0.335,-0.075l0.337,-0.073l0.34,-0.072l0.342,-0.071l0.344,-0.069l0.347,-0.067l0.349,-0.066l0.351,-0.064l0.354,-0.062l0.355,-0.061l0.358,-0.058l0.359,-0.057l0.362,-0.054l0.363,-0.053l0.365,-0.05l0.367,-0.048l0.369,-0.046l0.37,-0.043l0.372,-0.041l0.373,-0.038l0.375,-0.036l0.376,-0.034l0.378,-0.03l0.379,-0.028l0.38,-0.025l0.381,-0.022l0.191,-0.01l0.192,-0.009l0.191,-0.009l0.192,-0.008l0.193,-0.006l0.192,-0.007l0.193,-0.005l0.193,-0.005l0.193,-0.003l0.091,-0.002l0.102,-0.001l0.194,-0.003l0.193,-0.001l0.194,0l0.195,0Zm-78.466,82.027l0.004,-0.005l0.002,-0.003l0,0.001l0,-0.001l0.005,-0.007l0.011,-0.019l-0.022,0.034Zm78.275,-80.687l-0.188,0.001l-0.188,0.002l-0.188,0.003l-0.099,0.002l-0.088,0.002l-0.188,0.005l-0.187,0.005l-0.187,0.006l-0.187,0.007l-0.187,0.008l-0.186,0.009l-0.186,0.009l-0.186,0.01l-0.185,0.011l-0.372,0.023l-0.369,0.026l-0.369,0.029l-0.367,0.032l-0.366,0.035l-0.365,0.037l-0.364,0.039l-0.362,0.042l-0.36,0.044l-0.36,0.047l-0.357,0.048l-0.356,0.051l-0.354,0.053l-0.353,0.055l-0.35,0.058l-0.349,0.059l-0.347,0.061l-0.345,0.062l-0.343,0.065l-0.34,0.066l-0.339,0.068l-0.336,0.069l-0.335,0.071l-0.331,0.072l-0.33,0.074l-0.327,0.074l-0.324,0.077l-0.322,0.077l-0.32,0.078l-0.316,0.08l-0.314,0.08l-0.311,0.081l-0.309,0.083l-0.305,0.083l-0.303,0.083l-0.299,0.085l-0.297,0.085l-0.293,0.085l-0.29,0.086l-0.287,0.086l-0.284,0.087l-0.28,0.087l-0.277,0.087l-0.273,0.088l-0.27,0.087l-0.266,0.088l-0.263,0.087l-0.259,0.088l-0.255,0.087l-0.251,0.087l-0.248,0.086l-0.243,0.087l-0.24,0.086l-0.236,0.085l-0.231,0.085l-0.228,0.084l-0.223,0.084l-0.219,0.083l-0.214,0.082l-0.21,0.081l-0.407,0.16l-0.389,0.155l-0.371,0.15l-0.351,0.146l-0.331,0.139l-0.312,0.134l-0.291,0.126l-0.27,0.119l-0.249,0.112l-0.227,0.103l-0.205,0.094l-0.182,0.085l-0.158,0.075l-0.247,0.119l-0.149,0.073l-0.05,0.025l-0.11,0.044l-0.117,0.026l-0.119,0.008l-0.119,-0.013l-0.115,-0.031l-0.06,-0.021l-0.179,-0.062l-0.295,-0.101l-0.187,-0.062l-0.214,-0.071l-0.24,-0.078l-0.265,-0.085l-0.289,-0.092l-0.312,-0.097l-0.335,-0.103l-0.357,-0.108l-0.378,-0.112l-0.398,-0.116l-0.339,-0.097l-0.078,-0.023l-0.437,-0.123l-0.454,-0.125l-0.473,-0.127l-0.241,-0.064l-0.246,-0.065l-0.25,-0.065l-0.254,-0.064l-0.258,-0.066l-0.261,-0.065l-0.265,-0.065l-0.268,-0.065l-0.272,-0.064l-0.275,-0.065l-0.278,-0.065l-0.281,-0.064l-0.285,-0.063l-0.287,-0.064l-0.29,-0.062l-0.292,-0.062l-0.295,-0.062l-0.298,-0.061l-0.3,-0.06l-0.302,-0.059l-0.305,-0.058l-0.307,-0.058l-0.308,-0.056l-0.311,-0.056l-0.313,-0.054l-0.314,-0.053l-0.316,-0.052l-0.317,-0.05l-0.319,-0.049l-0.32,-0.048l-0.321,-0.046l-0.323,-0.045l-0.324,-0.043l-0.324,-0.041l-0.326,-0.039l-0.326,-0.038l-0.327,-0.036l-0.327,-0.034l-0.328,-0.032l-0.328,-0.03l-0.329,-0.028l-0.328,-0.025l-0.291,-0.021l-0.038,-0.003l-0.329,-0.021l-0.328,-0.019l-0.329,-0.017l-0.328,-0.014l-0.328,-0.012l-0.327,-0.009l-0.326,-0.007l-0.326,-0.003l-0.325,-0.001l-0.324,0.001l-0.324,0.005l-0.16,0.003l-0.161,0.005l-0.16,0.005l-0.161,0.005l-0.16,0.007l-0.159,0.007l-0.159,0.008l-0.159,0.009l-0.158,0.009l-0.158,0.011l-0.158,0.011l-0.157,0.012l-0.157,0.012l-0.156,0.014l-0.156,0.014l-0.156,0.016l-0.155,0.016l-0.154,0.017l-0.154,0.018l-0.154,0.018l-0.152,0.02l-0.153,0.02l-0.152,0.022l-0.151,0.022l-0.151,0.023l-0.15,0.024l-0.149,0.025l-0.149,0.026l-0.148,0.027l-0.148,0.027l-0.147,0.029l-0.146,0.03l-0.146,0.03l-0.144,0.032l-0.145,0.032l-0.143,0.033l-0.143,0.035l-0.142,0.035l-0.141,0.036l-0.141,0.038l-0.139,0.038l-0.139,0.039l-0.138,0.041l-0.138,0.041l-0.136,0.042l-0.136,0.044l-0.135,0.044l-0.134,0.045l-0.133,0.047l-0.132,0.047l-0.131,0.049l-0.131,0.049l-0.129,0.051l-0.129,0.052l-0.127,0.052l-0.127,0.054l-0.126,0.055l-0.125,0.056l-0.124,0.057l-0.122,0.058l-0.122,0.06l-0.121,0.06l-0.12,0.061l-0.119,0.063l-0.117,0.064l-0.117,0.064l-0.116,0.066l-0.115,0.068l-0.007,0.004l-0.114,0.068l-0.124,0.075l-0.127,0.077l-0.13,0.081l-0.132,0.083l-0.135,0.086l-0.138,0.089l-0.14,0.092l-0.143,0.094l-0.145,0.097l-0.147,0.1l-0.15,0.103l-0.152,0.105l-0.154,0.109l-0.157,0.111l-0.158,0.113l-0.161,0.117l-0.162,0.119l-0.165,0.122l-0.166,0.125l-0.169,0.127l-0.17,0.131l-0.172,0.133l-0.174,0.136l-0.175,0.138l-0.177,0.142l-0.179,0.144l-0.18,0.147l-0.182,0.149l-0.183,0.153l-0.184,0.155l-0.186,0.158l-0.187,0.161l-0.188,0.163l-0.19,0.167l-0.19,0.169l-0.192,0.172l-0.193,0.174l-0.194,0.178l-0.194,0.18l-0.196,0.183l-0.197,0.186l-0.197,0.188l-0.198,0.192l-0.199,0.194l-0.2,0.197l-0.2,0.2l-0.2,0.202l-0.202,0.205l-0.201,0.208l-0.203,0.211l-0.202,0.214l-0.203,0.216l-0.203,0.22l-0.204,0.222l-0.203,0.225l-0.204,0.227l-0.204,0.231l-0.204,0.233l-0.204,0.236l-0.091,0.106l-0.113,0.133l-0.204,0.241l-0.205,0.244l-0.203,0.247l-0.204,0.25l-0.203,0.253l-0.204,0.255l-0.202,0.259l-0.203,0.261l-0.201,0.264l-0.202,0.266l-0.201,0.27l-0.2,0.272l-0.2,0.275l-0.198,0.278l-0.199,0.281l-0.197,0.284l-0.197,0.286l-0.195,0.29l-0.195,0.292l-0.194,0.295l-0.193,0.298l-0.192,0.3l-0.19,0.304l-0.19,0.306l-0.188,0.309l-0.187,0.312l-0.186,0.315l-0.185,0.318l-0.183,0.32l-0.182,0.324l-0.18,0.326l-0.178,0.329l-0.178,0.332l-0.175,0.335l-0.174,0.337l-0.172,0.341l-0.17,0.343l-0.169,0.346l-0.167,0.349l-0.165,0.353l-0.081,0.176l-0.082,0.178l-0.08,0.179l-0.036,0.08l-0.045,0.099l-0.08,0.18l-0.079,0.18l-0.079,0.182l-0.078,0.182l-0.078,0.182l-0.077,0.184l-0.077,0.184l-0.076,0.185l-0.075,0.185l-0.075,0.187l-0.075,0.187l-0.074,0.188l-0.073,0.188l-0.073,0.189l-0.072,0.19l-0.072,0.191l-0.071,0.191l-0.07,0.193l-0.07,0.192l-0.069,0.194l-0.068,0.194l-0.068,0.195l-0.067,0.196l-0.067,0.197l-0.066,0.197l-0.065,0.198l-0.065,0.198l-0.064,0.2l-0.063,0.2l-0.063,0.201l-0.062,0.201l-0.061,0.203l-0.061,0.203l-0.06,0.203l-0.059,0.205l-0.058,0.205l-0.058,0.206l-0.057,0.207l-0.057,0.207l-0.055,0.208l-0.055,0.209l-0.054,0.21l-0.054,0.21l-0.052,0.211l-0.052,0.212l-0.051,0.213l-0.05,0.213l-0.05,0.214l-0.049,0.215l-0.048,0.215l-0.045,0.208l-0.045,0.209l-0.043,0.21l-0.043,0.21l-0.043,0.212l-0.041,0.211l-0.041,0.213l-0.04,0.213l-0.04,0.214l-0.038,0.215l-0.038,0.215l-0.037,0.216l-0.036,0.217l-0.036,0.217l-0.035,0.218l-0.034,0.218l-0.034,0.219l-0.033,0.22l-0.032,0.22l-0.031,0.221l-0.031,0.221l-0.03,0.221l-0.058,0.446l-0.056,0.447l-0.052,0.448l-0.05,0.451l-0.048,0.452l-0.045,0.453l-0.042,0.455l-0.04,0.457l-0.038,0.457l-0.035,0.459l-0.033,0.459l-0.03,0.461l-0.028,0.461l-0.026,0.462l-0.024,0.463l-0.022,0.463l-0.019,0.464l-0.017,0.464l-0.016,0.464l-0.013,0.464l-0.011,0.464l-0.009,0.464l-0.008,0.464l-0.005,0.464l-0.004,0.463l-0.002,0.463l0,0.462l0.002,0.462l0.003,0.46l0.005,0.46l0.006,0.459l0.009,0.458l0.009,0.456l0.005,0.195l0.006,0.26l0.013,0.454l0.014,0.453l0.016,0.45l0.017,0.449l0.018,0.448l0.019,0.445l0.021,0.444l0.022,0.441l0.023,0.439l0.024,0.437l0.025,0.435l0.026,0.432l0.027,0.429l0.028,0.427l0.029,0.424l0.03,0.421l0.031,0.418l0.032,0.415l0.032,0.412l0.033,0.409l0.034,0.405l0.034,0.402l0.035,0.398l0.036,0.395l0.036,0.391l0.036,0.387l0.037,0.383l0.038,0.379l0.038,0.375l0.038,0.37l0.038,0.366l0.078,0.719l0.078,0.701l0.079,0.681l0.079,0.661l0.079,0.639l0.078,0.618l0.078,0.596l0.076,0.572l0.075,0.548l0.073,0.523l0.071,0.498l0.069,0.471l0.066,0.444l0.063,0.415l0.06,0.387l0.056,0.358l0.052,0.326l0.048,0.296l0.015,0.091l0.086,-0.055l0.133,-0.081l0.143,-0.085l0.154,-0.089l0.167,-0.092l0.178,-0.096l0.192,-0.1l0.205,-0.104l0.218,-0.107l0.233,-0.112l0.248,-0.115l0.263,-0.119l0.279,-0.124l0.295,-0.127l0.312,-0.131l0.329,-0.135l0.347,-0.14l0.275,-0.108l0.09,-0.035l0.384,-0.148l0.402,-0.152l0.209,-0.078l0.214,-0.079l0.219,-0.079l0.224,-0.081l0.229,-0.082l0.234,-0.083l0.239,-0.083l0.245,-0.085l0.251,-0.086l0.255,-0.087l0.262,-0.089l0.267,-0.089l0.272,-0.09l0.278,-0.091l0.284,-0.093l0.29,-0.093l0.296,-0.095l0.301,-0.095l0.308,-0.097l0.314,-0.098l0.32,-0.099l0.326,-0.099l0.332,-0.101l0.339,-0.102l0.345,-0.104l0.351,-0.104l0.358,-0.105l0.364,-0.107l0.371,-0.107l0.378,-0.109l0.385,-0.109l0.391,-0.111l0.398,-0.112l0.405,-0.113l0.412,-0.114l0.419,-0.115l0.426,-0.117l0.235,-0.063l0.198,-0.055l0.44,-0.119l0.448,-0.12l0.455,-0.122l0.462,-0.123l0.469,-0.124l0.477,-0.125l0.485,-0.126l0.493,-0.127l0.5,-0.128l0.507,-0.13l0.516,-0.131l0.523,-0.131l0.532,-0.133l0.537,-0.134l0.267,-0.068l0.265,-0.07l0.264,-0.073l0.263,-0.075l0.264,-0.079l0.263,-0.081l0.262,-0.084l0.263,-0.087l0.261,-0.089l0.262,-0.092l0.261,-0.095l0.261,-0.098l0.26,-0.1l0.26,-0.103l0.259,-0.105l0.146,-0.061l0.113,-0.047l0.258,-0.112l0.258,-0.114l0.257,-0.116l0.256,-0.119l0.257,-0.121l0.255,-0.124l0.256,-0.126l0.254,-0.129l0.255,-0.13l0.253,-0.134l0.254,-0.135l0.252,-0.138l0.253,-0.139l0.251,-0.143l0.252,-0.144l0.25,-0.146l0.25,-0.149l0.25,-0.151l0.249,-0.152l0.249,-0.155l0.247,-0.157l0.248,-0.159l0.138,-0.09l0.108,-0.071l0.246,-0.164l0.245,-0.165l0.245,-0.168l0.244,-0.169l0.243,-0.172l0.243,-0.173l0.242,-0.175l0.241,-0.176l0.241,-0.179l0.24,-0.18l0.24,-0.182l0.239,-0.184l0.238,-0.185l0.237,-0.187l0.237,-0.188l0.237,-0.191l0.235,-0.191l0.235,-0.194l0.234,-0.194l0.234,-0.197l0.233,-0.197l0.232,-0.2l0.231,-0.2l0.231,-0.202l0.23,-0.204l0.23,-0.204l0.228,-0.206l0.088,-0.081l0.14,-0.127l0.226,-0.209l0.226,-0.21l0.225,-0.212l0.225,-0.213l0.224,-0.214l0.222,-0.215l0.223,-0.216l0.221,-0.217l0.22,-0.219l0.22,-0.219l0.219,-0.22l0.218,-0.222l0.218,-0.222l0.216,-0.223l0.216,-0.225l0.215,-0.225l0.214,-0.226l0.213,-0.226l0.213,-0.228l0.212,-0.228l0.21,-0.23l0.21,-0.23l0.209,-0.23l0.209,-0.232l0.207,-0.232l0.206,-0.232l0.206,-0.233l0.205,-0.234l0.204,-0.235l0.203,-0.235l0.202,-0.235l0.201,-0.236l0.2,-0.236l0.2,-0.237l0.198,-0.238l0.198,-0.237l0.196,-0.238l0.196,-0.239l0.195,-0.238l0.194,-0.239l0.192,-0.239l0.192,-0.24l0.191,-0.24l0.19,-0.24l0.189,-0.24l0.189,-0.24l0.187,-0.24l0.186,-0.24l0.185,-0.241l0.184,-0.24l0.183,-0.241l0.183,-0.24l0.181,-0.241l0.18,-0.24l0.179,-0.24l0.356,-0.481l0.351,-0.479l0.326,-0.45l0.021,-0.029l0.342,-0.478l0.338,-0.477l0.334,-0.475l0.329,-0.474l0.325,-0.472l0.321,-0.47l0.316,-0.467l0.312,-0.466l0.307,-0.462l0.303,-0.459l0.298,-0.457l0.294,-0.453l0.289,-0.45l0.284,-0.446l0.28,-0.442l0.275,-0.438l0.27,-0.434l0.265,-0.429l0.26,-0.424l0.256,-0.42l0.25,-0.415l0.246,-0.409l0.24,-0.404l0.236,-0.398l0.23,-0.392l0.226,-0.386l0.22,-0.38l0.215,-0.373l0.209,-0.367l0.205,-0.359l0.199,-0.353l0.193,-0.345l0.189,-0.338l0.182,-0.33l0.178,-0.322l0.172,-0.314l0.166,-0.306l0.161,-0.297l0.155,-0.288l0.149,-0.279l0.282,-0.532l0.259,-0.494l0.235,-0.453l0.212,-0.413l0.188,-0.369l0.163,-0.325l0.139,-0.279l0.114,-0.231l0.088,-0.182l0.063,-0.13l0.052,-0.107l0.098,-0.165l0.124,-0.148l0.145,-0.126l0.163,-0.102l0.177,-0.074l0.187,-0.046l0.192,-0.015l0.192,0.015l0.187,0.045l0.177,0.074l0.153,0.082l0.186,0.097l0.258,0.133l0.326,0.166l0.394,0.198l0.219,0.108l0.236,0.116l0.251,0.123l0.265,0.128l0.28,0.134l0.294,0.14l0.308,0.144l0.32,0.15l0.334,0.154l0.347,0.158l0.359,0.162l0.37,0.166l0.383,0.169l0.393,0.172l0.405,0.174l0.415,0.177l0.425,0.179l0.434,0.18l0.445,0.182l0.453,0.183l0.462,0.183l0.47,0.184l0.48,0.184l0.241,0.092l0.244,0.092l0.246,0.092l0.248,0.091l0.249,0.092l0.251,0.091l0.253,0.09l0.254,0.091l0.256,0.09l0.257,0.09l0.259,0.089l0.26,0.089l0.262,0.088l0.263,0.088l0.264,0.087l0.266,0.086l0.267,0.086l0.267,0.085l0.269,0.084l0.27,0.084l0.272,0.082l0.272,0.082l0.273,0.081l0.274,0.08l0.274,0.079l0.276,0.077l0.276,0.077l0.277,0.076l0.278,0.074l0.278,0.074l0.279,0.072l0.279,0.071l0.28,0.069l0.28,0.068l0.281,0.067l0.281,0.065l0.282,0.064l0.281,0.063l0.282,0.061l0.282,0.059l0.282,0.058l0.282,0.056l0.282,0.054l0.283,0.053l0.07,0.012l0.212,0.038l0.282,0.049l0.282,0.046l0.282,0.045l0.281,0.043l0.281,0.041l0.281,0.039l0.28,0.036l0.28,0.035l0.28,0.033l0.279,0.03l0.278,0.029l0.278,0.026l0.277,0.024l0.278,0.022l0.277,0.02l0.277,0.018l0.276,0.016l0.275,0.015l0.275,0.012l0.274,0.011l0.273,0.01l0.273,0.007l0.272,0.006l0.271,0.004l0.27,0.003l0.27,0.001l0.269,0l0.268,-0.002l0.267,-0.004l0.266,-0.005l0.265,-0.007l0.264,-0.008l0.263,-0.009l0.263,-0.011l0.261,-0.012l0.26,-0.013l0.259,-0.015l0.257,-0.016l0.257,-0.017l0.255,-0.019l0.255,-0.019l0.253,-0.021l0.251,-0.022l0.251,-0.023l0.249,-0.024l0.248,-0.025l0.246,-0.027l0.245,-0.027l0.244,-0.028l0.242,-0.029l0.241,-0.03l0.239,-0.031l0.237,-0.032l0.236,-0.033l0.235,-0.033l0.233,-0.034l0.231,-0.035l0.23,-0.036l0.228,-0.037l0.226,-0.037l0.118,-0.02l0.106,-0.018l0.223,-0.039l0.221,-0.039l0.219,-0.04l0.217,-0.041l0.215,-0.041l0.213,-0.042l0.212,-0.042l0.209,-0.042l0.208,-0.043l0.205,-0.043l0.204,-0.044l0.201,-0.044l0.397,-0.088l0.388,-0.09l0.379,-0.09l0.371,-0.091l0.361,-0.091l0.352,-0.091l0.342,-0.091l0.333,-0.09l0.322,-0.09l0.312,-0.089l0.302,-0.088l0.292,-0.087l0.127,-0.038l0.153,-0.047l0.269,-0.085l0.258,-0.082l0.246,-0.08l0.235,-0.078l0.223,-0.075l0.211,-0.072l0.199,-0.069l0.186,-0.066l0.174,-0.062l0.16,-0.058l0.147,-0.055l0.164,-0.061l-0.049,-0.131l-0.093,-0.244l-0.108,-0.277l-0.121,-0.308l-0.136,-0.34l-0.105,-0.261l-0.044,-0.108l-0.165,-0.397l-0.179,-0.424l-0.192,-0.449l-0.207,-0.475l-0.108,-0.246l-0.111,-0.252l-0.115,-0.257l-0.118,-0.263l-0.121,-0.268l-0.125,-0.273l-0.128,-0.278l-0.132,-0.283l-0.134,-0.288l-0.138,-0.292l-0.142,-0.296l-0.144,-0.301l-0.148,-0.304l-0.151,-0.309l-0.154,-0.312l-0.157,-0.316l-0.16,-0.319l-0.164,-0.323l-0.167,-0.326l-0.17,-0.328l-0.173,-0.332l-0.176,-0.334l-0.179,-0.337l-0.183,-0.339l-0.185,-0.341l-0.171,-0.311l-0.018,-0.032l-0.192,-0.345l-0.195,-0.347l-0.199,-0.348l-0.201,-0.35l-0.204,-0.351l-0.208,-0.352l-0.21,-0.353l-0.213,-0.354l-0.217,-0.355l-0.219,-0.355l-0.222,-0.356l-0.225,-0.355l-0.228,-0.356l-0.231,-0.356l-0.233,-0.356l-0.237,-0.355l-0.239,-0.355l-0.242,-0.354l-0.245,-0.353l-0.248,-0.352l-0.251,-0.351l-0.126,-0.175l-0.127,-0.175l-0.127,-0.174l-0.129,-0.174l-0.129,-0.174l-0.129,-0.173l-0.131,-0.172l-0.131,-0.173l-0.131,-0.171l-0.133,-0.172l-0.133,-0.17l-0.134,-0.171l-0.134,-0.169l-0.135,-0.169l-0.136,-0.169l-0.107,-0.132l-0.029,-0.036l-0.138,-0.167l-0.138,-0.166l-0.138,-0.166l-0.139,-0.165l-0.14,-0.164l-0.141,-0.164l-0.141,-0.163l-0.142,-0.162l-0.142,-0.161l-0.143,-0.161l-0.144,-0.16l-0.145,-0.158l-0.145,-0.159l-0.145,-0.157l-0.146,-0.156l-0.147,-0.155l-0.148,-0.155l-0.148,-0.153l-0.149,-0.153l-0.149,-0.151l-0.15,-0.151l-0.15,-0.149l-0.152,-0.148l-0.151,-0.148l-0.153,-0.146l-0.153,-0.145l-0.153,-0.144l-0.154,-0.143l-0.155,-0.142l-0.155,-0.14l-0.156,-0.14l-0.157,-0.138l-0.157,-0.137l-0.157,-0.135l-0.159,-0.135l-0.158,-0.133l-0.16,-0.132l-0.16,-0.13l-0.16,-0.129l-0.161,-0.128l-0.162,-0.126l-0.162,-0.125l-0.163,-0.124l-0.163,-0.122l-0.164,-0.121l-0.164,-0.119l-0.165,-0.117l-0.165,-0.117l-0.166,-0.114l-0.167,-0.113l-0.167,-0.112l-0.167,-0.11l-0.168,-0.108l-0.169,-0.107l-0.169,-0.105l-0.17,-0.104l-0.17,-0.102l-0.171,-0.1l-0.171,-0.098l-0.171,-0.097l-0.173,-0.095l-0.172,-0.093l-0.174,-0.091l-0.173,-0.09l-0.174,-0.088l-0.175,-0.086l-0.175,-0.084l-0.176,-0.082l-0.176,-0.081l-0.177,-0.078l-0.177,-0.077l-0.177,-0.075l-0.178,-0.073l-0.179,-0.071l-0.179,-0.068l-0.179,-0.067l-0.18,-0.065l-0.181,-0.063l-0.181,-0.061l-0.181,-0.059l-0.182,-0.056l-0.182,-0.055l-0.183,-0.052l-0.183,-0.051l-0.184,-0.048l-0.185,-0.046l-0.187,-0.045l-0.189,-0.045l-0.188,-0.043l-0.188,-0.041l-0.189,-0.041l-0.189,-0.04l-0.189,-0.038l-0.189,-0.037l-0.189,-0.036l-0.189,-0.035l-0.19,-0.034l-0.189,-0.033l-0.189,-0.032l-0.19,-0.031l-0.19,-0.029l-0.189,-0.029l-0.19,-0.027l-0.19,-0.027l-0.19,-0.025l-0.19,-0.025l-0.19,-0.023l-0.19,-0.022l-0.19,-0.022l-0.19,-0.02l-0.19,-0.019l-0.19,-0.019l-0.19,-0.017l-0.19,-0.016l-0.19,-0.016l-0.19,-0.014l-0.19,-0.014l-0.19,-0.012l-0.19,-0.012l-0.189,-0.011l-0.19,-0.01l-0.19,-0.008l-0.189,-0.008l-0.19,-0.008l-0.189,-0.006l-0.189,-0.005l-0.189,-0.005l-0.189,-0.003l-0.189,-0.003l-0.189,-0.002l-0.189,-0.001l-0.188,0l-0.189,0.001Z" style="fill:#671f00;"/></svg>